<svg width="40" height="30" viewBox="0 0 40 30" fill="none" xmlns="http://www.w3.org/2000/svg">
<path d="M32.1185 30C28.8 30 26.4296 28.9328 25.0074 26.7984C23.5852 24.585 22.8741 22.253 22.8741 19.8024C22.8741 17.747 23.1901 15.6126 23.8222 13.3992C24.4543 11.1067 25.442 8.9328 26.7852 6.87747C28.1284 4.82213 29.8667 3.16205 32 1.89723C34.2123 0.63241 36.8593 0 39.9407 0C40.0197 0 40.0197 0.316206 39.9407 0.948618C39.9407 1.58103 39.9407 2.25296 39.9407 2.96442C39.9407 3.59684 39.9407 3.91304 39.9407 3.91304C39.9407 3.91304 39.5062 4.07115 38.637 4.38735C37.7679 4.62451 36.7407 5.13834 35.5556 5.92885C34.3704 6.64032 33.3432 7.66798 32.4741 9.01185C31.6049 10.3557 31.1704 12.0949 31.1704 14.2292C31.3284 14.1502 31.5259 14.1107 31.763 14.1107C32 14.1107 32.1975 14.1107 32.3556 14.1107C34.6469 14.1107 36.4642 14.8221 37.8074 16.2451C39.2296 17.668 39.9407 19.4862 39.9407 21.6996C39.9407 24.1502 39.1901 26.166 37.6889 27.747C36.2667 29.249 34.4099 30 32.1185 30ZM9.24444 30C5.92593 30 3.55556 28.9328 2.13333 26.7984C0.711111 24.585 0 22.253 0 19.8024C0 17.747 0.316049 15.6126 0.948148 13.3992C1.58025 11.1067 2.5679 8.9328 3.91111 6.87747C5.25432 4.82213 6.99259 3.16205 9.12593 1.89723C11.3383 0.63241 13.9852 0 17.0667 0C17.1457 0 17.1457 0.316206 17.0667 0.948618C17.0667 1.58103 17.0667 2.25296 17.0667 2.96442C17.0667 3.59684 17.0667 3.91304 17.0667 3.91304C17.0667 3.91304 16.6321 4.07115 15.763 4.38735C14.8938 4.62451 13.8667 5.13834 12.6815 5.92885C11.4963 6.64032 10.4691 7.66798 9.6 9.01185C8.73086 10.3557 8.2963 12.0949 8.2963 14.2292C8.45432 14.1502 8.65185 14.1107 8.88889 14.1107C9.12593 14.1107 9.32346 14.1107 9.48148 14.1107C11.7728 14.1107 13.5901 14.8221 14.9333 16.2451C16.3556 17.668 17.0667 19.4862 17.0667 21.6996C17.0667 24.1502 16.316 26.166 14.8148 27.747C13.3926 29.249 11.5358 30 9.24444 30Z" fill="#2164F8"/>
</svg>
