<?xml version="1.0" encoding="UTF-8"?>
<svg version="1.1" xmlns="http://www.w3.org/2000/svg" width="512" height="512">
<path d="M0 0 C0.70866211 0.17160645 1.41732422 0.34321289 2.14746094 0.52001953 C12.6811947 3.14992763 22.38461193 6.98383876 32 12 C32.90709717 12.47010498 32.90709717 12.47010498 33.83251953 12.94970703 C42.33079879 17.41567425 49.7788771 22.64322363 57 29 C57.83015625 29.69738281 58.6603125 30.39476562 59.515625 31.11328125 C81.87312482 50.34213723 96.02937235 76.6121189 103 105 C103.17789062 105.71913574 103.35578125 106.43827148 103.5390625 107.17919922 C111.47877028 141.02535433 104.94152821 178.16692887 86.94580078 207.73193359 C80.34269718 218.16695269 72.20488179 227.48230349 63.8125 236.5 C56.46231457 244.72556685 52.08142091 253.79644772 48 264 C-5.46 264 -58.92 264 -114 264 C-115.65 260.04 -117.3 256.08 -119 252 C-122.94496839 244.80917153 -127.96228621 238.78433316 -133.57617188 232.84277344 C-162.39845434 202.02934834 -173.36931131 166.51071733 -172.18359375 124.84228516 C-171.77745532 116.34254232 -170.21025694 108.20063876 -168 100 C-167.73509766 98.99791504 -167.73509766 98.99791504 -167.46484375 97.97558594 C-161.95075487 77.89000663 -151.41905242 59.78003471 -138 44 C-137.18917969 43.04222656 -136.37835938 42.08445313 -135.54296875 41.09765625 C-117.55324729 20.39054532 -92.56247691 6.32790309 -66 0 C-65.33548828 -0.16371094 -64.67097656 -0.32742187 -63.98632812 -0.49609375 C-43.59757193 -5.30982936 -20.32151815 -5.02886434 0 0 Z M-41.62890625 55.59765625 C-43.60592332 59.06166052 -43.32077681 62.38155515 -43.1875 66.25 C-43.17396484 66.99507812 -43.16042969 67.74015625 -43.14648438 68.5078125 C-43.11127204 70.33885416 -43.05746851 72.16952169 -43 74 C-44.258125 74.33 -45.51625 74.66 -46.8125 75 C-57.4338639 78.5683762 -65.33183538 85.96352074 -70.43359375 95.75 C-75.69487236 107.19663448 -76.40238689 118.67546689 -72.06640625 130.55859375 C-67.38486027 140.94223034 -59.44950416 149.37455772 -49 154 C-42.83857497 156.0735565 -36.68669559 157.04604954 -30.25 157.8125 C-24.21733433 158.71559366 -19.97957364 160.24797841 -16 165 C-12.59310481 170.80433996 -11.15453526 176.34196518 -12 183 C-14.16935898 190.23932153 -17.38616683 194.12145806 -23.765625 198.1015625 C-29.34905226 200.34664689 -36.95518115 200.12667609 -42.5546875 198.0546875 C-48.64135891 194.40268465 -52.18064513 189.88755771 -54 183 C-54.12761719 182.18660156 -54.25523437 181.37320313 -54.38671875 180.53515625 C-55.24773037 175.039528 -55.24773037 175.039528 -58.125 170.375 C-61.87839536 168.57989787 -64.91861156 168.01881773 -69 169 C-72.3029816 171.67049576 -74.7727074 173.88729662 -75.23828125 178.21484375 C-75.53791034 189.20650051 -72.22850043 197.77386149 -65 206 C-64.49855469 206.60585938 -63.99710938 207.21171875 -63.48046875 207.8359375 C-58.65852394 213.20929693 -52.66218279 216.3409709 -46 219 C-45.01 219 -44.02 219 -43 219 C-43.03480469 220.09699219 -43.06960937 221.19398438 -43.10546875 222.32421875 C-43.13361865 223.77863045 -43.16091752 225.2330588 -43.1875 226.6875 C-43.21263672 227.40873047 -43.23777344 228.12996094 -43.26367188 228.87304688 C-43.32668998 233.47336884 -42.83905242 236.34385445 -40 240 C-36.78477863 242.32826375 -33.89169575 242.39711181 -30 242 C-27.32710452 240.78504751 -25.57595974 239.81031577 -23.8671875 237.40625 C-22.59947185 233.88862458 -22.79034525 230.43573763 -22.875 226.75 C-22.88402344 226.00492188 -22.89304687 225.25984375 -22.90234375 224.4921875 C-22.92581642 222.66131941 -22.96168475 220.83061762 -23 219 C-21.87658203 218.79890625 -21.87658203 218.79890625 -20.73046875 218.59375 C-10.99540879 216.47682709 -2.49151347 209.17622511 2.9375 201 C8.43353455 191.13432667 10.51321897 179.65115087 7.85546875 168.57421875 C3.36779619 155.07021776 -3.5876645 146.7211662 -16 140 C-21.39283549 137.44346797 -26.65654329 136.77342848 -32.5625 136.125 C-40.39960782 135.17480957 -44.85996681 133.14003319 -50.375 127.625 C-53.61467329 122.39168161 -54.61869713 117.08385513 -54 111 C-52.28898991 104.19927633 -49.78712759 100.04854695 -44 96.05859375 C-38.29881975 93.04097686 -30.74865198 92.85613273 -24.64453125 94.71875 C-18.93449649 97.37557668 -15.73037727 100.90216678 -13.375 106.75 C-12.32171996 109.72396718 -11.64833291 112.65272688 -11.0625 115.75 C-10.23999137 119.59721778 -9.43375767 121.77269773 -6 124 C-2.15654948 125.04821378 0.03630199 125.39424009 3.75 123.875 C7.11099417 121.07417152 8.73245227 119.01965909 9.3203125 114.58203125 C9.76909778 103.97573917 5.58982113 95.14901988 -1 87 C-6.74268165 80.786239 -13.0286477 76.83425859 -21 74 C-21.66 74 -22.32 74 -23 74 C-22.91298828 72.37191406 -22.91298828 72.37191406 -22.82421875 70.7109375 C-22.77729442 69.26566824 -22.73179713 67.82035216 -22.6875 66.375 C-22.6246582 65.30572266 -22.6246582 65.30572266 -22.56054688 64.21484375 C-22.46905303 60.22571192 -22.7846918 57.72979292 -25.30078125 54.54296875 C-31.04846925 49.12799785 -36.36375865 50.43351868 -41.62890625 55.59765625 Z " fill="#000000" transform="translate(289,88)"/>
<path d="M0 0 C49.5 0 99 0 150 0 C150 3.63 150 7.26 150 11 C151.53720703 10.93039062 151.53720703 10.93039062 153.10546875 10.859375 C154.46611656 10.82183989 155.82679605 10.78544159 157.1875 10.75 C157.86103516 10.71648437 158.53457031 10.68296875 159.22851562 10.6484375 C162.89041975 10.57698571 164.82150622 10.88465822 167.92578125 12.890625 C171.51154686 16.5371663 171.39119053 19.57173133 171.35546875 24.515625 C171 27 171 27 168.6875 30.0625 C164.38926186 33.16122982 161.17564879 33.12847421 155.99124146 33.14044189 C155.27350079 33.14341302 154.55576013 33.14638414 153.81626976 33.1494453 C151.40500795 33.15813487 148.99379577 33.15964075 146.58251953 33.16113281 C144.85622044 33.16576076 143.12992236 33.17078539 141.40362549 33.17617798 C136.70940264 33.1893052 132.01519409 33.19574743 127.32095575 33.20018864 C124.3893111 33.20311851 121.45767036 33.20722312 118.52602768 33.21169281 C109.35674531 33.22536784 100.18747188 33.23503479 91.01818001 33.2388947 C80.42746895 33.2433773 69.83688683 33.26093452 59.24621499 33.2898953 C51.06355115 33.31149599 42.88092363 33.3215981 34.69823158 33.32293582 C29.80924963 33.3239849 24.92038889 33.3299146 20.03143692 33.34775543 C15.43333079 33.36420851 10.83543735 33.3664051 6.23731232 33.35761642 C4.54944414 33.3568446 2.86156465 33.36120791 1.17372513 33.37107468 C-1.1301958 33.38375343 -3.43335876 33.37794009 -5.73727417 33.36749268 C-7.02665327 33.36895924 -8.31603237 33.3704258 -9.64448357 33.3719368 C-13.98372323 32.89096079 -16.41029786 31.23141041 -19.78515625 28.6171875 C-21.91391568 25.78340485 -21.45805687 22.86612935 -21.36328125 19.44921875 C-20.85843014 16.04554517 -19.51318492 14.29143331 -17 12 C-13.93466836 10.46733418 -10.73245728 10.89723529 -7.375 10.9375 C-6.31539062 10.94426758 -6.31539062 10.94426758 -5.234375 10.95117188 C-3.48954725 10.96296125 -1.744763 10.98089676 0 11 C0 7.37 0 3.74 0 0 Z " fill="#000000" transform="translate(181,373)"/>
<path d="M0 0 C1.10522979 0.00092179 2.21045958 0.00184359 3.34918118 0.00279331 C5.24442783 0.00073132 5.24442783 0.00073132 7.1779623 -0.00137234 C8.59110951 0.00216728 10.00425648 0.00580209 11.41740322 0.00952244 C12.89536442 0.0098043 14.37332577 0.00964659 15.85128689 0.00907993 C19.87590486 0.00879193 23.9004933 0.01468912 27.92510438 0.02165389 C32.12651023 0.02788694 36.32791668 0.02849119 40.52932644 0.0296793 C48.49080915 0.03279276 56.4522782 0.04100634 64.41375488 0.05102879 C73.47527247 0.06218947 82.5367907 0.06770026 91.59831345 0.07272422 C110.24366559 0.08318894 128.88900499 0.10078867 147.53434658 0.12304783 C147.60961456 6.76260908 147.09645212 10.45871606 143.53434658 16.12304783 C143.17212002 16.71730564 142.80989346 17.31156345 142.43669033 17.92382908 C140.20686195 21.09094125 138.84488125 22.06536428 135.02398586 22.77511692 C130.00432447 23.25697092 124.98886636 23.2630941 119.95011806 23.25244236 C118.91965862 23.25419468 117.88919918 23.255947 116.82751369 23.25775242 C113.43680519 23.26213607 110.04614933 23.25924369 106.65544033 23.25586033 C104.28142188 23.25653473 101.90740349 23.25750589 99.53338528 23.2587595 C94.5596593 23.26023206 89.58595132 23.25809742 84.61222744 23.25341892 C78.27352833 23.24774372 71.93487177 23.25098942 65.59617424 23.25699139 C60.69133091 23.26062756 55.78649744 23.25944408 50.88165379 23.25686359 C48.54674747 23.25620162 46.21184023 23.25699692 43.87693501 23.25934315 C22.95490933 23.27574417 22.95490933 23.27574417 13.74943447 22.81005955 C12.63041241 22.75470036 11.51139034 22.69934116 10.35845852 22.64230442 C6.37761593 21.91036504 4.24539239 20.20551563 1.76090908 17.08398533 C-1.45620559 11.94070009 -2.98193013 7.16958893 -3.46565342 1.12304783 C-2.46565342 0.12304783 -2.46565342 0.12304783 0 0 Z " fill="#000000" transform="translate(183.46565341949463,425.8769521713257)"/>
<path d="M0 0 C34.32 0 68.64 0 104 0 C102.17131405 10.97211572 96.60862058 19.06104858 87.7890625 25.65234375 C77.28059091 32.60697948 65.59338126 33.49049806 53.26904297 33.33618164 C51.23755733 33.31235406 49.20737379 33.31568063 47.17578125 33.32226562 C31.68944587 33.23851455 20.66593836 30.15852269 9.19921875 19.33984375 C4.09119854 13.90520058 0 7.60185815 0 0 Z " fill="#000000" transform="translate(204,469)"/>
<path d="M0 0 C6.80525953 3.97585287 12.31383551 10.01232578 17.8125 15.5625 C18.65748047 16.39974609 19.50246094 17.23699219 20.37304688 18.09960938 C21.18451172 18.91365234 21.99597656 19.72769531 22.83203125 20.56640625 C23.56139893 21.29802979 24.2907666 22.02965332 25.04223633 22.78344727 C28.10942233 26.2560725 29.87712436 28.85316066 30.375 33.5 C29.96942028 37.28541073 29.37361222 39.05344689 27 42 C24.22851567 44.2325846 22.24933302 44.95205134 18.75 45.625 C9.83621728 44.13936955 2.75612007 35.06773937 -3.375 28.875 C-4.16777344 28.08996094 -4.96054687 27.30492187 -5.77734375 26.49609375 C-6.53917969 25.73167969 -7.30101562 24.96726562 -8.0859375 24.1796875 C-8.7670459 23.49632324 -9.4481543 22.81295898 -10.14990234 22.10888672 C-13.16119012 18.67638423 -14.88441732 16.07877165 -15.375 11.5 C-14.96942028 7.71458927 -14.37361222 5.94655311 -12 3 C-8.06312617 -0.17137058 -4.98255472 -0.76005072 0 0 Z " fill="#000000" transform="translate(388,341)"/>
<path d="M0 0 C3.31301121 1.72021736 5.41950434 3.0913981 7.4375 6.25 C8.36615948 10.790113 8.32006448 14.9858014 5.74780273 18.91064453 C4.0724301 20.84275858 2.3245589 22.6456908 0.5 24.4375 C-0.13421875 25.08565674 -0.7684375 25.73381348 -1.421875 26.40161133 C-2.68779929 27.69117521 -3.96109801 28.97354735 -5.2421875 30.24804688 C-6.75424419 31.75506337 -8.23926445 33.28911991 -9.71875 34.828125 C-19.67734962 45.12777256 -19.67734962 45.12777256 -26.0625 45.4375 C-30.03052607 44.99660821 -31.94803356 44.51338412 -35 42 C-37.30913524 39.03111183 -37.29665453 35.88421186 -37.4609375 32.1953125 C-35.97312579 25.10929401 -28.97311231 19.63462558 -24.05566406 14.73999023 C-22.62668107 13.31417734 -21.21157827 11.8755127 -19.796875 10.43554688 C-18.88679688 9.52482422 -17.97671875 8.61410156 -17.0390625 7.67578125 C-16.21615723 6.84989502 -15.39325195 6.02400879 -14.54541016 5.1730957 C-10.08512234 1.36520947 -5.91990612 -0.86331964 0 0 Z " fill="#000000" transform="translate(410,62)"/>
<path d="M0 0 C4.14613048 1.79037453 6.20962547 3.85386952 8 8 C8.74119023 12.36478692 8.30609607 15.05735502 5.8125 18.625 C-2.06183912 28.22009731 -11.66155394 38.10770263 -22 45 C-26.97455239 45.4606067 -30.06753613 45.16781812 -34 42 C-36.26711915 39.18564519 -36.95603875 37.25888289 -37.5625 33.6875 C-36.21822913 24.87505765 -27.50295216 18.19666026 -21.4375 12.1875 C-20.18163086 10.9200293 -20.18163086 10.9200293 -18.90039062 9.62695312 C-18.08634766 8.81548828 -17.27230469 8.00402344 -16.43359375 7.16796875 C-15.70197021 6.43860107 -14.97034668 5.7092334 -14.21655273 4.95776367 C-9.55713219 0.8423442 -6.28561754 -0.67345902 0 0 Z " fill="#000000" transform="translate(131,341)"/>
<path d="M0 0 C4.14950542 2.44582046 7.54701695 5.67410161 11 9 C11.62874023 9.59989746 12.25748047 10.19979492 12.90527344 10.81787109 C28.67420423 25.95923952 28.67420423 25.95923952 29.375 32.5 C28.96942028 36.28541073 28.37361222 38.05344689 26 41 C23.18564519 43.26711915 21.25888289 43.95603875 17.6875 44.5625 C7.66881479 43.03422598 -0.31179569 32.07130465 -7 25 C-7.86238281 24.0925 -8.72476563 23.185 -9.61328125 22.25 C-12.99993658 18.40016091 -15.46485931 15.43236053 -15.75 10.1875 C-15.36462414 6.15532661 -13.98082133 3.8054789 -11 1 C-7.32508303 -0.83745849 -3.9140126 -0.86260847 0 0 Z " fill="#000000" transform="translate(110,63)"/>
<path d="M0 0 C1.88554239 -0.01653985 3.7710226 -0.04380394 5.65625 -0.08203125 C8.37891062 -0.13694285 11.10010156 -0.15869661 13.82324219 -0.17333984 C14.66095154 -0.19600922 15.49866089 -0.21867859 16.36175537 -0.24203491 C20.57052561 -0.22692618 23.26649988 0.05483662 26.60888672 2.74243164 C29.74269414 6.03758787 30.11219915 7.75423691 30.33105469 12.13134766 C29.94525998 15.665725 28.39237186 17.72666178 26.08886719 20.35009766 C22.17154823 22.96164363 18.80521479 22.67399311 14.25683594 22.68603516 C12.95278557 22.69602036 12.95278557 22.69602036 11.62239075 22.70620728 C9.78238032 22.71633258 7.94233318 22.72102433 6.10229492 22.72070312 C3.29706649 22.72506547 0.49342546 22.76135506 -2.31152344 22.79931641 C-4.10123161 22.8051869 -5.89094725 22.80915473 -7.68066406 22.81103516 C-8.51523636 22.82540619 -9.34980865 22.83977722 -10.20967102 22.85458374 C-15.57547809 22.81282649 -18.66156994 21.93390542 -22.91113281 18.35009766 C-24.76839897 14.63556534 -24.49614371 10.3943034 -23.91113281 6.35009766 C-17.69291746 -1.66812741 -9.26630781 0.05958523 0 0 Z " fill="#000000" transform="translate(55.9111328125,212.64990234375)"/>
<path d="M0 0 C0.86936691 -0.0066568 1.73873383 -0.0133136 2.63444519 -0.02017212 C4.47445562 -0.03029742 6.31450276 -0.03498918 8.15454102 -0.03466797 C10.95976945 -0.03903031 13.76341048 -0.07531991 16.56835938 -0.11328125 C18.35806755 -0.11915174 20.14778318 -0.12311958 21.9375 -0.125 C22.7720723 -0.13937103 23.60664459 -0.15374207 24.46650696 -0.16854858 C29.83231403 -0.12679133 32.91840587 0.75212973 37.16796875 4.3359375 C39.02523491 8.05046982 38.75297964 12.29173175 38.16796875 16.3359375 C35.97773957 19.16018038 34.33779668 20.75102353 31.16796875 22.3359375 C28.23695729 22.47176258 25.33091737 22.54870229 22.3984375 22.57421875 C21.52528397 22.5822905 20.65213043 22.59036224 19.7525177 22.59867859 C17.90233345 22.61252114 16.05212363 22.62324253 14.2019043 22.63110352 C11.37694678 22.6483067 8.55316254 22.69218916 5.72851562 22.73632812 C3.93099819 22.74645597 2.1334708 22.75497179 0.3359375 22.76171875 C-0.50693314 22.77922684 -1.34980377 22.79673492 -2.21821594 22.81477356 C-6.28896502 22.79977445 -8.31066333 22.66877715 -11.82299805 20.42651367 C-14.69957254 17.4331843 -15.66924962 15.58392997 -16.20703125 11.4609375 C-15.73064623 7.49106236 -14.30162699 5.44057214 -11.83203125 2.3359375 C-7.91471229 -0.27560847 -4.54837885 0.01204205 0 0 Z " fill="#000000" transform="translate(441.83203125,212.6640625)"/>
<path d="M0 0 C2.82424288 2.19022918 4.41508603 3.83017207 6 7 C6.13582508 9.93101146 6.21276479 12.83705138 6.23828125 15.76953125 C6.246353 16.64268478 6.25442474 17.51583832 6.26274109 18.41545105 C6.27658364 20.2656353 6.28730503 22.11584512 6.29516602 23.96606445 C6.3123692 26.79102197 6.35625166 29.61480621 6.40039062 32.43945312 C6.41051847 34.23697056 6.41903429 36.03449795 6.42578125 37.83203125 C6.44328934 38.67490189 6.46079742 39.51777252 6.47883606 40.38618469 C6.46383695 44.45693377 6.33283965 46.47863208 4.09057617 49.9909668 C1.0972468 52.86754129 -0.75200753 53.83721837 -4.875 54.375 C-8.84487514 53.89861498 -10.89536536 52.46959574 -14 50 C-16.61154597 46.08268104 -16.32389545 42.7163476 -16.3359375 38.16796875 C-16.3425943 37.29860184 -16.3492511 36.42923492 -16.35610962 35.53352356 C-16.36623492 33.69351313 -16.37092668 31.85346599 -16.37060547 30.01342773 C-16.37496781 27.2081993 -16.41125741 24.40455827 -16.44921875 21.59960938 C-16.45508924 19.8099012 -16.45905708 18.02018557 -16.4609375 16.23046875 C-16.47530853 15.39589645 -16.48967957 14.56132416 -16.50448608 13.70146179 C-16.46272883 8.33565472 -15.58380777 5.24956288 -12 1 C-8.28546768 -0.85726616 -4.04420575 -0.58501089 0 0 Z " fill="#000000" transform="translate(261,0)"/>
</svg>
