<svg width="50" height="50" viewBox="0 0 50 50" fill="none" xmlns="http://www.w3.org/2000/svg">
<path d="M42.4584 10.2084C40.6146 8.36146 38.1975 7.19652 35.6041 6.905C33.0108 6.61348 30.3953 7.21272 28.1876 8.60426L32.8126 13.3126C32.9973 13.5171 33.1397 13.7562 33.2314 14.016C33.3231 14.2759 33.3624 14.5514 33.3469 14.8266C33.3314 15.1017 33.2614 15.371 33.1411 15.619C33.0208 15.8669 32.8524 16.0885 32.6459 16.2709C32.2607 16.6107 31.7636 16.7961 31.2501 16.7918C30.9558 16.794 30.6645 16.7339 30.3952 16.6154C30.1258 16.4969 29.8847 16.3227 29.6876 16.1043L23.8126 10.2084C22.9701 9.36672 21.9998 8.66359 20.9376 8.1251C18.7704 7.01487 16.3076 6.6185 13.9015 6.99269C11.4954 7.36689 9.26936 8.49248 7.54172 10.2084C5.37985 12.7248 4.19116 15.9326 4.19116 19.2501C4.19116 22.5676 5.37985 25.7754 7.54172 28.2918C11.4167 32.4584 20.8334 42.1043 25.0626 42.1043C28.3542 42.1043 34.8126 36.2501 39.2917 31.6876C40.4167 30.5626 41.3751 29.6043 42.2084 28.6668L42.5209 28.3334C44.6852 25.8067 45.8696 22.5863 45.8582 19.2593C45.8467 15.9323 44.6401 12.7202 42.4584 10.2084ZM29.1667 28.1251H27.0834V30.2084C27.0834 30.761 26.8639 31.2909 26.4732 31.6816C26.0825 32.0723 25.5526 32.2918 25.0001 32.2918C24.4475 32.2918 23.9176 32.0723 23.5269 31.6816C23.1362 31.2909 22.9167 30.761 22.9167 30.2084V28.1251H20.8334C20.2809 28.1251 19.7509 27.9056 19.3602 27.5149C18.9695 27.1242 18.7501 26.5943 18.7501 26.0418C18.7501 25.4892 18.9695 24.9593 19.3602 24.5686C19.7509 24.1779 20.2809 23.9584 20.8334 23.9584H22.9167V21.8751C22.9167 21.3226 23.1362 20.7927 23.5269 20.402C23.9176 20.0113 24.4475 19.7918 25.0001 19.7918C25.5526 19.7918 26.0825 20.0113 26.4732 20.402C26.8639 20.7927 27.0834 21.3226 27.0834 21.8751V23.9584H29.1667C29.7193 23.9584 30.2492 24.1779 30.6399 24.5686C31.0306 24.9593 31.2501 25.4892 31.2501 26.0418C31.2501 26.5943 31.0306 27.1242 30.6399 27.5149C30.2492 27.9056 29.7193 28.1251 29.1667 28.1251Z" fill="#111113"/>
</svg>
