<svg xmlns="http://www.w3.org/2000/svg" width="50" height="50" viewBox="0 0 50 50" fill="none">
<path d="M34.1515 5.65967C33.2921 5.65967 32.5955 6.35635 32.5955 7.21572C32.5955 8.0751 33.2921 8.77178 34.1515 8.77178C36.5815 8.77178 38.5584 10.7486 38.5584 13.1786C38.5584 14.038 39.2551 14.7347 40.1145 14.7347C40.9739 14.7347 41.6706 14.038 41.6706 13.1786C41.6704 9.03262 38.2974 5.65967 34.1515 5.65967Z" fill="#000000"/>
<path d="M34.1515 0C33.2921 0 32.5955 0.69668 32.5955 1.55605C32.5955 2.41543 33.2921 3.11211 34.1515 3.11211C39.7021 3.11211 44.2178 7.62783 44.2178 13.1784C44.2178 14.0378 44.9145 14.7345 45.7739 14.7345C46.6333 14.7345 47.3299 14.0378 47.3299 13.1784C47.3298 5.91172 41.418 0 34.1515 0Z" fill="#000000"/>
<path d="M18.572 33.4589C21.0989 33.4589 23.1474 31.4104 23.1474 28.8835C23.1474 26.3566 21.0989 24.3081 18.572 24.3081C16.0451 24.3081 13.9966 26.3566 13.9966 28.8835C13.9966 31.4104 16.0451 33.4589 18.572 33.4589Z" fill="#000000"/>
<path d="M31.2181 18.3216L33.7185 15.8212C34.3262 15.2135 34.3262 14.2283 33.7185 13.6207C33.1109 13.013 32.1256 13.013 31.518 13.6207L29.0176 16.1211L19.3255 6.42899C18.8778 5.98124 18.1432 6.00809 17.7299 6.48788C13.9321 10.8973 12.9362 17.006 14.6121 22.2972C15.8433 21.5542 17.2981 21.1459 18.85 21.201C22.8169 21.3417 26.0586 24.5409 26.2503 28.5057C26.3243 30.0363 25.9455 31.4743 25.2399 32.7016C30.4507 34.2391 36.39 33.1942 40.7117 29.4669C41.1906 29.0539 41.2163 28.3198 40.7692 27.8726L31.2181 18.3216Z" fill="#000000"/>
<path d="M24.2206 34.0908C22.815 35.6144 20.8034 36.5708 18.572 36.5708C16.3583 36.5708 14.3613 35.6289 12.9573 34.1263L9.30151 43.165H27.7996L24.2206 34.0908Z" fill="#000000"/>
<path d="M32.6126 46.2773H4.53159C3.50522 46.2773 2.67017 47.1124 2.67017 48.1388C2.67017 49.1651 3.50522 50.0002 4.53159 50.0002H32.6126C33.6389 50.0002 34.474 49.1651 34.474 48.1388C34.4739 47.1124 33.6389 46.2773 32.6126 46.2773Z" fill="#000000"/>
</svg>