<svg width="50" height="51" viewBox="0 0 50 51" fill="none" xmlns="http://www.w3.org/2000/svg">
<g clip-path="url(#clip0_194_395)">
<path fill-rule="evenodd" clip-rule="evenodd" d="M14.8887 16.0165C14.8763 15.9852 14.8659 15.9531 14.8575 15.9204L12.3121 8.08652C12.1617 7.60165 11.8585 7.17847 11.4476 6.88023C11.0368 6.582 10.5405 6.42473 10.0329 6.43193H0.78125C0.57405 6.43193 0.375336 6.34962 0.228823 6.20311C0.08231 6.0566 0 5.85788 0 5.65068C0 5.44348 0.08231 5.24477 0.228823 5.09826C0.375336 4.95174 0.57405 4.86943 0.78125 4.86943H10.0329C10.8699 4.86326 11.6869 5.12545 12.364 5.61755C13.0411 6.10965 13.5428 6.80577 13.7953 7.60381L16.1808 14.9457H19.7507C19.6824 15.4643 19.6824 15.9896 19.7507 16.5082C19.9498 19.7323 21.3709 22.7592 23.7243 24.9718C26.0778 27.1844 29.1864 28.4163 32.4167 28.4163C35.6469 28.4163 38.7556 27.1844 41.1091 24.9718C43.4625 22.7592 44.8836 19.7323 45.0827 16.5082C45.1177 15.988 45.1177 15.4659 45.0827 14.9457H49.2188C49.3463 14.9457 49.472 14.9769 49.5847 15.0366C49.6975 15.0964 49.7939 15.1828 49.8655 15.2884C49.9371 15.394 49.9818 15.5155 49.9956 15.6424C50.0094 15.7692 49.9919 15.8975 49.9447 16.016L44.1928 33.7182C44.1419 33.8747 44.0427 34.0112 43.9095 34.108C43.7763 34.2048 43.6159 34.257 43.4513 34.257V34.2583H21.3821C21.3376 34.2583 21.2931 34.2546 21.2492 34.2471C21.2054 34.2545 21.161 34.2583 21.1165 34.2583C20.4662 34.2583 19.8425 34.5166 19.3827 34.9765C18.9229 35.4363 18.6646 36.06 18.6646 36.7103C18.6646 37.3605 18.9229 37.9842 19.3827 38.444C19.8425 38.9039 20.4662 39.1622 21.1165 39.1622H43.7653C43.9725 39.1622 44.1712 39.2445 44.3178 39.391C44.4643 39.5375 44.5466 39.7363 44.5466 39.9435C44.5466 40.1507 44.4643 40.3494 44.3178 40.4959C44.1712 40.6424 43.9725 40.7247 43.7653 40.7247H42.6089C43.0169 41.241 43.2713 41.8618 43.3428 42.516C43.4144 43.1701 43.3002 43.8312 43.0133 44.4235C42.7265 45.0158 42.2787 45.5153 41.7211 45.8648C41.1635 46.2143 40.5187 46.3997 39.8606 46.3997C39.2026 46.3997 38.5578 46.2143 38.0002 45.8648C37.4426 45.5153 36.9948 45.0158 36.708 44.4235C36.4211 43.8312 36.3069 43.1701 36.3785 42.516C36.45 41.8618 36.7044 41.241 37.1124 40.7247H27.6953C28.1034 41.241 28.3578 41.8618 28.4294 42.516C28.5009 43.1702 28.3868 43.8314 28.0999 44.4237C27.8131 45.016 27.3652 45.5155 26.8076 45.8651C26.25 46.2146 25.6052 46.4 24.9471 46.4C24.289 46.4 23.6442 46.2146 23.0866 45.8651C22.529 45.5155 22.0811 45.016 21.7943 44.4237C21.5075 43.8314 21.3933 43.1702 21.4649 42.516C21.5364 41.8618 21.7908 41.241 22.1989 40.7247H21.1165C20.1211 40.7227 19.1619 40.3511 18.4251 39.6819C17.6882 39.0127 17.2261 38.0936 17.1286 37.103C17.031 36.1124 17.3049 35.1209 17.8971 34.3208C18.4893 33.5207 19.3575 32.9691 20.3334 32.7729L14.8887 16.0165ZM22.5626 20.9006H26.5022C26.1887 19.4564 26.0106 17.9861 25.9703 16.5088H21.3165C21.4219 18.0434 21.8463 19.5392 22.5626 20.9006ZM28.1036 20.9006H36.7298C37.0679 19.4597 37.2589 17.9882 37.2999 16.5088H27.5335C27.5745 17.9882 27.7655 19.4597 28.1036 20.9006ZM28.5581 22.4631C28.7161 22.9227 28.8995 23.3732 29.1075 23.8125C30.0036 25.6923 31.1778 26.855 32.4167 26.855C33.6556 26.855 34.8299 25.6923 35.7259 23.8125C35.9339 23.3732 36.1174 22.9227 36.2754 22.4631H28.5581ZM23.5588 22.4631C24.8795 24.1982 26.6796 25.5084 28.7366 26.2319C28.334 25.6846 27.986 25.0991 27.6976 24.4839C27.3891 23.8297 27.1277 23.1544 26.9154 22.4631H23.5588ZM37.9181 22.4631C37.7057 23.1544 37.4443 23.8297 37.1358 24.4839C36.8474 25.0991 36.4994 25.6846 36.0968 26.2319C38.1539 25.5085 39.954 24.1983 41.2746 22.4631H37.9181ZM38.3312 20.9006H42.2709C42.9871 19.5392 43.4115 18.0434 43.5169 16.5088H38.8631C38.8228 17.9861 38.6448 19.4564 38.3312 20.9006ZM27.5335 14.9462H37.2999C37.2589 13.4667 37.0679 11.9953 36.7298 10.5544H28.1037C27.7655 11.9953 27.5745 13.4667 27.5335 14.9462ZM38.8631 14.9462H43.5169C43.4115 13.4115 42.9871 11.9157 42.2708 10.5544H38.3312C38.6448 11.9986 38.8228 13.4689 38.8631 14.9462ZM25.9703 14.9462C26.0106 13.4689 26.1887 11.9986 26.5022 10.5544H22.5626C21.8464 11.9158 21.422 13.4115 21.3165 14.9462H25.9703ZM36.2753 8.99189C36.1172 8.53228 35.9338 8.08178 35.7259 7.64248C34.8299 5.7627 33.6556 4.6001 32.4167 4.6001C31.1778 4.6001 30.0036 5.7627 29.1075 7.64248C28.8996 8.08178 28.7162 8.53228 28.5581 8.99189H36.2753ZM41.2746 8.99189C39.9539 7.25678 38.1538 5.94658 36.0968 5.22314C36.4994 5.77049 36.8473 6.35597 37.1357 6.97119C37.4443 7.62532 37.7057 8.30064 37.9181 8.99199L41.2746 8.99189ZM26.9154 8.99189C27.1278 8.30054 27.3892 7.62523 27.6977 6.97109C27.9861 6.35588 28.334 5.7704 28.7366 5.22305C26.6796 5.94648 24.8795 7.25668 23.5588 8.9918L26.9154 8.99189Z" fill="#111113"/>
</g>
<defs>
<clipPath id="clip0_194_395">
<rect width="50" height="50" fill="white" transform="translate(0 0.5)"/>
</clipPath>
</defs>
</svg>
