<svg width="50" height="50" viewBox="0 0 50 50" fill="none" xmlns="http://www.w3.org/2000/svg">
<path d="M25 3.125C20.6735 3.125 16.4442 4.40795 12.8469 6.8116C9.24959 9.21526 6.44581 12.6317 4.79014 16.6288C3.13448 20.6259 2.70128 25.0243 3.54533 29.2676C4.38938 33.5109 6.47277 37.4087 9.53205 40.468C12.5913 43.5272 16.4891 45.6106 20.7324 46.4547C24.9757 47.2987 29.3741 46.8655 33.3712 45.2099C37.3683 43.5542 40.7848 40.7504 43.1884 37.1531C45.5921 33.5558 46.875 29.3265 46.875 25C46.8685 19.2004 44.5617 13.6402 40.4608 9.53921C36.3598 5.43826 30.7996 3.13149 25 3.125ZM25 9.375C28.3245 9.36955 31.5635 10.4284 34.2429 12.3964C36.9223 14.3645 38.9015 17.1385 39.8906 20.3125H34.7656L33.5938 18.75C33.2289 18.2659 32.7569 17.873 32.2147 17.6019C31.6725 17.3308 31.0749 17.189 30.4688 17.1875H19.5313C18.9251 17.1889 18.3275 17.3307 17.7853 17.6018C17.2431 17.8729 16.7711 18.2659 16.4063 18.75L15.2344 20.3125H10.1094C11.0987 17.1386 13.0779 14.3647 15.7572 12.3966C18.4366 10.4286 21.6755 9.3697 25 9.375ZM21.0938 40.128C18.2627 39.3953 15.6943 37.8821 13.6814 35.7607C11.6685 33.6394 10.292 30.9952 9.70876 28.1296C12.7566 28.22 15.6495 29.4933 17.7747 31.6799C19.8998 33.8665 21.0903 36.7946 21.0938 39.8438V40.128ZM25 31.25C24.0729 31.25 23.1666 30.9751 22.3958 30.46C21.6249 29.9449 21.0241 29.2129 20.6693 28.3563C20.3145 27.4998 20.2217 26.5573 20.4026 25.648C20.5834 24.7387 21.0299 23.9035 21.6854 23.2479C22.341 22.5924 23.1762 22.1459 24.0855 21.9651C24.9948 21.7842 25.9373 21.877 26.7938 22.2318C27.6504 22.5866 28.3825 23.1874 28.8975 23.9583C29.4126 24.7291 29.6875 25.6354 29.6875 26.5625C29.6861 27.8053 29.1918 28.9968 28.3131 29.8756C27.4343 30.7543 26.2428 31.2486 25 31.25ZM28.9063 40.128V39.8438C28.9099 36.7946 30.1004 33.8666 32.2256 31.68C34.3508 29.4934 37.2437 28.2201 40.2916 28.1296C39.7085 30.9953 38.332 33.6396 36.319 35.761C34.306 37.8823 31.7375 39.3955 28.9063 40.128Z" fill="#111113"/>
<path d="M25 29.6875C26.7259 29.6875 28.125 28.2884 28.125 26.5625C28.125 24.8366 26.7259 23.4375 25 23.4375C23.2741 23.4375 21.875 24.8366 21.875 26.5625C21.875 28.2884 23.2741 29.6875 25 29.6875Z" fill="#111113"/>
</svg>
