<?xml version="1.0" encoding="UTF-8"?>
<svg version="1.1" xmlns="http://www.w3.org/2000/svg" width="512" height="512">
<path d="M0 0 C1.24201172 -0.020625 2.48402344 -0.04125 3.76367188 -0.0625 C19.83106137 -0.12990384 19.83106137 -0.12990384 26.6875 3.25 C39.4650633 25.88552871 27.09301529 70.43610715 20.796875 93.1171875 C14.63162424 114.40936398 7.04723767 135.15123147 -2.3125 155.25 C-2.77237305 156.25047363 -3.23224609 157.25094727 -3.70605469 158.28173828 C-20.27576019 194.22016182 -41.06426153 229.55997803 -68.046875 258.7734375 C-69.93369664 260.83592874 -71.76690818 262.92788158 -73.59375 265.04296875 C-77.26507349 269.24801751 -81.1136463 273.24345494 -85.0625 277.1875 C-85.7627832 277.88697754 -86.46306641 278.58645508 -87.18457031 279.30712891 C-92.6298567 284.6886912 -98.2907474 289.52115311 -104.3125 294.25 C-107.35705304 296.77470346 -110.37005679 299.33732701 -113.390625 301.890625 C-116.3125 304.25 -116.3125 304.25 -118.2043457 305.09350586 C-120.55718203 306.25425436 -121.76651287 307.10587912 -123.3125 309.25 C-124.13634381 313.84411646 -124.1224025 318.368386 -124.03793335 323.01620483 C-123.97421157 326.87360226 -124.03485026 330.72875759 -124.09375 334.5859375 C-124.10363449 335.34285385 -124.11351898 336.0997702 -124.123703 336.87962341 C-124.55419816 360.69455019 -133.95180902 382.234743 -149.3125 400.25 C-149.90417969 400.98734375 -150.49585938 401.7246875 -151.10546875 402.484375 C-171.05295204 426.47239328 -202.87878858 438.80702458 -232.3125 446.125 C-233.16054199 446.3405957 -234.00858398 446.55619141 -234.88232422 446.77832031 C-240.59894706 448.12880947 -246.44394123 449.09287133 -252.3125 448.25 C-255.13674288 446.05977082 -256.72758603 444.41982793 -258.3125 441.25 C-258.10434467 430.0701766 -256.72897817 418.89394923 -255.5 407.7890625 C-255.32425069 406.1800667 -255.14871793 404.57104724 -254.97338867 402.96200562 C-254.60935093 399.62902227 -254.24267052 396.29634376 -253.87402344 392.96386719 C-253.40142341 388.68958364 -252.93577198 384.41457492 -252.47203064 380.13932228 C-252.11278642 376.83457999 -251.74990134 373.53024545 -251.38589478 370.22602463 C-251.21251426 368.6480495 -251.04028593 367.06994734 -250.86923218 365.49171829 C-250.63138305 363.3021549 -250.38862954 361.11319069 -250.14453125 358.92431641 C-250.00764893 357.68017975 -249.8707666 356.43604309 -249.72973633 355.15420532 C-249.3125 352.25 -249.3125 352.25 -248.3125 350.25 C-249.35148438 350.27320313 -250.39046875 350.29640625 -251.4609375 350.3203125 C-266.31059105 350.55924785 -275.14995465 349.18504773 -286.18652344 338.65063477 C-287.52041412 337.33639065 -288.84867415 336.01641246 -290.171875 334.69140625 C-290.88353821 333.98402817 -291.59520142 333.27665009 -292.32843018 332.5478363 C-293.819955 331.06201566 -295.30891897 329.57362023 -296.79541016 328.08276367 C-299.06156358 325.81343773 -301.34076359 323.55780383 -303.62109375 321.30273438 C-305.07633103 319.84976934 -306.53078535 318.39601962 -307.984375 316.94140625 C-308.66046814 316.27452286 -309.33656128 315.60763947 -310.03314209 314.92054749 C-317.97763588 306.89807132 -320.4492718 299.88334864 -320.40039062 288.59179688 C-320.39201172 287.83962891 -320.38363281 287.08746094 -320.375 286.3125 C-320.37048828 285.53326172 -320.36597656 284.75402344 -320.36132812 283.95117188 C-320.34966908 282.05074732 -320.33173877 280.15036294 -320.3125 278.25 C-321.05593155 278.37180634 -321.7993631 278.49361267 -322.56532288 278.61911011 C-331.72462298 280.07842474 -340.90541813 281.17709894 -350.12109375 282.1953125 C-351.70241362 282.37167303 -353.28371723 282.54817936 -354.86500549 282.724823 C-358.15158608 283.09130796 -361.43838096 283.45578948 -364.7253418 283.81884766 C-368.92748968 284.28319487 -373.12900195 284.7530426 -377.33036709 285.22441292 C-380.58409439 285.58878239 -383.83815982 285.95005596 -387.09233284 286.31042099 C-388.6421219 286.48245522 -390.19180046 286.65548813 -391.74136162 286.82956314 C-393.90332697 287.0720073 -396.06571946 287.31021692 -398.22827148 287.54736328 C-399.45480942 287.68345001 -400.68134735 287.81953674 -401.9450531 287.95974731 C-410.40033778 288.68853953 -410.40033778 288.68853953 -414.5625 286.6875 C-418.03168259 283.61254271 -418.44480459 281.77927916 -419.3125 277.25 C-419.19958136 274.25401358 -418.64022048 271.42450808 -418 268.5 C-417.82049805 267.65018555 -417.64099609 266.80037109 -417.45605469 265.92480469 C-413.41656486 247.98076352 -407.41111628 230.26461652 -398.3125 214.25 C-397.97283203 213.62770508 -397.63316406 213.00541016 -397.28320312 212.36425781 C-383.16563828 186.53463498 -360.6445153 166.46270716 -332.1875 158 C-329.90123453 157.39584432 -327.60979031 156.81077723 -325.3125 156.25 C-324.44625 156.03472656 -323.58 155.81945312 -322.6875 155.59765625 C-316.69042988 154.31390843 -310.67148303 153.94913847 -304.5625 153.625 C-303.69681396 153.57537109 -302.83112793 153.52574219 -301.93920898 153.47460938 C-297.92382984 153.27908572 -294.06985266 153.20167469 -290.07421875 153.68359375 C-286.13017286 154.07437256 -283.16065276 154.22673443 -279.3125 153.25 C-275.3038825 149.67744443 -272.5364613 145.66556494 -269.62304688 141.18701172 C-267.56692172 138.14802197 -265.21027092 135.39715823 -262.8125 132.625 C-262.1313916 131.82630493 -262.1313916 131.82630493 -261.43652344 131.01147461 C-250.86899272 118.66578974 -239.83964817 106.61711439 -227.1015625 96.48046875 C-224.26424421 94.21140889 -221.51069637 91.8614221 -218.75 89.5 C-199.61377394 73.56958501 -178.34539496 60.66103521 -156.65039062 48.55615234 C-154.65156151 47.43942973 -152.66107917 46.30949246 -150.671875 45.17578125 C-130.25118785 33.84942338 -108.28316676 25.03255851 -86.3125 17.25 C-85.54534668 16.9710791 -84.77819336 16.6921582 -83.98779297 16.40478516 C-64.4764023 9.31808019 -43.8718356 4.13942014 -23.3125 1.25 C-22.66949951 1.1571875 -22.02649902 1.064375 -21.36401367 0.96875 C-14.25990383 0.04986756 -7.15438027 0.02942676 0 0 Z M-153.2109375 115.58203125 C-163.24646545 125.15044004 -169.19405186 135.85168042 -169.71508789 149.76171875 C-169.93817577 164.86305193 -165.29649918 175.90212234 -155 187 C-144.91516102 196.54457975 -133.61804429 199.77153828 -120.06640625 199.66967773 C-106.31225052 199.22335653 -95.29402862 193.10666232 -85.90625 183.1875 C-76.48314966 171.73196625 -74.23914861 159.83311623 -75.10107422 145.38427734 C-76.2013645 134.27719002 -82.14469087 124.62094971 -90.3125 117.25 C-90.80105469 116.76917969 -91.28960937 116.28835937 -91.79296875 115.79296875 C-108.90128528 99.74122284 -135.59960048 101.41226278 -153.2109375 115.58203125 Z " fill="#000000" transform="translate(450.3125,31.75)"/>
<path d="M0 0 C1 1 1 1 1.26953125 3.6484375 C0.94380227 7.69880654 -0.34545032 10.08186704 -2.3125 13.625 C-7.77039706 23.9532313 -11.13736298 35.18488716 -8.30859375 46.8515625 C-4.96253718 57.01573435 0.43686297 64.04876292 10 69 C22.04398536 74.01832723 33.93272384 72.14401505 46 68 C48.81088537 66.55218216 51.36260276 64.97010957 53.9765625 63.19921875 C56.73135245 61.56655367 58.87752012 61.43955489 62 62 C63.57549033 63.57549033 63.24617765 65.12386255 63.3125 67.3125 C63.12861045 80.23993542 56.0622813 93.9377187 47 103 C18.78190854 126.51507621 -29.88597923 128.77173672 -65 128 C-66.07539127 98.24750808 -62.32925789 66.03191685 -52 38 C-51.61070313 36.91847656 -51.22140625 35.83695312 -50.8203125 34.72265625 C-45.22519894 20.22290118 -36.35302836 10.72633865 -22.1875 4.0625 C-14.70194437 0.96134124 -8.13217278 -0.66989163 0 0 Z " fill="#000000" transform="translate(113,336)"/>
</svg>
