<svg width="40" height="40" viewBox="0 0 40 40" fill="none" xmlns="http://www.w3.org/2000/svg">
<path d="M17.1072 37.4999H21.9824C22.5969 37.4988 23.1929 37.2901 23.674 36.9078C24.155 36.5255 24.4928 35.9919 24.6326 35.3936H14.457C14.5968 35.9919 14.9346 36.5255 15.4156 36.9078C15.8967 37.2901 16.4927 37.4988 17.1072 37.4999Z" fill="#2164F8"/>
<path d="M14.375 32.0371H24.7131V34.1434H14.375V32.0371Z" fill="#2164F8"/>
<path d="M18.9192 27.868V5.41686C18.922 4.33048 19.348 3.28795 20.1068 2.51045C18.2663 2.43078 16.4286 2.72107 14.7023 3.36415C12.976 4.00722 11.3962 4.99002 10.0564 6.25438C3.39476 12.2875 4.58688 23.682 12.3626 28.1993C13.3073 28.7805 13.9853 29.71 14.2502 30.787H20.1193C19.3497 30.0105 18.9183 28.9613 18.9192 27.868Z" fill="#2164F8"/>
<path d="M29.7449 19.5862C30.5064 19.5884 31.2388 19.8787 31.795 20.3988C32.5633 20.0714 33.213 19.5167 33.6569 18.8093C34.1008 18.1019 34.3176 17.2755 34.2781 16.4413C34.2386 15.6071 33.9448 14.8049 33.4362 14.1425C32.9275 13.4801 32.2283 12.9893 31.4325 12.7359C31.3359 12.7048 31.2483 12.6505 31.1776 12.5777C31.1068 12.5049 31.055 12.4159 31.0266 12.3184C30.9983 12.221 30.9942 12.118 31.0148 12.0186C31.0355 11.9193 31.0802 11.8264 31.145 11.7483C31.5577 11.2319 31.8163 10.6096 31.8912 9.95278C31.966 9.29598 31.8541 8.6314 31.5681 8.03539C31.2822 7.43937 30.8339 6.93612 30.2748 6.58347C29.7157 6.23081 29.0684 6.04305 28.4073 6.04177C27.8789 6.04026 27.3572 6.16 26.8823 6.39177C26.7806 6.44017 26.6679 6.46037 26.5557 6.45027C26.4436 6.44016 26.3363 6.40012 26.2449 6.33433C26.1536 6.26853 26.0816 6.17941 26.0365 6.07627C25.9913 5.97313 25.9748 5.85976 25.9885 5.74802C26.0042 5.63836 26.0105 5.52755 26.0072 5.41682C25.883 1.55583 20.2949 1.56476 20.1694 5.41674V9.40438C20.1746 9.86184 20.3599 10.2988 20.6852 10.6205C21.0105 10.9422 21.4495 11.1226 21.907 11.1226C22.3645 11.1227 22.8035 10.9423 23.1288 10.6206C23.4541 10.2989 23.6395 9.86195 23.6446 9.40449C23.647 9.24034 23.7139 9.08372 23.8309 8.96849C23.9478 8.85325 24.1054 8.78865 24.2696 8.78864C24.4337 8.78862 24.5913 8.8532 24.7083 8.96841C24.8252 9.08362 24.8922 9.24022 24.8946 9.40438C24.8891 9.95105 24.7342 10.4858 24.4467 10.9508C24.1592 11.4157 23.7499 11.7932 23.2633 12.0423C22.7767 12.2915 22.2312 12.4027 21.6858 12.3641C21.1405 12.3255 20.6161 12.1385 20.1694 11.8233V27.8679C20.2946 31.7192 25.8828 31.7295 26.0072 27.8678C26.0105 27.7571 26.0042 27.6463 25.9885 27.5367C25.9748 27.4249 25.9913 27.3116 26.0364 27.2084C26.0815 27.1053 26.1535 27.0161 26.2449 26.9503C26.3362 26.8845 26.4435 26.8445 26.5557 26.8344C26.6678 26.8242 26.7806 26.8444 26.8822 26.8928C27.6006 27.2316 28.4127 27.317 29.1859 27.1353C29.9591 26.9535 30.648 26.5152 31.1402 25.8917C31.6325 25.2683 31.899 24.4966 31.8965 23.7022C31.894 22.9079 31.6225 22.1379 31.1263 21.5176C30.9029 21.2341 30.5971 21.0267 30.2511 20.924C29.905 20.8213 29.5356 20.8283 29.1937 20.9441C28.8518 21.0599 28.5542 21.2788 28.3417 21.5706C28.1293 21.8625 28.0125 22.2129 28.0073 22.5739C28.0048 22.738 27.9379 22.8946 27.821 23.0098C27.704 23.125 27.5465 23.1895 27.3823 23.1895C27.2182 23.1895 27.0606 23.125 26.9437 23.0098C26.8267 22.8946 26.7598 22.738 26.7573 22.5739C26.7583 21.7819 27.0734 21.0225 27.6335 20.4625C28.1935 19.9024 28.9529 19.5873 29.7449 19.5862Z" fill="#2164F8"/>
</svg>
