<svg width="40" height="40" viewBox="0 0 40 40" fill="none" xmlns="http://www.w3.org/2000/svg">
<path d="M15.8647 35.1655H24.1344V39.9999H15.8647V35.1655Z" fill="#2164F8"/>
<path d="M34.4851 33.0194V27.9002H24.135V25.5001H30.2424V20.5782H27.8987V23.1563H24.135V18.9485C27.8262 17.323 30.2519 13.6525 30.2519 9.56531C30.2519 5.4 27.7634 1.68023 23.9122 0.0888281L23.6973 0H22.2002V9.35476L20.0002 10.7103L17.8002 9.35469V0H16.3031L16.0882 0.0888281C12.237 1.68023 9.74857 5.4 9.74857 9.56531C9.74857 13.6525 12.1742 17.323 15.8654 18.9485V23.1563H12.1018V20.5782H9.75803V25.5001H15.8654V27.9002H5.51529V33.0194C4.11068 33.5062 3.09912 34.8418 3.09912 36.4099C3.09912 38.3884 4.70873 39.998 6.68717 39.998C8.66561 39.998 10.2752 38.3884 10.2752 36.4099C10.2752 34.8417 9.26357 33.5062 7.85904 33.0194V30.244H15.8654V32.8219H24.1351V30.244H32.1415V33.0194C30.7369 33.5062 29.7253 34.8418 29.7253 36.4099C29.7253 38.3884 31.3349 39.998 33.3133 39.998C35.2918 39.998 36.9014 38.3884 36.9014 36.4099C36.9013 34.8418 35.8897 33.5062 34.4851 33.0194Z" fill="#2164F8"/>
</svg>
