<svg width="40" height="40" viewBox="0 0 40 40" fill="none" xmlns="http://www.w3.org/2000/svg">
<path d="M33.1119 8.32495L21.0119 2.74995L20.8244 2.67495C20.283 2.53739 19.7158 2.53739 19.1744 2.67495L18.9869 2.74995L6.88691 8.32495C6.31538 8.58809 5.8366 9.01763 5.51321 9.55736C5.18982 10.0971 5.03688 10.7219 5.07441 11.35L5.49941 18.45C5.74059 22.5336 7.13778 26.4645 9.52803 29.7843C11.9183 33.1041 15.2031 35.676 18.9994 37.1999C19.3176 37.3432 19.663 37.4157 20.0119 37.4124C20.3436 37.4175 20.6722 37.3492 20.9744 37.2124C24.7754 35.6922 28.0654 33.122 30.4603 29.8019C32.8552 26.4819 34.2561 22.5489 34.4994 18.4625L34.9244 11.3625C34.9645 10.7323 34.8128 10.1048 34.4893 9.56258C34.1657 9.02036 33.6855 8.58887 33.1119 8.32495ZM26.5619 17.075L19.8869 24.5749C19.7783 24.6992 19.6462 24.8008 19.4982 24.8737C19.3501 24.9466 19.1891 24.9896 19.0244 24.9999H18.9619C18.6478 25.0023 18.3443 24.8862 18.1119 24.6749L13.5244 20.45C13.2807 20.2245 13.1366 19.9115 13.1237 19.5798C13.1108 19.2481 13.2302 18.9249 13.4557 18.6812C13.6811 18.4375 13.9941 18.2934 14.3258 18.2805C14.6575 18.2676 14.9807 18.387 15.2244 18.6124L18.8744 21.9749L24.6869 15.425C24.91 15.1927 25.2142 15.0555 25.536 15.042C25.8578 15.0284 26.1724 15.1397 26.4142 15.3525C26.656 15.5652 26.8063 15.8631 26.8338 16.1841C26.8614 16.505 26.764 16.8241 26.5619 17.075Z" fill="#2164F8"/>
</svg>
