<svg width="2334" height="1512" viewBox="0 0 2334 1512" fill="none" xmlns="http://www.w3.org/2000/svg">
<path d="M-446.434 -2.27371C-446.434 -2.27371 -1003.75 147.109 -1096.54 439.762C-1234.46 874.792 -26.8236 785.909 -211.724 1203.14C-313.793 1433.47 -745.186 1565.87 -745.186 1565.87" stroke="#051641" stroke-opacity="0.08"/>
<path d="M-416.52 -2.54715C-416.52 -2.54715 -973.838 146.835 -1066.62 439.489C-1204.55 874.518 3.09047 785.635 -181.81 1202.87C-283.879 1433.19 -715.272 1565.6 -715.272 1565.6" stroke="#051641" stroke-opacity="0.08"/>
<path d="M-386.604 -2.8201C-386.604 -2.8201 -943.922 146.562 -1036.71 439.216C-1174.63 874.245 33.0065 785.362 -151.894 1202.6C-253.963 1432.92 -685.356 1565.32 -685.356 1565.32" stroke="#051641" stroke-opacity="0.08"/>
<path d="M-356.69 -3.09366C-356.69 -3.09366 -914.008 146.289 -1006.79 438.942C-1144.72 873.972 62.9205 785.089 -121.98 1202.32C-224.049 1432.65 -655.442 1565.05 -655.442 1565.05" stroke="#051641" stroke-opacity="0.08"/>
<path d="M-326.777 -3.36697C-326.777 -3.36697 -884.095 146.015 -976.879 438.669C-1114.8 873.698 92.8336 784.815 -92.0668 1202.05C-194.136 1432.37 -625.528 1564.78 -625.528 1564.78" stroke="#051641" stroke-opacity="0.08"/>
<path d="M-296.861 -3.64041C-296.861 -3.64041 -854.179 145.742 -946.963 438.396C-1084.89 873.425 122.75 784.542 -62.1508 1201.78C-164.22 1432.1 -595.612 1564.5 -595.612 1564.5" stroke="#051641" stroke-opacity="0.08"/>
<path d="M-266.948 -3.91373C-266.948 -3.91373 -824.266 145.469 -917.05 438.122C-1054.97 873.152 152.663 784.269 -32.2377 1201.5C-134.307 1431.83 -565.699 1564.23 -565.699 1564.23" stroke="#051641" stroke-opacity="0.08"/>
<path d="M-237.035 -4.18729C-237.035 -4.18729 -794.353 145.195 -887.137 437.849C-1025.06 872.878 182.576 783.995 -2.32464 1201.23C-104.394 1431.55 -535.786 1563.96 -535.786 1563.96" stroke="#051641" stroke-opacity="0.08"/>
<path d="M-207.119 -4.46048C-207.119 -4.46048 -764.437 144.922 -857.221 437.576C-995.145 872.605 212.492 783.722 27.5914 1200.96C-74.4779 1431.28 -505.87 1563.68 -505.87 1563.68" stroke="#051641" stroke-opacity="0.08"/>
<path d="M-177.205 -4.73392C-177.205 -4.73392 -734.523 144.648 -827.308 437.302C-965.232 872.331 242.405 783.448 57.5045 1200.68C-44.5648 1431.01 -475.957 1563.41 -475.957 1563.41" stroke="#051641" stroke-opacity="0.08"/>
<path d="M-147.29 -5.00748C-147.29 -5.00748 -704.608 144.375 -797.393 437.029C-935.317 872.058 272.32 783.175 87.4195 1200.41C-14.6497 1430.73 -446.042 1563.14 -446.042 1563.14" stroke="#051641" stroke-opacity="0.08"/>
<path d="M-117.376 -5.28055C-117.376 -5.28055 -674.694 144.102 -767.479 436.756C-905.403 871.785 302.234 782.902 117.334 1200.14C15.2643 1430.46 -416.128 1562.86 -416.128 1562.86" stroke="#051641" stroke-opacity="0.08"/>
<path d="M-87.4632 -5.55423C-87.4632 -5.55423 -644.781 143.828 -737.566 436.482C-875.49 871.511 332.147 782.628 147.247 1199.86C45.1774 1430.19 -386.215 1562.59 -386.215 1562.59" stroke="#051641" stroke-opacity="0.08"/>
<path d="M-57.5472 -5.82742C-57.5472 -5.82742 -614.865 143.555 -707.65 436.209C-845.574 871.238 362.063 782.355 177.163 1199.59C75.0934 1429.91 -356.299 1562.32 -356.299 1562.32" stroke="#051641" stroke-opacity="0.08"/>
<path d="M-27.6332 -6.10098C-27.6332 -6.10098 -584.951 143.281 -677.736 435.935C-815.66 870.964 391.977 782.081 207.077 1199.32C105.007 1429.64 -326.385 1562.04 -326.385 1562.04" stroke="#051641" stroke-opacity="0.08"/>
<path d="M2.27993 -6.3743C2.27993 -6.3743 -555.038 143.008 -647.823 435.662C-785.747 870.691 421.89 781.808 236.99 1199.04C134.921 1429.37 -296.472 1561.77 -296.472 1561.77" stroke="#051641" stroke-opacity="0.08"/>
<path d="M32.195 -6.64786C32.195 -6.64786 -525.123 142.735 -617.908 435.388C-755.832 870.417 451.805 781.535 266.905 1198.77C164.836 1429.09 -266.557 1561.5 -266.557 1561.5" stroke="#051641" stroke-opacity="0.08"/>
<path d="M62.11 -6.92117C62.11 -6.92117 -495.208 142.461 -587.993 435.115C-725.917 870.144 481.72 781.261 296.82 1198.5C194.751 1428.82 -236.642 1561.22 -236.642 1561.22" stroke="#051641" stroke-opacity="0.08"/>
<path d="M92.0241 -7.19473C92.0241 -7.19473 -465.294 142.188 -558.079 434.841C-696.003 869.871 511.634 780.988 326.734 1198.22C224.665 1428.55 -206.728 1560.95 -206.728 1560.95" stroke="#051641" stroke-opacity="0.08"/>
<path d="M121.938 -7.46793C121.938 -7.46793 -435.38 141.914 -528.165 434.568C-666.089 869.597 541.548 780.714 356.648 1197.95C254.579 1428.27 -176.814 1560.68 -176.814 1560.68" stroke="#051641" stroke-opacity="0.08"/>
<path d="M151.852 -7.741C151.852 -7.741 -405.466 141.641 -498.25 434.295C-636.175 869.324 571.463 780.441 386.562 1197.68C284.493 1428 -146.9 1560.4 -146.9 1560.4" stroke="#051641" stroke-opacity="0.08"/>
<path d="M181.767 -8.01443C181.767 -8.01443 -375.551 141.368 -468.335 434.022C-606.26 869.051 601.378 780.168 416.477 1197.4C314.408 1427.73 -116.984 1560.13 -116.984 1560.13" stroke="#051641" stroke-opacity="0.08"/>
<path d="M211.68 -8.28775C211.68 -8.28775 -345.638 141.095 -438.422 433.748C-576.347 868.777 631.291 779.895 446.39 1197.13C344.321 1427.45 -87.0714 1559.86 -87.0714 1559.86" stroke="#051641" stroke-opacity="0.08"/>
<path d="M241.595 -8.56119C241.595 -8.56119 -315.723 140.821 -408.507 433.475C-546.431 868.504 661.206 779.621 476.305 1196.86C374.236 1427.18 -57.1564 1559.58 -57.1564 1559.58" stroke="#051641" stroke-opacity="0.08"/>
<path d="M271.51 -8.83462C271.51 -8.83462 -285.808 140.548 -378.593 433.202C-516.517 868.231 691.12 779.348 506.22 1196.58C404.151 1426.91 -27.2418 1559.31 -27.2418 1559.31" stroke="#051641" stroke-opacity="0.08"/>
<path d="M301.423 -9.10806C301.423 -9.10806 -255.895 140.274 -348.68 432.928C-486.604 867.957 721.033 779.074 536.133 1196.31C434.064 1426.63 2.67128 1559.04 2.67128 1559.04" stroke="#051641" stroke-opacity="0.08"/>
<path d="M331.339 -9.3815C331.339 -9.3815 -225.979 140.001 -318.763 432.655C-456.687 867.684 750.95 778.801 566.049 1196.04C463.98 1426.36 32.5878 1558.76 32.5878 1558.76" stroke="#051641" stroke-opacity="0.08"/>
<path d="M361.253 -9.65494C361.253 -9.65494 -196.065 139.727 -288.85 432.381C-426.774 867.41 780.863 778.527 595.963 1195.76C493.894 1426.09 62.5014 1558.49 62.5014 1558.49" stroke="#051641" stroke-opacity="0.08"/>
<path d="M391.166 -9.92825C391.166 -9.92825 -166.152 139.454 -258.937 432.108C-396.861 867.137 810.777 778.254 625.876 1195.49C523.807 1425.81 92.4144 1558.22 92.4144 1558.22" stroke="#051641" stroke-opacity="0.08"/>
<path d="M421.082 -10.2018C421.082 -10.2018 -136.236 139.181 -229.02 431.834C-366.945 866.863 840.693 777.981 655.792 1195.22C553.723 1425.54 122.33 1557.94 122.33 1557.94" stroke="#051641" stroke-opacity="0.08"/>
<path d="M450.995 -10.4751C450.995 -10.4751 -106.323 138.907 -199.107 431.561C-337.032 866.59 870.606 777.707 685.705 1194.94C583.636 1425.27 152.244 1557.67 152.244 1557.67" stroke="#051641" stroke-opacity="0.08"/>
<path d="M480.91 -10.7484C480.91 -10.7484 -76.4077 138.634 -169.192 431.288C-307.117 866.317 900.521 777.434 715.62 1194.67C613.551 1424.99 182.159 1557.4 182.159 1557.4" stroke="#051641" stroke-opacity="0.08"/>
<path d="M510.825 -11.0218C510.825 -11.0218 -46.4932 138.361 -139.278 431.014C-277.202 866.043 930.435 777.161 745.535 1194.4C643.465 1424.72 212.073 1557.12 212.073 1557.12" stroke="#051641" stroke-opacity="0.08"/>
<path d="M540.738 -11.2951C540.738 -11.2951 -16.5796 138.087 -109.364 430.741C-247.288 865.77 960.349 776.887 775.448 1194.12C673.379 1424.45 241.987 1556.85 241.987 1556.85" stroke="#051641" stroke-opacity="0.08"/>
<path d="M570.652 -11.5685C570.652 -11.5685 13.3345 137.814 -79.4502 430.468C-217.374 865.497 990.263 776.614 805.362 1193.85C703.293 1424.17 271.901 1556.58 271.901 1556.58" stroke="#051641" stroke-opacity="0.08"/>
<path d="M600.569 -11.8419C600.569 -11.8419 43.2505 137.54 -49.5342 430.194C-187.458 865.223 1020.18 776.34 835.278 1193.58C733.209 1423.9 301.817 1556.3 301.817 1556.3" stroke="#051641" stroke-opacity="0.08"/>
<path d="M630.482 -12.1155C630.482 -12.1155 73.1636 137.267 -19.6211 429.921C-157.545 864.95 1050.09 776.067 865.191 1193.3C763.122 1423.63 331.73 1556.03 331.73 1556.03" stroke="#051641" stroke-opacity="0.08"/>
<path d="M660.396 -12.3889C660.396 -12.3889 103.078 136.993 10.293 429.647C-127.631 864.676 1080.01 775.793 895.106 1193.03C793.036 1423.35 361.644 1555.75 361.644 1555.75" stroke="#051641" stroke-opacity="0.08"/>
<path d="M690.31 -12.6619C690.31 -12.6619 132.992 136.721 40.2075 429.374C-97.7166 864.403 1109.92 775.52 925.02 1192.76C822.951 1423.08 391.558 1555.48 391.558 1555.48" stroke="#051641" stroke-opacity="0.08"/>
<path d="M720.225 -12.9357C720.225 -12.9357 162.907 136.447 70.1226 429.1C-67.8016 864.13 1139.84 775.247 954.935 1192.48C852.866 1422.81 421.474 1555.21 421.474 1555.21" stroke="#051641" stroke-opacity="0.08"/>
<path d="M750.139 -13.2091C750.139 -13.2091 192.821 136.173 100.036 428.827C-37.888 863.856 1169.75 774.973 984.849 1192.21C882.779 1422.53 451.387 1554.93 451.387 1554.93" stroke="#051641" stroke-opacity="0.08"/>
<path d="M780.053 -13.4822C780.053 -13.4822 222.735 135.9 129.95 428.554C-7.97396 863.583 1199.66 774.7 1014.76 1191.94C912.694 1422.26 481.301 1554.66 481.301 1554.66" stroke="#051641" stroke-opacity="0.08"/>
<path d="M809.967 -13.7556C809.967 -13.7556 252.649 135.627 159.865 428.28C21.9406 863.31 1229.58 774.427 1044.68 1191.66C942.608 1421.99 511.216 1554.39 511.216 1554.39" stroke="#051641" stroke-opacity="0.08"/>
<path d="M839.881 -14.029C839.881 -14.029 282.563 135.353 189.779 428.007C51.8546 863.036 1259.49 774.153 1074.59 1191.39C972.522 1421.71 541.13 1554.11 541.13 1554.11" stroke="#051641" stroke-opacity="0.08"/>
<path d="M869.796 -14.3022C869.796 -14.3022 312.478 135.08 219.693 427.734C81.7692 862.763 1289.41 773.88 1104.51 1191.12C1002.44 1421.44 571.044 1553.84 571.044 1553.84" stroke="#051641" stroke-opacity="0.08"/>
<path d="M899.71 -14.5756C899.71 -14.5756 342.392 134.807 249.607 427.461C111.683 862.49 1319.32 773.607 1134.42 1190.84C1032.35 1421.17 600.958 1553.57 600.958 1553.57" stroke="#051641" stroke-opacity="0.08"/>
<path d="M929.624 -14.849C929.624 -14.849 372.306 134.533 279.521 427.187C141.597 862.216 1349.23 773.333 1164.33 1190.57C1062.26 1420.89 630.872 1553.29 630.872 1553.29" stroke="#051641" stroke-opacity="0.08"/>
<path d="M959.54 -15.1225C959.54 -15.1225 402.222 134.26 309.437 426.914C171.513 861.943 1379.15 773.06 1194.25 1190.3C1092.18 1420.62 660.788 1553.02 660.788 1553.02" stroke="#051641" stroke-opacity="0.08"/>
<path d="M989.453 -15.3959C989.453 -15.3959 432.135 133.987 339.35 426.64C201.426 861.669 1409.06 772.786 1224.16 1190.02C1122.09 1420.35 690.701 1552.75 690.701 1552.75" stroke="#051641" stroke-opacity="0.08"/>
<path d="M1019.37 -15.6692C1019.37 -15.6692 462.048 133.713 369.264 426.367C231.34 861.396 1438.98 772.513 1254.08 1189.75C1152.01 1420.07 720.615 1552.47 720.615 1552.47" stroke="#051641" stroke-opacity="0.08"/>
<path d="M1049.28 -15.9428C1049.28 -15.9428 491.964 133.44 399.18 426.093C261.256 861.122 1468.89 772.24 1283.99 1189.47C1181.92 1419.8 750.531 1552.2 750.531 1552.2" stroke="#051641" stroke-opacity="0.08"/>
<path d="M1079.2 -16.2163C1079.2 -16.2163 521.878 133.166 429.093 425.82C291.169 860.849 1498.81 771.966 1313.91 1189.2C1211.84 1419.52 780.444 1551.93 780.444 1551.93" stroke="#051641" stroke-opacity="0.08"/>
<path d="M1109.11 -16.4897C1109.11 -16.4897 551.791 132.893 459.006 425.546C321.082 860.576 1528.72 771.693 1343.82 1188.93C1241.75 1419.25 810.357 1551.65 810.357 1551.65" stroke="#051641" stroke-opacity="0.08"/>
<path d="M1139.03 -16.7628C1139.03 -16.7628 581.708 132.62 488.923 425.273C350.999 860.302 1558.64 771.42 1373.74 1188.65C1271.67 1418.98 840.274 1551.38 840.274 1551.38" stroke="#051641" stroke-opacity="0.08"/>
<path d="M1168.94 -17.0363C1168.94 -17.0363 611.621 132.346 518.836 425C380.912 860.029 1588.55 771.146 1403.65 1188.38C1301.58 1418.7 870.187 1551.11 870.187 1551.11" stroke="#051641" stroke-opacity="0.08"/>
<path d="M1198.85 -17.3097C1198.85 -17.3097 641.535 132.073 548.75 424.726C410.826 859.756 1618.46 770.873 1433.56 1188.11C1331.49 1418.43 900.101 1550.83 900.101 1550.83" stroke="#051641" stroke-opacity="0.08"/>
<path d="M1228.77 -17.5827C1228.77 -17.5827 671.45 131.8 578.666 424.453C440.741 859.483 1648.38 770.6 1463.48 1187.83C1361.41 1418.16 930.016 1550.56 930.016 1550.56" stroke="#051641" stroke-opacity="0.08"/>
<path d="M1258.68 -17.8565C1258.68 -17.8565 701.364 131.526 608.579 424.18C470.655 859.209 1678.29 770.326 1493.39 1187.56C1391.32 1417.88 959.93 1550.29 959.93 1550.29" stroke="#051641" stroke-opacity="0.08"/>
<path d="M1288.6 -18.1295C1288.6 -18.1295 731.278 131.253 638.494 423.907C500.569 858.936 1708.21 770.053 1523.31 1187.29C1421.24 1417.61 989.845 1550.01 989.845 1550.01" stroke="#051641" stroke-opacity="0.08"/>
<path d="M1318.51 -18.4031C1318.51 -18.4031 761.192 130.979 668.408 423.633C530.484 858.662 1738.12 769.779 1553.22 1187.01C1451.15 1417.34 1019.76 1549.74 1019.76 1549.74" stroke="#051641" stroke-opacity="0.08"/>
<path d="M1348.42 -18.6763C1348.42 -18.6763 791.105 130.706 698.321 423.36C560.397 858.389 1768.03 769.506 1583.13 1186.74C1481.06 1417.06 1049.67 1549.47 1049.67 1549.47" stroke="#051641" stroke-opacity="0.08"/>
<path d="M1378.34 -18.95C1378.34 -18.95 821.021 130.432 728.237 423.086C590.313 858.115 1797.95 769.232 1613.05 1186.47C1510.98 1416.79 1079.59 1549.19 1079.59 1549.19" stroke="#051641" stroke-opacity="0.08"/>
<path d="M1408.25 -19.2231C1408.25 -19.2231 850.936 130.159 758.151 422.813C620.227 857.842 1827.86 768.959 1642.96 1186.19C1540.89 1416.52 1109.5 1548.92 1109.5 1548.92" stroke="#051641" stroke-opacity="0.08"/>
<path d="M1438.17 -19.4966C1438.17 -19.4966 880.85 129.886 788.065 422.54C650.141 857.569 1857.78 768.686 1672.88 1185.92C1570.81 1416.24 1139.42 1548.65 1139.42 1548.65" stroke="#051641" stroke-opacity="0.08"/>
<path d="M1468.08 -19.7699C1468.08 -19.7699 910.765 129.612 817.98 422.266C680.056 857.295 1887.69 768.412 1702.79 1185.65C1600.72 1415.97 1169.33 1548.37 1169.33 1548.37" stroke="#051641" stroke-opacity="0.08"/>
<path d="M1498 -20.0434C1498 -20.0434 940.679 129.339 847.894 421.993C709.97 857.022 1917.61 768.139 1732.71 1185.37C1630.64 1415.7 1199.25 1548.1 1199.25 1548.1" stroke="#051641" stroke-opacity="0.08"/>
<path d="M1527.91 -20.3169C1527.91 -20.3169 970.593 129.065 877.808 421.719C739.884 856.748 1947.52 767.865 1762.62 1185.1C1660.55 1415.42 1229.16 1547.83 1229.16 1547.83" stroke="#051641" stroke-opacity="0.08"/>
<path d="M1557.83 -20.59C1557.83 -20.59 1000.51 128.792 907.723 421.446C769.799 856.475 1977.44 767.592 1792.54 1184.83C1690.47 1415.15 1259.07 1547.55 1259.07 1547.55" stroke="#051641" stroke-opacity="0.08"/>
<path d="M1587.74 -20.8637C1587.74 -20.8637 1030.42 128.519 937.637 421.172C799.713 856.202 2007.35 767.319 1822.45 1184.55C1720.38 1414.88 1288.99 1547.28 1288.99 1547.28" stroke="#051641" stroke-opacity="0.08"/>
<path d="M1617.65 -21.1369C1617.65 -21.1369 1060.34 128.246 967.551 420.899C829.627 855.928 2037.26 767.046 1852.36 1184.28C1750.29 1414.6 1318.9 1547.01 1318.9 1547.01" stroke="#051641" stroke-opacity="0.08"/>
<path d="M1647.57 -21.4103C1647.57 -21.4103 1090.25 127.972 997.466 420.626C859.542 855.655 2067.18 766.772 1882.28 1184.01C1780.21 1414.33 1348.82 1546.73 1348.82 1546.73" stroke="#051641" stroke-opacity="0.08"/>
<path d="M1677.48 -21.6837C1677.48 -21.6837 1120.17 127.699 1027.38 420.352C889.457 855.381 2097.09 766.499 1912.19 1183.73C1810.12 1414.06 1378.73 1546.46 1378.73 1546.46" stroke="#051641" stroke-opacity="0.08"/>
<path d="M1707.4 -21.9572C1707.4 -21.9572 1150.08 127.425 1057.29 420.079C919.369 855.108 2127.01 766.225 1942.11 1183.46C1840.04 1413.78 1408.64 1546.19 1408.64 1546.19" stroke="#051641" stroke-opacity="0.08"/>
<path d="M1737.31 -22.2305C1737.31 -22.2305 1179.99 127.152 1087.21 419.806C949.284 854.835 2156.92 765.952 1972.02 1183.19C1869.95 1413.51 1438.56 1545.91 1438.56 1545.91" stroke="#051641" stroke-opacity="0.08"/>
<path d="M1767.23 -22.5037C1767.23 -22.5037 1209.91 126.879 1117.12 419.532C979.198 854.562 2186.84 765.679 2001.94 1182.91C1899.87 1413.24 1468.47 1545.64 1468.47 1545.64" stroke="#051641" stroke-opacity="0.08"/>
<path d="M1797.14 -22.7775C1797.14 -22.7775 1239.82 126.605 1147.04 419.259C1009.11 854.288 2216.75 765.405 2031.85 1182.64C1929.78 1412.96 1498.39 1545.37 1498.39 1545.37" stroke="#051641" stroke-opacity="0.08"/>
<path d="M1827.05 -23.0508C1827.05 -23.0508 1269.74 126.332 1176.95 418.985C1039.03 854.014 2246.66 765.132 2061.76 1182.37C1959.69 1412.69 1528.3 1545.09 1528.3 1545.09" stroke="#051641" stroke-opacity="0.08"/>
<path d="M1856.97 -23.324C1856.97 -23.324 1299.65 126.058 1206.87 418.712C1068.94 853.741 2276.58 764.858 2091.68 1182.09C1989.61 1412.42 1558.22 1544.82 1558.22 1544.82" stroke="#051641" stroke-opacity="0.08"/>
<path d="M1886.88 -23.5971C1886.88 -23.5971 1329.56 125.785 1236.78 418.439C1098.85 853.468 2306.49 764.585 2121.59 1181.82C2019.52 1412.14 1588.13 1544.55 1588.13 1544.55" stroke="#051641" stroke-opacity="0.08"/>
<path d="M1916.8 -23.8706C1916.8 -23.8706 1359.48 125.512 1266.69 418.165C1128.77 853.195 2336.41 764.312 2151.51 1181.55C2049.44 1411.87 1618.05 1544.27 1618.05 1544.27" stroke="#051641" stroke-opacity="0.08"/>
<path d="M1946.71 -24.1438C1946.71 -24.1438 1389.39 125.239 1296.61 417.892C1158.68 852.921 2366.32 764.039 2181.42 1181.27C2079.35 1411.6 1647.96 1544 1647.96 1544" stroke="#051641" stroke-opacity="0.08"/>
<path d="M1976.62 -24.4175C1976.62 -24.4175 1419.31 124.965 1326.52 417.619C1188.6 852.648 2396.23 763.765 2211.33 1181C2109.26 1411.32 1677.87 1543.73 1677.87 1543.73" stroke="#051641" stroke-opacity="0.08"/>
<path d="M2006.54 -24.6908C2006.54 -24.6908 1449.22 124.692 1356.44 417.345C1218.51 852.374 2426.15 763.492 2241.25 1180.73C2139.18 1411.05 1707.79 1543.45 1707.79 1543.45" stroke="#051641" stroke-opacity="0.08"/>
<path d="M2036.45 -24.9644C2036.45 -24.9644 1479.14 124.418 1386.35 417.072C1248.43 852.101 2456.06 763.218 2271.16 1180.45C2169.09 1410.78 1737.7 1543.18 1737.7 1543.18" stroke="#051641" stroke-opacity="0.08"/>
<path d="M2066.37 -25.2376C2066.37 -25.2376 1509.05 124.145 1416.27 416.799C1278.34 851.828 2485.98 762.945 2301.08 1180.18C2199.01 1410.5 1767.62 1542.91 1767.62 1542.91" stroke="#051641" stroke-opacity="0.08"/>
<path d="M2096.28 -25.5109C2096.28 -25.5109 1538.96 123.872 1446.18 416.525C1308.26 851.554 2515.89 762.671 2330.99 1179.91C2228.92 1410.23 1797.53 1542.63 1797.53 1542.63" stroke="#051641" stroke-opacity="0.08"/>
<path d="M2126.2 -25.7843C2126.2 -25.7843 1568.88 123.598 1476.09 416.252C1338.17 851.281 2545.81 762.398 2360.91 1179.63C2258.84 1409.96 1827.45 1542.36 1827.45 1542.36" stroke="#051641" stroke-opacity="0.08"/>
<path d="M2156.11 -26.0576C2156.11 -26.0576 1598.79 123.325 1506.01 415.978C1368.08 851.008 2575.72 762.125 2390.82 1179.36C2288.75 1409.68 1857.36 1542.09 1857.36 1542.09" stroke="#051641" stroke-opacity="0.08"/>
<path d="M2186.03 -26.3313C2186.03 -26.3313 1628.71 123.051 1535.92 415.705C1398 850.734 2605.64 761.851 2420.74 1179.09C2318.67 1409.41 1887.27 1541.81 1887.27 1541.81" stroke="#051641" stroke-opacity="0.08"/>
<path d="M2215.94 -26.6045C2215.94 -26.6045 1658.62 122.778 1565.84 415.432C1427.91 850.461 2635.55 761.578 2450.65 1178.81C2348.58 1409.14 1917.19 1541.54 1917.19 1541.54" stroke="#051641" stroke-opacity="0.08"/>
<path d="M2245.85 -26.8781C2245.85 -26.8781 1688.54 122.504 1595.75 415.158C1457.83 850.187 2665.46 761.304 2480.56 1178.54C2378.49 1408.86 1947.1 1541.27 1947.1 1541.27" stroke="#051641" stroke-opacity="0.08"/>
<path d="M2275.77 -27.1514C2275.77 -27.1514 1718.45 122.231 1625.67 414.885C1487.74 849.914 2695.38 761.031 2510.48 1178.27C2408.41 1408.59 1977.02 1540.99 1977.02 1540.99" stroke="#051641" stroke-opacity="0.08"/>
<path d="M2305.68 -27.425C2305.68 -27.425 1748.37 121.957 1655.58 414.611C1517.66 849.64 2725.29 760.757 2540.39 1177.99C2438.32 1408.32 2006.93 1540.72 2006.93 1540.72" stroke="#051641" stroke-opacity="0.08"/>
<path d="M2335.6 -27.6981C2335.6 -27.6981 1778.28 121.684 1685.49 414.338C1547.57 849.367 2755.21 760.484 2570.31 1177.72C2468.24 1408.04 2036.84 1540.45 2036.84 1540.45" stroke="#051641" stroke-opacity="0.08"/>
<path d="M2365.51 -27.9718C2365.51 -27.9718 1808.19 121.411 1715.41 414.064C1577.48 849.093 2785.12 760.211 2600.22 1177.45C2498.15 1407.77 2066.76 1540.17 2066.76 1540.17" stroke="#051641" stroke-opacity="0.08"/>
<path d="M2395.43 -28.2447C2395.43 -28.2447 1838.11 121.138 1745.32 413.791C1607.4 848.821 2815.04 759.938 2630.14 1177.17C2528.07 1407.5 2096.67 1539.9 2096.67 1539.9" stroke="#051641" stroke-opacity="0.08"/>
<path d="M2425.34 -28.518C2425.34 -28.518 1868.02 120.864 1775.24 413.518C1637.31 848.547 2844.95 759.664 2660.05 1176.9C2557.98 1407.22 2126.59 1539.63 2126.59 1539.63" stroke="#051641" stroke-opacity="0.08"/>
<path d="M2455.25 -28.7914C2455.25 -28.7914 1897.94 120.591 1805.15 413.245C1667.23 848.274 2874.86 759.391 2689.96 1176.63C2587.89 1406.95 2156.5 1539.35 2156.5 1539.35" stroke="#051641" stroke-opacity="0.08"/>
<path d="M2485.17 -29.0648C2485.17 -29.0648 1927.85 120.318 1835.07 412.971C1697.14 848 2904.78 759.118 2719.88 1176.35C2617.81 1406.68 2186.42 1539.08 2186.42 1539.08" stroke="#051641" stroke-opacity="0.08"/>
<path d="M2515.08 -29.3384C2515.08 -29.3384 1957.76 120.044 1864.98 412.698C1727.05 847.727 2934.69 758.844 2749.79 1176.08C2647.72 1406.4 2216.33 1538.81 2216.33 1538.81" stroke="#051641" stroke-opacity="0.08"/>
<path d="M2545 -29.6117C2545 -29.6117 1987.68 119.771 1894.9 412.424C1756.97 847.454 2964.61 758.571 2779.71 1175.81C2677.64 1406.13 2246.25 1538.53 2246.25 1538.53" stroke="#051641" stroke-opacity="0.08"/>
<path d="M2574.91 -29.8852C2574.91 -29.8852 2017.59 119.497 1924.81 412.151C1786.88 847.18 2994.52 758.297 2809.62 1175.53C2707.55 1405.86 2276.16 1538.26 2276.16 1538.26" stroke="#051641" stroke-opacity="0.08"/>
<path d="M2604.82 -30.1582C2604.82 -30.1582 2047.51 119.224 1954.72 411.878C1816.8 846.907 3024.43 758.024 2839.53 1175.26C2737.46 1405.58 2306.07 1537.99 2306.07 1537.99" stroke="#051641" stroke-opacity="0.08"/>
<path d="M2634.74 -30.4318C2634.74 -30.4318 2077.42 118.951 1984.64 411.604C1846.71 846.633 3054.35 757.751 2869.45 1174.99C2767.38 1405.31 2335.99 1537.71 2335.99 1537.71" stroke="#051641" stroke-opacity="0.08"/>
<path d="M2664.65 -30.7054C2664.65 -30.7054 2107.34 118.677 2014.55 411.331C1876.63 846.36 3084.26 757.477 2899.36 1174.71C2797.29 1405.04 2365.9 1537.44 2365.9 1537.44" stroke="#051641" stroke-opacity="0.08"/>
<path d="M2694.57 -30.9787C2694.57 -30.9787 2137.25 118.404 2044.47 411.057C1906.54 846.087 3114.18 757.204 2929.28 1174.44C2827.21 1404.76 2395.82 1537.17 2395.82 1537.17" stroke="#051641" stroke-opacity="0.08"/>
<path d="M2724.48 -31.2521C2724.48 -31.2521 2167.17 118.13 2074.38 410.784C1936.46 845.813 3144.09 756.93 2959.19 1174.17C2857.12 1404.49 2425.73 1536.89 2425.73 1536.89" stroke="#051641" stroke-opacity="0.08"/>
<path d="M2754.4 -31.5255C2754.4 -31.5255 2197.08 117.857 2104.29 410.511C1966.37 845.54 3174.01 756.657 2989.11 1173.89C2887.04 1404.22 2455.65 1536.62 2455.65 1536.62" stroke="#051641" stroke-opacity="0.08"/>
<path d="M2784.31 -31.7989C2784.31 -31.7989 2226.99 117.584 2134.21 410.237C1996.28 845.266 3203.92 756.384 3019.02 1173.62C2916.95 1403.94 2485.56 1536.34 2485.56 1536.34" stroke="#051641" stroke-opacity="0.08"/>
<path d="M2814.23 -32.0722C2814.23 -32.0722 2256.91 117.31 2164.12 409.964C2026.2 844.993 3233.84 756.11 3048.94 1173.35C2946.87 1403.67 2515.48 1536.07 2515.48 1536.07" stroke="#051641" stroke-opacity="0.08"/>
<path d="M2844.14 -32.3452C2844.14 -32.3452 2286.82 117.037 2194.04 409.691C2056.11 844.72 3263.75 755.837 3078.85 1173.07C2976.78 1403.4 2545.39 1535.8 2545.39 1535.8" stroke="#051641" stroke-opacity="0.08"/>
<path d="M2874.05 -32.6189C2874.05 -32.6189 2316.74 116.763 2223.95 409.417C2086.03 844.446 3293.66 755.563 3108.76 1172.8C3006.69 1403.12 2575.3 1535.52 2575.3 1535.52" stroke="#051641" stroke-opacity="0.08"/>
<path d="M2903.97 -32.8925C2903.97 -32.8925 2346.65 116.49 2253.87 409.144C2115.94 844.173 3323.58 755.29 3138.68 1172.53C3036.61 1402.85 2605.22 1535.25 2605.22 1535.25" stroke="#051641" stroke-opacity="0.08"/>
<path d="M2933.88 -33.1654C2933.88 -33.1654 2376.56 116.217 2283.78 408.871C2145.86 843.9 3353.49 755.017 3168.59 1172.25C3066.52 1402.58 2635.13 1534.98 2635.13 1534.98" stroke="#051641" stroke-opacity="0.08"/>
<path d="M2963.8 -33.4389C2963.8 -33.4389 2406.48 115.944 2313.69 408.597C2175.77 843.626 3383.41 754.744 3198.51 1171.98C3096.44 1402.3 2665.05 1534.7 2665.05 1534.7" stroke="#051641" stroke-opacity="0.08"/>
<path d="M2993.71 -33.7124C2993.71 -33.7124 2436.39 115.67 2343.61 408.324C2205.68 843.353 3413.32 754.47 3228.42 1171.71C3126.35 1402.03 2694.96 1534.43 2694.96 1534.43" stroke="#051641" stroke-opacity="0.08"/>
<path d="M3023.63 -33.9861C3023.63 -33.9861 2466.31 115.396 2373.52 408.05C2235.6 843.079 3443.24 754.196 3258.34 1171.43C3156.27 1401.75 2724.87 1534.16 2724.87 1534.16" stroke="#051641" stroke-opacity="0.08"/>
<path d="M3053.54 -34.2593C3053.54 -34.2593 2496.22 115.123 2403.44 407.777C2265.51 842.806 3473.15 753.923 3288.25 1171.16C3186.18 1401.48 2754.79 1533.88 2754.79 1533.88" stroke="#051641" stroke-opacity="0.08"/>
<path d="M3083.45 -34.5324C3083.45 -34.5324 2526.14 114.85 2433.35 407.504C2295.43 842.533 3503.07 753.65 3318.16 1170.89C3216.1 1401.21 2784.7 1533.61 2784.7 1533.61" stroke="#051641" stroke-opacity="0.08"/>
<path d="M3113.37 -34.8061C3113.37 -34.8061 2556.05 114.576 2463.27 407.23C2325.34 842.259 3532.98 753.376 3348.08 1170.61C3246.01 1400.93 2814.62 1533.34 2814.62 1533.34" stroke="#051641" stroke-opacity="0.08"/>
<path d="M3143.28 -35.0793C3143.28 -35.0793 2585.96 114.303 2493.18 406.957C2355.25 841.986 3562.89 753.103 3377.99 1170.34C3275.92 1400.66 2844.53 1533.06 2844.53 1533.06" stroke="#051641" stroke-opacity="0.08"/>
<path d="M3173.2 -35.3526C3173.2 -35.3526 2615.88 114.03 2523.1 406.684C2385.17 841.713 3592.81 752.83 3407.91 1170.07C3305.84 1400.39 2874.45 1532.79 2874.45 1532.79" stroke="#051641" stroke-opacity="0.08"/>
</svg>
