<svg width="2334" height="1024" viewBox="0 0 2334 1024" fill="none" xmlns="http://www.w3.org/2000/svg">
<path d="M45.9631 -5.35759C45.9631 -5.35759 -334.01 96.4896 -397.269 296.018C-491.305 592.615 332.049 532.016 205.986 816.482C136.396 973.514 -157.722 1063.78 -157.722 1063.78" stroke="white" stroke-opacity="0.08"/>
<path d="M66.3586 -5.54405C66.3586 -5.54405 -313.614 96.3031 -376.874 295.831C-470.909 592.429 352.444 531.83 226.381 816.296C156.791 973.327 -137.327 1063.6 -137.327 1063.6" stroke="white" stroke-opacity="0.08"/>
<path d="M86.7531 -5.73046C86.7531 -5.73046 -293.22 96.1167 -356.479 295.645C-450.514 592.242 372.839 531.643 246.776 816.109C177.186 973.141 -116.932 1063.41 -116.932 1063.41" stroke="white" stroke-opacity="0.08"/>
<path d="M107.15 -5.9168C107.15 -5.9168 -272.823 95.9304 -336.083 295.458C-430.118 592.056 393.235 531.457 267.172 815.923C197.582 972.955 -96.5359 1063.23 -96.5359 1063.23" stroke="white" stroke-opacity="0.08"/>
<path d="M127.544 -6.10326C127.544 -6.10326 -252.429 95.7439 -315.688 295.272C-409.723 591.87 413.63 531.27 287.567 815.736C217.977 972.768 -76.1413 1063.04 -76.1413 1063.04" stroke="white" stroke-opacity="0.08"/>
<path d="M147.939 -6.2896C147.939 -6.2896 -232.034 95.5576 -295.294 295.086C-389.329 591.683 434.024 531.084 307.961 815.55C238.372 972.582 -55.7468 1062.85 -55.7468 1062.85" stroke="white" stroke-opacity="0.08"/>
<path d="M168.335 -6.476C168.335 -6.476 -211.638 95.3712 -274.897 294.899C-368.932 591.497 454.421 530.898 328.358 815.364C258.768 972.396 -35.3503 1062.67 -35.3503 1062.67" stroke="white" stroke-opacity="0.08"/>
<path d="M188.73 -6.66234C188.73 -6.66234 -191.243 95.1849 -254.503 294.713C-348.538 591.311 474.815 530.711 348.752 815.177C279.163 972.209 -14.9558 1062.48 -14.9558 1062.48" stroke="white" stroke-opacity="0.08"/>
<path d="M209.124 -6.8488C209.124 -6.8488 -170.849 94.9984 -234.108 294.526C-328.143 591.124 495.21 530.525 369.147 814.991C299.557 972.023 5.43874 1062.29 5.43874 1062.29" stroke="white" stroke-opacity="0.08"/>
<path d="M229.521 -7.03514C229.521 -7.03514 -150.452 94.812 -213.712 294.34C-307.747 590.938 515.606 530.338 389.543 814.805C319.954 971.836 25.8352 1062.11 25.8352 1062.11" stroke="white" stroke-opacity="0.08"/>
<path d="M249.915 -7.22154C249.915 -7.22154 -130.058 94.6256 -193.317 294.154C-287.352 590.751 536.001 530.152 409.938 814.618C340.348 971.65 46.2298 1061.92 46.2298 1061.92" stroke="white" stroke-opacity="0.08"/>
<path d="M270.311 -7.40788C270.311 -7.40788 -109.662 94.4393 -172.922 293.967C-266.957 590.565 556.396 529.966 430.333 814.432C360.744 971.464 66.6253 1061.73 66.6253 1061.73" stroke="white" stroke-opacity="0.08"/>
<path d="M290.706 -7.59429C290.706 -7.59429 -89.2668 94.2529 -152.526 293.781C-246.561 590.379 576.792 529.779 450.729 814.245C381.139 971.277 87.0208 1061.55 87.0208 1061.55" stroke="white" stroke-opacity="0.08"/>
<path d="M311.101 -7.78069C311.101 -7.78069 -68.8722 94.0665 -132.132 293.594C-226.167 590.192 597.186 529.593 471.123 814.059C401.534 971.091 107.415 1061.36 107.415 1061.36" stroke="white" stroke-opacity="0.08"/>
<path d="M331.496 -7.96709C331.496 -7.96709 -48.4767 93.8801 -111.736 293.408C-205.771 590.006 617.582 529.407 491.519 813.873C421.929 970.904 127.811 1061.18 127.811 1061.18" stroke="white" stroke-opacity="0.08"/>
<path d="M351.892 -8.15349C351.892 -8.15349 -28.0812 93.6937 -91.3407 293.222C-185.376 589.819 637.977 529.22 511.914 813.686C442.325 970.718 148.206 1060.99 148.206 1060.99" stroke="white" stroke-opacity="0.08"/>
<path d="M372.286 -8.33989C372.286 -8.33989 -7.68669 93.5073 -70.9462 293.035C-164.981 589.633 658.372 529.034 532.309 813.5C462.719 970.532 168.601 1060.8 168.601 1060.8" stroke="white" stroke-opacity="0.08"/>
<path d="M392.682 -8.52629C392.682 -8.52629 12.7088 93.3209 -50.5507 292.849C-144.586 589.447 678.767 528.847 552.704 813.313C483.115 970.345 188.996 1060.62 188.996 1060.62" stroke="white" stroke-opacity="0.08"/>
<path d="M413.077 -8.71263C413.077 -8.71263 33.1043 93.1346 -30.1552 292.662C-124.19 589.26 699.163 528.661 573.1 813.127C503.51 970.159 209.392 1060.43 209.392 1060.43" stroke="white" stroke-opacity="0.08"/>
<path d="M433.473 -8.89903C433.473 -8.89903 53.4998 92.9482 -9.75967 292.476C-103.795 589.074 719.558 528.475 593.495 812.941C523.906 969.972 229.787 1060.24 229.787 1060.24" stroke="white" stroke-opacity="0.08"/>
<path d="M453.867 -9.08544C453.867 -9.08544 73.8944 92.7618 10.6349 292.29C-83.4002 588.887 739.953 528.288 613.89 812.754C544.3 969.786 250.182 1060.06 250.182 1060.06" stroke="white" stroke-opacity="0.08"/>
<path d="M474.263 -9.27184C474.263 -9.27184 94.2899 92.5754 31.0304 292.103C-63.0047 588.701 760.348 528.102 634.285 812.568C564.696 969.6 270.577 1059.87 270.577 1059.87" stroke="white" stroke-opacity="0.08"/>
<path d="M494.658 -9.45818C494.658 -9.45818 114.685 92.389 51.4259 291.917C-42.6092 588.515 780.744 527.915 654.681 812.382C585.091 969.413 290.973 1059.68 290.973 1059.68" stroke="white" stroke-opacity="0.08"/>
<path d="M515.053 -9.64458C515.053 -9.64458 135.08 92.2026 71.8204 291.731C-22.2147 588.328 801.138 527.729 675.075 812.195C605.486 969.227 311.367 1059.5 311.367 1059.5" stroke="white" stroke-opacity="0.08"/>
<path d="M535.448 -9.83092C535.448 -9.83092 155.475 92.0163 92.2159 291.544C-1.81918 588.142 821.534 527.543 695.471 812.009C625.881 969.041 331.763 1059.31 331.763 1059.31" stroke="white" stroke-opacity="0.08"/>
<path d="M555.844 -10.0174C555.844 -10.0174 175.871 91.8298 112.611 291.358C18.5763 587.956 841.929 527.356 715.866 811.822C646.277 968.854 352.158 1059.12 352.158 1059.12" stroke="white" stroke-opacity="0.08"/>
<path d="M576.238 -10.2038C576.238 -10.2038 196.265 91.6434 133.006 291.171C38.9709 587.769 862.324 527.17 736.261 811.636C666.671 968.668 372.553 1058.94 372.553 1058.94" stroke="white" stroke-opacity="0.08"/>
<path d="M596.635 -10.3901C596.635 -10.3901 216.662 91.4571 153.402 290.985C59.3673 587.583 882.72 526.984 756.657 811.45C687.068 968.481 392.949 1058.75 392.949 1058.75" stroke="white" stroke-opacity="0.08"/>
<path d="M617.029 -10.5766C617.029 -10.5766 237.056 91.2706 173.797 290.799C79.7619 587.396 903.115 526.797 777.052 811.263C707.462 968.295 413.344 1058.57 413.344 1058.57" stroke="white" stroke-opacity="0.08"/>
<path d="M637.424 -10.7629C637.424 -10.7629 257.451 91.0843 194.192 290.612C100.156 587.21 923.51 526.611 797.447 811.077C727.857 968.109 433.739 1058.38 433.739 1058.38" stroke="white" stroke-opacity="0.08"/>
<path d="M657.82 -10.9493C657.82 -10.9493 277.847 90.8979 214.588 290.426C120.553 587.024 943.906 526.424 817.843 810.89C748.253 967.922 454.135 1058.19 454.135 1058.19" stroke="white" stroke-opacity="0.08"/>
<path d="M678.215 -11.1357C678.215 -11.1357 298.242 90.7115 234.983 290.239C140.947 586.837 964.301 526.238 838.238 810.704C768.648 967.736 474.53 1058.01 474.53 1058.01" stroke="white" stroke-opacity="0.08"/>
<path d="M698.611 -11.3221C698.611 -11.3221 318.638 90.5251 255.378 290.053C161.343 586.651 984.696 526.051 858.633 810.518C789.043 967.549 494.925 1057.82 494.925 1057.82" stroke="white" stroke-opacity="0.08"/>
<path d="M719.006 -11.5085C719.006 -11.5085 339.033 90.3387 275.774 289.867C181.738 586.464 1005.09 525.865 879.029 810.331C809.439 967.363 515.321 1057.63 515.321 1057.63" stroke="white" stroke-opacity="0.08"/>
<path d="M739.401 -11.6949C739.401 -11.6949 359.428 90.1523 296.168 289.68C202.133 586.278 1025.49 525.679 899.423 810.145C829.833 967.177 535.715 1057.45 535.715 1057.45" stroke="white" stroke-opacity="0.08"/>
<path d="M759.796 -11.8812C759.796 -11.8812 379.823 89.966 316.564 289.494C222.528 586.092 1045.88 525.492 919.819 809.959C850.229 966.99 556.111 1057.26 556.111 1057.26" stroke="white" stroke-opacity="0.08"/>
<path d="M780.192 -12.0676C780.192 -12.0676 400.219 89.7796 336.959 289.307C242.924 585.905 1066.28 525.306 940.214 809.772C870.624 966.804 576.506 1057.07 576.506 1057.07" stroke="white" stroke-opacity="0.08"/>
<path d="M800.586 -12.254C800.586 -12.254 420.613 89.5932 357.354 289.121C263.319 585.719 1086.67 525.12 960.609 809.586C891.019 966.617 596.901 1056.89 596.901 1056.89" stroke="white" stroke-opacity="0.08"/>
<path d="M820.982 -12.4404C820.982 -12.4404 441.009 89.4068 377.749 288.935C283.714 585.532 1107.07 524.933 981.004 809.399C911.414 966.431 617.296 1056.7 617.296 1056.7" stroke="white" stroke-opacity="0.08"/>
<path d="M841.377 -12.6268C841.377 -12.6268 461.404 89.2204 398.145 288.748C304.11 585.346 1127.46 524.747 1001.4 809.213C931.81 966.245 637.692 1056.52 637.692 1056.52" stroke="white" stroke-opacity="0.08"/>
<path d="M861.773 -12.8132C861.773 -12.8132 481.8 89.034 418.54 288.562C324.505 585.16 1147.86 524.56 1021.8 809.027C952.206 966.058 658.087 1056.33 658.087 1056.33" stroke="white" stroke-opacity="0.08"/>
<path d="M882.167 -12.9996C882.167 -12.9996 502.194 88.8476 438.935 288.375C344.9 584.973 1168.25 524.374 1042.19 808.84C972.6 965.872 678.482 1056.14 678.482 1056.14" stroke="white" stroke-opacity="0.08"/>
<path d="M902.563 -13.186C902.563 -13.186 522.59 88.6612 459.33 288.189C365.295 584.787 1188.65 524.188 1062.59 808.654C992.996 965.686 698.877 1055.96 698.877 1055.96" stroke="white" stroke-opacity="0.08"/>
<path d="M922.958 -13.3724C922.958 -13.3724 542.985 88.4748 479.726 288.003C385.691 584.601 1209.04 524.001 1082.98 808.467C1013.39 965.499 719.273 1055.77 719.273 1055.77" stroke="white" stroke-opacity="0.08"/>
<path d="M943.353 -13.5588C943.353 -13.5588 563.38 88.2884 500.12 287.816C406.085 584.414 1229.44 523.815 1103.38 808.281C1033.79 965.313 739.667 1055.58 739.667 1055.58" stroke="white" stroke-opacity="0.08"/>
<path d="M963.748 -13.7452C963.748 -13.7452 583.775 88.102 520.516 287.63C426.481 584.228 1249.83 523.628 1123.77 808.095C1054.18 965.126 760.063 1055.4 760.063 1055.4" stroke="white" stroke-opacity="0.08"/>
<path d="M984.144 -13.9315C984.144 -13.9315 604.171 87.9157 540.911 287.444C446.876 584.041 1270.23 523.442 1144.17 807.908C1074.58 964.94 780.458 1055.21 780.458 1055.21" stroke="white" stroke-opacity="0.08"/>
<path d="M1004.54 -14.1179C1004.54 -14.1179 624.565 87.7293 561.306 287.257C467.271 583.855 1290.62 523.256 1164.56 807.722C1094.97 964.754 800.853 1055.02 800.853 1055.02" stroke="white" stroke-opacity="0.08"/>
<path d="M1024.93 -14.3042C1024.93 -14.3042 644.962 87.5429 581.702 287.071C487.667 583.669 1311.02 523.069 1184.96 807.536C1115.37 964.567 821.249 1054.84 821.249 1054.84" stroke="white" stroke-opacity="0.08"/>
<path d="M1045.33 -14.4907C1045.33 -14.4907 665.356 87.3565 602.097 286.884C508.062 583.482 1331.41 522.883 1205.35 807.349C1135.76 964.381 841.644 1054.65 841.644 1054.65" stroke="white" stroke-opacity="0.08"/>
<path d="M1065.72 -14.677C1065.72 -14.677 685.751 87.1701 622.491 286.698C528.456 583.296 1351.81 522.697 1225.75 807.163C1156.16 964.194 862.038 1054.47 862.038 1054.47" stroke="white" stroke-opacity="0.08"/>
<path d="M1086.12 -14.8635C1086.12 -14.8635 706.147 86.9837 642.888 286.512C548.853 583.109 1372.21 522.51 1246.14 806.976C1176.55 964.008 882.435 1054.28 882.435 1054.28" stroke="white" stroke-opacity="0.08"/>
<path d="M1106.51 -15.0499C1106.51 -15.0499 726.542 86.7973 663.282 286.325C569.247 582.923 1392.6 522.324 1266.54 806.79C1196.95 963.822 902.829 1054.09 902.829 1054.09" stroke="white" stroke-opacity="0.08"/>
<path d="M1126.91 -15.2363C1126.91 -15.2363 746.936 86.6109 683.677 286.139C589.642 582.737 1412.99 522.137 1286.93 806.604C1217.34 963.635 923.224 1053.91 923.224 1053.91" stroke="white" stroke-opacity="0.08"/>
<path d="M1147.31 -15.4227C1147.31 -15.4227 767.333 86.4245 704.073 285.952C610.038 582.55 1433.39 521.951 1307.33 806.417C1237.74 963.449 943.62 1053.72 943.62 1053.72" stroke="white" stroke-opacity="0.08"/>
<path d="M1167.7 -15.609C1167.7 -15.609 787.727 86.2382 724.468 285.766C630.433 582.364 1453.79 521.765 1327.72 806.231C1258.13 963.263 964.015 1053.53 964.015 1053.53" stroke="white" stroke-opacity="0.08"/>
<path d="M1188.1 -15.7955C1188.1 -15.7955 808.123 86.0517 744.863 285.58C650.828 582.177 1474.18 521.578 1348.12 806.044C1278.53 963.076 984.41 1053.35 984.41 1053.35" stroke="white" stroke-opacity="0.08"/>
<path d="M1208.49 -15.9818C1208.49 -15.9818 828.518 85.8654 765.259 285.393C671.224 581.991 1494.58 521.392 1368.51 805.858C1298.92 962.89 1004.81 1053.16 1004.81 1053.16" stroke="white" stroke-opacity="0.08"/>
<path d="M1228.89 -16.1682C1228.89 -16.1682 848.913 85.679 785.653 285.207C691.618 581.805 1514.97 521.205 1388.91 805.672C1319.32 962.703 1025.2 1052.97 1025.2 1052.97" stroke="white" stroke-opacity="0.08"/>
<path d="M1249.28 -16.3545C1249.28 -16.3545 869.308 85.4927 806.049 285.021C712.014 581.618 1535.37 521.019 1409.3 805.485C1339.71 962.517 1045.6 1052.79 1045.6 1052.79" stroke="white" stroke-opacity="0.08"/>
<path d="M1269.68 -16.5409C1269.68 -16.5409 889.704 85.3062 826.444 284.834C732.409 581.432 1555.76 520.833 1429.7 805.299C1360.11 962.331 1065.99 1052.6 1065.99 1052.6" stroke="white" stroke-opacity="0.08"/>
<path d="M1290.07 -16.7273C1290.07 -16.7273 910.098 85.1198 846.839 284.648C752.804 581.246 1576.16 520.646 1450.09 805.112C1380.5 962.144 1086.39 1052.41 1086.39 1052.41" stroke="white" stroke-opacity="0.08"/>
<path d="M1310.47 -16.9137C1310.47 -16.9137 930.495 84.9334 867.235 284.461C773.2 581.059 1596.55 520.46 1470.49 804.926C1400.9 961.958 1106.78 1052.23 1106.78 1052.23" stroke="white" stroke-opacity="0.08"/>
<path d="M1330.86 -17.1001C1330.86 -17.1001 950.889 84.747 887.63 284.275C793.595 580.873 1616.95 520.273 1490.88 804.74C1421.3 961.771 1127.18 1052.04 1127.18 1052.04" stroke="white" stroke-opacity="0.08"/>
<path d="M1351.26 -17.2865C1351.26 -17.2865 971.285 84.5606 908.025 284.089C813.99 580.686 1637.34 520.087 1511.28 804.553C1441.69 961.585 1147.57 1051.86 1147.57 1051.86" stroke="white" stroke-opacity="0.08"/>
<path d="M1371.65 -17.4729C1371.65 -17.4729 991.68 84.3742 928.421 283.902C834.386 580.5 1657.74 519.901 1531.68 804.367C1462.09 961.399 1167.97 1051.67 1167.97 1051.67" stroke="white" stroke-opacity="0.08"/>
<path d="M1392.05 -17.6593C1392.05 -17.6593 1012.08 84.1879 948.816 283.716C854.78 580.314 1678.13 519.714 1552.07 804.18C1482.48 961.212 1188.36 1051.48 1188.36 1051.48" stroke="white" stroke-opacity="0.08"/>
<path d="M1412.44 -17.8457C1412.44 -17.8457 1032.47 84.0015 969.211 283.529C875.176 580.127 1698.53 519.528 1572.47 803.994C1502.88 961.026 1208.76 1051.3 1208.76 1051.3" stroke="white" stroke-opacity="0.08"/>
<path d="M1432.84 -18.032C1432.84 -18.032 1052.87 83.8152 989.607 283.343C895.571 579.941 1718.92 519.342 1592.86 803.808C1523.27 960.839 1229.15 1051.11 1229.15 1051.11" stroke="white" stroke-opacity="0.08"/>
<path d="M1453.23 -18.2185C1453.23 -18.2185 1073.26 83.6287 1010 283.157C915.967 579.754 1739.32 519.155 1613.26 803.621C1543.67 960.653 1249.55 1050.92 1249.55 1050.92" stroke="white" stroke-opacity="0.08"/>
<path d="M1473.63 -18.4048C1473.63 -18.4048 1093.66 83.4424 1030.4 282.97C936.361 579.568 1759.71 518.969 1633.65 803.435C1564.06 960.467 1269.94 1050.74 1269.94 1050.74" stroke="white" stroke-opacity="0.08"/>
<path d="M1494.02 -18.5912C1494.02 -18.5912 1114.05 83.256 1050.79 282.784C956.757 579.382 1780.11 518.782 1654.05 803.249C1584.46 960.28 1290.34 1050.55 1290.34 1050.55" stroke="white" stroke-opacity="0.08"/>
<path d="M1514.42 -18.7776C1514.42 -18.7776 1134.45 83.0696 1071.19 282.598C977.152 579.195 1800.51 518.596 1674.44 803.062C1604.85 960.094 1310.73 1050.36 1310.73 1050.36" stroke="white" stroke-opacity="0.08"/>
<path d="M1534.81 -18.964C1534.81 -18.964 1154.84 82.8832 1091.58 282.411C997.547 579.009 1820.9 518.41 1694.84 802.876C1625.25 959.907 1331.13 1050.18 1331.13 1050.18" stroke="white" stroke-opacity="0.08"/>
<path d="M1555.21 -19.1504C1555.21 -19.1504 1175.24 82.6968 1111.98 282.225C1017.94 578.823 1841.3 518.223 1715.23 802.689C1645.64 959.721 1351.52 1049.99 1351.52 1049.99" stroke="white" stroke-opacity="0.08"/>
<path d="M1575.61 -19.3368C1575.61 -19.3368 1195.63 82.5104 1132.37 282.038C1038.34 578.636 1861.69 518.037 1735.63 802.503C1666.04 959.535 1371.92 1049.81 1371.92 1049.81" stroke="white" stroke-opacity="0.08"/>
<path d="M1596 -19.5232C1596 -19.5232 1216.03 82.324 1152.77 281.852C1058.73 578.45 1882.09 517.85 1756.02 802.317C1686.43 959.348 1392.31 1049.62 1392.31 1049.62" stroke="white" stroke-opacity="0.08"/>
<path d="M1616.4 -19.7096C1616.4 -19.7096 1236.42 82.1376 1173.16 281.666C1079.13 578.263 1902.48 517.664 1776.42 802.13C1706.83 959.162 1412.71 1049.43 1412.71 1049.43" stroke="white" stroke-opacity="0.08"/>
<path d="M1636.79 -19.896C1636.79 -19.896 1256.82 81.9512 1193.56 281.479C1099.52 578.077 1922.88 517.478 1796.81 801.944C1727.22 958.976 1433.11 1049.25 1433.11 1049.25" stroke="white" stroke-opacity="0.08"/>
<path d="M1657.19 -20.0823C1657.19 -20.0823 1277.21 81.7649 1213.95 281.293C1119.92 577.891 1943.27 517.291 1817.21 801.757C1747.62 958.789 1453.5 1049.06 1453.5 1049.06" stroke="white" stroke-opacity="0.08"/>
<path d="M1677.58 -20.2687C1677.58 -20.2687 1297.61 81.5785 1234.35 281.106C1140.31 577.704 1963.67 517.105 1837.6 801.571C1768.02 958.603 1473.9 1048.87 1473.9 1048.87" stroke="white" stroke-opacity="0.08"/>
<path d="M1697.98 -20.4551C1697.98 -20.4551 1318 81.3921 1254.74 280.92C1160.71 577.518 1984.06 516.918 1858 801.385C1788.41 958.416 1494.29 1048.69 1494.29 1048.69" stroke="white" stroke-opacity="0.08"/>
<path d="M1718.37 -20.6415C1718.37 -20.6415 1338.4 81.2057 1275.14 280.734C1181.1 577.331 2004.46 516.732 1878.39 801.198C1808.8 958.23 1514.69 1048.5 1514.69 1048.5" stroke="white" stroke-opacity="0.08"/>
<path d="M1738.77 -20.8279C1738.77 -20.8279 1358.79 81.0193 1295.54 280.547C1201.5 577.145 2024.85 516.546 1898.79 801.012C1829.2 958.044 1535.08 1048.31 1535.08 1048.31" stroke="white" stroke-opacity="0.08"/>
<path d="M1759.16 -21.0143C1759.16 -21.0143 1379.19 80.8329 1315.93 280.361C1221.89 576.959 2045.25 516.359 1919.18 800.825C1849.6 957.857 1555.48 1048.13 1555.48 1048.13" stroke="white" stroke-opacity="0.08"/>
<path d="M1779.56 -21.2007C1779.56 -21.2007 1399.58 80.6465 1336.33 280.174C1242.29 576.772 2065.64 516.173 1939.58 800.639C1869.99 957.671 1575.87 1047.94 1575.87 1047.94" stroke="white" stroke-opacity="0.08"/>
<path d="M1799.95 -21.3871C1799.95 -21.3871 1419.98 80.4601 1356.72 279.988C1262.69 576.586 2086.04 515.987 1959.98 800.453C1890.39 957.484 1596.27 1047.76 1596.27 1047.76" stroke="white" stroke-opacity="0.08"/>
<path d="M1820.35 -21.5734C1820.35 -21.5734 1440.37 80.2738 1377.12 279.802C1283.08 576.399 2106.43 515.8 1980.37 800.266C1910.78 957.298 1616.66 1047.57 1616.66 1047.57" stroke="white" stroke-opacity="0.08"/>
<path d="M1840.74 -21.7598C1840.74 -21.7598 1460.77 80.0874 1397.51 279.615C1303.48 576.213 2126.83 515.614 2000.77 800.08C1931.18 957.112 1637.06 1047.38 1637.06 1047.38" stroke="white" stroke-opacity="0.08"/>
<path d="M1861.14 -21.9463C1861.14 -21.9463 1481.17 79.9009 1417.91 279.429C1323.87 576.027 2147.22 515.427 2021.16 799.893C1951.57 956.925 1657.45 1047.2 1657.45 1047.2" stroke="white" stroke-opacity="0.08"/>
<path d="M1881.53 -22.1326C1881.53 -22.1326 1501.56 79.7146 1438.3 279.242C1344.27 575.84 2167.62 515.241 2041.56 799.707C1971.97 956.739 1677.85 1047.01 1677.85 1047.01" stroke="white" stroke-opacity="0.08"/>
<path d="M1901.93 -22.319C1901.93 -22.319 1521.96 79.5282 1458.7 279.056C1364.66 575.654 2188.01 515.055 2061.95 799.521C1992.36 956.552 1698.24 1046.82 1698.24 1046.82" stroke="white" stroke-opacity="0.08"/>
<path d="M1922.32 -22.5054C1922.32 -22.5054 1542.35 79.3418 1479.09 278.87C1385.06 575.468 2208.41 514.868 2082.35 799.334C2012.76 956.366 1718.64 1046.64 1718.64 1046.64" stroke="white" stroke-opacity="0.08"/>
<path d="M1942.72 -22.6918C1942.72 -22.6918 1562.75 79.1554 1499.49 278.683C1405.45 575.281 2228.81 514.682 2102.74 799.148C2033.15 956.18 1739.03 1046.45 1739.03 1046.45" stroke="white" stroke-opacity="0.08"/>
<path d="M1963.11 -22.8782C1963.11 -22.8782 1583.14 78.969 1519.88 278.497C1425.85 575.095 2249.2 514.495 2123.14 798.962C2053.55 955.993 1759.43 1046.26 1759.43 1046.26" stroke="white" stroke-opacity="0.08"/>
<path d="M1983.51 -23.0646C1983.51 -23.0646 1603.54 78.7826 1540.28 278.311C1446.24 574.908 2269.6 514.309 2143.53 798.775C2073.94 955.807 1779.82 1046.08 1779.82 1046.08" stroke="white" stroke-opacity="0.08"/>
<path d="M2003.91 -23.2509C2003.91 -23.2509 1623.93 78.5963 1560.67 278.124C1466.64 574.722 2289.99 514.123 2163.93 798.589C2094.34 955.621 1800.22 1045.89 1800.22 1045.89" stroke="white" stroke-opacity="0.08"/>
<path d="M2024.3 -23.4374C2024.3 -23.4374 1644.33 78.4098 1581.07 277.938C1487.03 574.536 2310.39 513.936 2184.32 798.402C2114.73 955.434 1820.61 1045.7 1820.61 1045.7" stroke="white" stroke-opacity="0.08"/>
<path d="M2044.7 -23.6237C2044.7 -23.6237 1664.72 78.2235 1601.46 277.751C1507.43 574.349 2330.78 513.75 2204.72 798.216C2135.13 955.248 1841.01 1045.52 1841.01 1045.52" stroke="white" stroke-opacity="0.08"/>
<path d="M2065.09 -23.8101C2065.09 -23.8101 1685.12 78.0371 1621.86 277.565C1527.82 574.163 2351.18 513.564 2225.11 798.03C2155.52 955.061 1861.41 1045.33 1861.41 1045.33" stroke="white" stroke-opacity="0.08"/>
<path d="M2085.49 -23.9965C2085.49 -23.9965 1705.51 77.8507 1642.25 277.379C1548.22 573.976 2371.57 513.377 2245.51 797.843C2175.92 954.875 1881.8 1045.15 1881.8 1045.15" stroke="white" stroke-opacity="0.08"/>
<path d="M2105.88 -24.1829C2105.88 -24.1829 1725.91 77.6643 1662.65 277.192C1568.61 573.79 2391.97 513.191 2265.9 797.657C2196.31 954.689 1902.2 1044.96 1902.2 1044.96" stroke="white" stroke-opacity="0.08"/>
<path d="M2126.28 -24.3693C2126.28 -24.3693 1746.3 77.4779 1683.04 277.006C1589.01 573.604 2412.36 513.004 2286.3 797.47C2216.71 954.502 1922.59 1044.77 1922.59 1044.77" stroke="white" stroke-opacity="0.08"/>
<path d="M2146.67 -24.5557C2146.67 -24.5557 1766.7 77.2915 1703.44 276.819C1609.4 573.417 2432.76 512.818 2306.69 797.284C2237.1 954.316 1942.99 1044.59 1942.99 1044.59" stroke="white" stroke-opacity="0.08"/>
<path d="M2167.07 -24.7421C2167.07 -24.7421 1787.09 77.1051 1723.84 276.633C1629.8 573.231 2453.15 512.632 2327.09 797.098C2257.5 954.129 1963.38 1044.4 1963.38 1044.4" stroke="white" stroke-opacity="0.08"/>
<path d="M2187.46 -24.9285C2187.46 -24.9285 1807.49 76.9187 1744.23 276.447C1650.19 573.044 2473.55 512.445 2347.48 796.911C2277.89 953.943 1983.78 1044.21 1983.78 1044.21" stroke="white" stroke-opacity="0.08"/>
<path d="M2207.86 -25.1149C2207.86 -25.1149 1827.88 76.7323 1764.63 276.26C1670.59 572.858 2493.94 512.259 2367.88 796.725C2298.29 953.757 2004.17 1044.03 2004.17 1044.03" stroke="white" stroke-opacity="0.08"/>
<path d="M2228.25 -25.3012C2228.25 -25.3012 1848.28 76.546 1785.02 276.074C1690.99 572.672 2514.34 512.072 2388.28 796.539C2318.69 953.57 2024.57 1043.84 2024.57 1043.84" stroke="white" stroke-opacity="0.08"/>
<path d="M2248.65 -25.4876C2248.65 -25.4876 1868.67 76.3596 1805.42 275.888C1711.38 572.485 2534.73 511.886 2408.67 796.352C2339.08 953.384 2044.96 1043.65 2044.96 1043.65" stroke="white" stroke-opacity="0.08"/>
<path d="M2269.04 -25.674C2269.04 -25.674 1889.07 76.1732 1825.81 275.701C1731.78 572.299 2555.13 511.7 2429.07 796.166C2359.48 953.198 2065.36 1043.47 2065.36 1043.47" stroke="white" stroke-opacity="0.08"/>
<path d="M2289.44 -25.8604C2289.44 -25.8604 1909.47 75.9868 1846.21 275.515C1752.17 572.113 2575.52 511.513 2449.46 795.979C2379.87 953.011 2085.75 1043.28 2085.75 1043.28" stroke="white" stroke-opacity="0.08"/>
<path d="M2309.83 -26.0467C2309.83 -26.0467 1929.86 75.8005 1866.6 275.328C1772.57 571.926 2595.92 511.327 2469.86 795.793C2400.27 952.825 2106.15 1043.1 2106.15 1043.1" stroke="white" stroke-opacity="0.08"/>
<path d="M2330.23 -26.2331C2330.23 -26.2331 1950.26 75.6141 1887 275.142C1792.96 571.74 2616.31 511.14 2490.25 795.607C2420.66 952.638 2126.54 1042.91 2126.54 1042.91" stroke="white" stroke-opacity="0.08"/>
<path d="M2350.62 -26.4196C2350.62 -26.4196 1970.65 75.4276 1907.39 274.956C1813.36 571.553 2636.71 510.954 2510.65 795.42C2441.06 952.452 2146.94 1042.72 2146.94 1042.72" stroke="white" stroke-opacity="0.08"/>
<path d="M2371.02 -26.6059C2371.02 -26.6059 1991.05 75.2412 1927.79 274.769C1833.75 571.367 2657.11 510.768 2531.04 795.234C2461.45 952.266 2167.33 1042.54 2167.33 1042.54" stroke="white" stroke-opacity="0.08"/>
<path d="M2391.41 -26.7923C2391.41 -26.7923 2011.44 75.0548 1948.18 274.583C1854.15 571.181 2677.5 510.581 2551.44 795.047C2481.85 952.079 2187.73 1042.35 2187.73 1042.35" stroke="white" stroke-opacity="0.08"/>
<path d="M2411.81 -26.9787C2411.81 -26.9787 2031.84 74.8685 1968.58 274.396C1874.54 570.994 2697.9 510.395 2571.83 794.861C2502.24 951.893 2208.12 1042.16 2208.12 1042.16" stroke="white" stroke-opacity="0.08"/>
<path d="M2432.21 -27.1651C2432.21 -27.1651 2052.23 74.682 1988.97 274.21C1894.94 570.808 2718.29 510.208 2592.23 794.675C2522.64 951.706 2228.52 1041.98 2228.52 1041.98" stroke="white" stroke-opacity="0.08"/>
<path d="M2452.6 -27.3515C2452.6 -27.3515 2072.63 74.4957 2009.37 274.024C1915.33 570.621 2738.69 510.022 2612.62 794.488C2543.03 951.52 2248.91 1041.79 2248.91 1041.79" stroke="white" stroke-opacity="0.08"/>
<path d="M2473 -27.5379C2473 -27.5379 2093.02 74.3093 2029.76 273.837C1935.73 570.435 2759.08 509.836 2633.02 794.302C2563.43 951.334 2269.31 1041.6 2269.31 1041.6" stroke="white" stroke-opacity="0.08"/>
<path d="M2493.39 -27.7242C2493.39 -27.7242 2113.42 74.123 2050.16 273.651C1956.12 570.249 2779.48 509.649 2653.41 794.116C2583.82 951.147 2289.71 1041.42 2289.71 1041.42" stroke="white" stroke-opacity="0.08"/>
<path d="M2513.79 -27.9107C2513.79 -27.9107 2133.81 73.9365 2070.55 273.464C1976.52 570.062 2799.87 509.463 2673.81 793.929C2604.22 950.961 2310.1 1041.23 2310.1 1041.23" stroke="white" stroke-opacity="0.08"/>
<path d="M2534.18 -28.097C2534.18 -28.097 2154.21 73.7502 2090.95 273.278C1996.91 569.876 2820.27 509.277 2694.2 793.743C2624.61 950.774 2330.5 1041.05 2330.5 1041.05" stroke="white" stroke-opacity="0.08"/>
<path d="M2554.58 -28.2834C2554.58 -28.2834 2174.6 73.5638 2111.34 273.092C2017.31 569.689 2840.66 509.09 2714.6 793.556C2645.01 950.588 2350.89 1040.86 2350.89 1040.86" stroke="white" stroke-opacity="0.08"/>
</svg>
