<svg width="24" height="24" viewBox="0 0 24 24" fill="none" xmlns="http://www.w3.org/2000/svg">
<path d="M13.4443 7.9471V7.0343C13.4443 6.6133 13.257 6.2384 12.9655 5.9761L12 3.4053L11.0344 5.976C10.743 6.2383 10.5556 6.6132 10.5556 7.0342V7.947H2L2.0802 8.5187C2.1605 9.1507 2.692 10.2941 4.0862 10.4746C4.3069 10.9661 4.8385 11.5278 5.8715 11.6381C5.9819 11.8587 6.1624 12.1396 6.4733 12.3602C6.9447 12.6913 7.5666 12.7915 8.3189 12.6411C8.6097 12.5809 9.7031 12.0637 9.7031 12.0637C9.7031 13.0514 9.9883 13.5617 10.4123 13.9386L7.9537 19.952L8.5012 20.1009C8.5502 20.1146 9.5375 20.3723 10.4877 19.8727C10.7845 20.3154 11.332 20.5946 12 20.5946C12.668 20.5946 13.2156 20.3154 13.5123 19.8727C14.4624 20.3732 15.4488 20.1146 15.4988 20.1009L16.0463 19.952L13.5885 13.9403C14.012 13.566 14.2969 13.0513 14.2969 12.0637C14.2969 12.0637 15.3986 12.5826 15.6811 12.6411C16.4334 12.7916 17.0552 12.6913 17.5267 12.3602C17.8376 12.1396 18.0182 11.8587 18.1285 11.6381C19.1616 11.5277 19.6931 10.966 19.9138 10.4746C21.308 10.2941 21.8396 9.1506 21.9198 8.5187L22 7.9471H13.4443Z" fill="#FF772D"/>
</svg>
