<svg width="169" height="32" viewBox="0 0 169 32" fill="none" xmlns="http://www.w3.org/2000/svg">
<path d="M160.702 15.197V4.98859H168.292V6.71635H162.777V8.97947H167.901V10.6951H162.777V13.4692H168.487V15.197H160.702Z" fill="white"/>
<path d="M154.345 11.4373V9.72167H158.799V13.7855C158.36 14.2073 157.729 14.5764 156.908 14.8928C156.094 15.2091 155.264 15.3673 154.418 15.3673C153.345 15.3673 152.413 15.1442 151.624 14.6981C150.827 14.252 150.229 13.6112 149.83 12.7757C149.432 11.9402 149.232 11.0357 149.232 10.0624C149.232 8.99974 149.452 8.05475 149.891 7.22737C150.339 6.4 150.994 5.7673 151.856 5.32928C152.515 4.98859 153.332 4.81825 154.309 4.81825C155.578 4.81825 156.566 5.08593 157.274 5.62129C157.998 6.14854 158.461 6.87858 158.665 7.8114L156.615 8.20076C156.468 7.69784 156.196 7.30443 155.797 7.02053C155.399 6.72852 154.902 6.58251 154.309 6.58251C153.406 6.58251 152.686 6.86641 152.149 7.43422C151.62 8.00203 151.356 8.84968 151.356 9.97718C151.356 11.1858 151.624 12.0943 152.161 12.7027C152.706 13.3029 153.414 13.603 154.284 13.603C154.715 13.603 155.146 13.5219 155.578 13.3597C156.017 13.1812 156.395 12.9744 156.712 12.7392V11.4373H154.345Z" fill="white"/>
<path fill-rule="evenodd" clip-rule="evenodd" d="M139.263 15.197V4.98859H143.607C144.705 4.98859 145.498 5.08188 145.987 5.26844C146.483 5.4469 146.881 5.77136 147.182 6.24183C147.483 6.71229 147.634 7.24766 147.634 7.84791C147.634 8.61851 147.406 9.2512 146.951 9.74601C146.503 10.2489 145.828 10.5653 144.925 10.6951C145.372 10.9546 145.743 11.2385 146.035 11.5468C146.328 11.855 146.719 12.4066 147.207 13.2015L148.464 15.197H145.987L144.498 12.9703C143.969 12.1754 143.607 11.6766 143.412 11.4738C143.217 11.271 143.009 11.129 142.79 11.0479C142.57 10.9749 142.22 10.9384 141.74 10.9384H141.325V15.197H139.263ZM141.325 9.30799H142.863C143.847 9.30799 144.465 9.26743 144.718 9.18631C144.962 9.09709 145.153 8.95108 145.291 8.74829C145.429 8.5455 145.498 8.28999 145.498 7.98175C145.498 7.64107 145.409 7.36527 145.23 7.15437C145.043 6.94347 144.783 6.80963 144.449 6.75285C144.278 6.72852 143.774 6.71635 142.936 6.71635H141.325V9.30799Z" fill="white"/>
<path fill-rule="evenodd" clip-rule="evenodd" d="M127.708 10.1597C127.708 9.11331 127.866 8.24132 128.183 7.54372C128.411 7.02459 128.724 6.55817 129.123 6.14448C129.53 5.7308 129.973 5.42256 130.453 5.21977C131.088 4.95209 131.824 4.81825 132.662 4.81825C134.167 4.81825 135.37 5.28466 136.273 6.21749C137.185 7.15031 137.64 8.44816 137.64 10.111C137.64 11.7577 137.189 13.0474 136.286 13.9802C135.391 14.9049 134.191 15.3673 132.686 15.3673C131.165 15.3673 129.957 14.9049 129.062 13.9802C128.159 13.0555 127.708 11.782 127.708 10.1597ZM129.843 10.0867C129.843 11.2385 130.111 12.1146 130.648 12.7148C131.177 13.307 131.856 13.603 132.686 13.603C133.508 13.603 134.179 13.311 134.699 12.727C135.236 12.1267 135.505 11.2385 135.505 10.0624C135.505 8.88618 135.244 8.01419 134.724 7.44639C134.211 6.87047 133.532 6.58251 132.686 6.58251C131.832 6.58251 131.144 6.87452 130.624 7.45855C130.103 8.03447 129.843 8.91052 129.843 10.0867Z" fill="white"/>
<path d="M119.41 15.197V4.98859H126.426V6.71635H121.472V9.13764H125.743V10.8532H121.472V15.197H119.41Z" fill="white"/>
<path d="M103.376 15.197L100.936 4.98859H103.047L104.584 11.997L106.451 4.98859H108.916L110.71 12.1186L112.272 4.98859H114.358L111.869 15.197H109.685L107.647 7.56806L105.609 15.197H103.376Z" fill="white"/>
<path fill-rule="evenodd" clip-rule="evenodd" d="M90.3813 10.1597C90.3813 9.11331 90.5359 8.24132 90.845 7.54372C91.0809 7.02459 91.3982 6.55817 91.7968 6.14448C92.2035 5.7308 92.6469 5.42256 93.1268 5.21977C93.7613 4.95209 94.4935 4.81825 95.3232 4.81825C96.8363 4.81825 98.0443 5.28466 98.9473 6.21749C99.8502 7.15031 100.302 8.44816 100.302 10.111C100.302 11.7577 99.8543 13.0474 98.9595 13.9802C98.0565 14.9049 96.8566 15.3673 95.3598 15.3673C93.8386 15.3673 92.6265 14.9049 91.7236 13.9802C90.8288 13.0555 90.3813 11.782 90.3813 10.1597ZM92.5045 10.0867C92.5045 11.2385 92.773 12.1146 93.3099 12.7148C93.8468 13.307 94.526 13.603 95.3476 13.603C96.1693 13.603 96.8444 13.311 97.3732 12.727C97.902 12.1267 98.1663 11.2385 98.1663 10.0624C98.1663 8.88618 97.9101 8.01419 97.3976 7.44639C96.8851 6.87047 96.2018 6.58251 95.3476 6.58251C94.4935 6.58251 93.8061 6.87452 93.2855 7.45855C92.7648 8.03447 92.5045 8.91052 92.5045 10.0867Z" fill="white"/>
<path fill-rule="evenodd" clip-rule="evenodd" d="M80.4731 15.197V4.98859H84.8293C85.9194 4.98859 86.7125 5.08188 87.2087 5.26844C87.705 5.4469 88.0995 5.77136 88.3924 6.24183C88.6933 6.71229 88.8438 7.24766 88.8438 7.84791C88.8438 8.61851 88.6201 9.2512 88.1727 9.74601C87.7172 10.2489 87.042 10.5653 86.1472 10.6951C86.5946 10.9546 86.9606 11.2385 87.2453 11.5468C87.5382 11.855 87.9327 12.4066 88.429 13.2015L89.6736 15.197H87.2087L85.7079 12.9703C85.1791 12.1754 84.8171 11.6766 84.6219 11.4738C84.4266 11.271 84.2192 11.129 83.9996 11.0479C83.7799 10.9749 83.4342 10.9384 82.9624 10.9384H82.5475V15.197H80.4731ZM82.5353 9.30799H84.0606C85.053 9.30799 85.6713 9.26743 85.9153 9.18631C86.1675 9.09709 86.3627 8.95108 86.501 8.74829C86.6393 8.5455 86.7084 8.28999 86.7084 7.98175C86.7084 7.64107 86.6149 7.36527 86.4278 7.15437C86.2488 6.94347 85.9885 6.80963 85.6469 6.75285C85.4842 6.72852 84.9839 6.71635 84.146 6.71635H82.5353V9.30799Z" fill="white"/>
<path fill-rule="evenodd" clip-rule="evenodd" d="M70.1499 15.197V4.98859H74.4939C75.5921 4.98859 76.3852 5.08188 76.8733 5.26844C77.3695 5.4469 77.7681 5.77136 78.0691 6.24183C78.3701 6.71229 78.5206 7.24766 78.5206 7.84791C78.5206 8.61851 78.2928 9.2512 77.8373 9.74601C77.3899 10.2489 76.7147 10.5653 75.8117 10.6951C76.2591 10.9546 76.6293 11.2385 76.9221 11.5468C77.215 11.855 77.6054 12.4066 78.0935 13.2015L79.3503 15.197H76.8733L75.3846 12.9703C74.8559 12.1754 74.4939 11.6766 74.2986 11.4738C74.1034 11.271 73.896 11.129 73.6763 11.0479C73.4567 10.9749 73.111 10.9384 72.6391 10.9384H72.2121V15.197H70.1499ZM72.2121 9.30799H73.7495C74.742 9.30799 75.3602 9.26743 75.6043 9.18631C75.8483 9.09709 76.0395 8.95108 76.1778 8.74829C76.3161 8.5455 76.3852 8.28999 76.3852 7.98175C76.3852 7.64107 76.2957 7.36527 76.1168 7.15437C75.9297 6.94347 75.6693 6.80963 75.3358 6.75285C75.1731 6.72852 74.6728 6.71635 73.835 6.71635H72.2121V9.30799Z" fill="white"/>
<path fill-rule="evenodd" clip-rule="evenodd" d="M69.0394 15.197H66.7942L65.9034 12.873H61.8157L60.9615 15.197H58.7773L62.7552 4.98859H64.9394L69.0394 15.197ZM65.2445 11.1696L63.829 7.37338L62.4502 11.1696H65.2445Z" fill="white"/>
<path fill-rule="evenodd" clip-rule="evenodd" d="M51.3467 15.197V4.98859H54.6535C55.9144 4.98859 56.736 5.04132 57.1183 5.14677C57.704 5.30089 58.1921 5.63346 58.5826 6.14449C58.9812 6.65551 59.1805 7.3166 59.1805 8.12776C59.1805 8.75235 59.0666 9.2796 58.8388 9.70951C58.611 10.1394 58.3182 10.476 57.9603 10.7194C57.6186 10.9627 57.2647 11.1209 56.8987 11.1939C56.4024 11.2913 55.6866 11.3399 54.7511 11.3399H53.4088V15.197H51.3467ZM53.4088 6.71635V9.61217H54.5436C55.3571 9.61217 55.9022 9.55944 56.1787 9.45399C56.4472 9.34854 56.6587 9.18226 56.8132 8.95513C56.9759 8.72801 57.0573 8.46033 57.0573 8.15209C57.0573 7.78707 56.9475 7.48289 56.7278 7.23954C56.5082 6.9962 56.2316 6.84614 55.8981 6.78935C55.654 6.74069 55.1578 6.71635 54.4094 6.71635H53.4088Z" fill="white"/>
<path d="M41.292 11.8753L43.2931 11.6806C43.4152 12.3539 43.6592 12.8487 44.0253 13.165C44.3995 13.4814 44.8998 13.6395 45.5261 13.6395C46.1932 13.6395 46.6935 13.4976 47.027 13.2137C47.3687 12.9298 47.5395 12.6013 47.5395 12.2281C47.5395 11.9848 47.4663 11.782 47.3199 11.6198C47.1816 11.4494 46.9375 11.2994 46.5877 11.1696C46.3437 11.0885 45.7905 10.9384 44.9282 10.7194C43.8219 10.4517 43.045 10.1191 42.5976 9.72167C41.9712 9.15386 41.6581 8.46844 41.6581 7.6654C41.6581 7.14626 41.8045 6.65957 42.0973 6.20532C42.3983 5.75108 42.8254 5.40634 43.3786 5.1711C43.9317 4.93587 44.6028 4.81825 45.3919 4.81825C46.6772 4.81825 47.6412 5.0981 48.2838 5.65779C48.9346 6.21749 49.2763 6.96781 49.3088 7.90874L47.2466 7.99391C47.1572 7.47478 46.966 7.10165 46.6731 6.87452C46.3884 6.63929 45.9532 6.52167 45.3675 6.52167C44.7655 6.52167 44.2978 6.64334 43.9643 6.88669C43.7446 7.04892 43.6348 7.25982 43.6348 7.51939C43.6348 7.76274 43.7365 7.96958 43.9399 8.13992C44.2002 8.35893 44.8306 8.58606 45.8312 8.82129C46.8399 9.06464 47.5842 9.31204 48.0642 9.5635C48.5441 9.81495 48.9224 10.1597 49.199 10.5977C49.4674 11.0357 49.6017 11.5752 49.6017 12.216C49.6017 12.8 49.439 13.3475 49.1136 13.8586C48.7882 14.3696 48.3286 14.7508 47.7347 15.0023C47.1409 15.2456 46.4006 15.3673 45.5139 15.3673C44.2205 15.3673 43.224 15.0712 42.5244 14.4791C41.833 13.8869 41.4221 13.019 41.292 11.8753Z" fill="white"/>
<path d="M168.268 23.4951C168.243 23.3004 168.154 23.1463 167.999 23.0327C167.836 22.9272 167.629 22.8745 167.377 22.8745C167.206 22.8745 167.055 22.8989 166.925 22.9475C166.795 23.0043 166.693 23.0814 166.62 23.1787C166.555 23.276 166.523 23.3855 166.523 23.5072C166.523 23.6046 166.547 23.6897 166.596 23.7627C166.645 23.8357 166.706 23.9006 166.779 23.9574C166.86 24.0061 166.946 24.0466 167.035 24.0791C167.125 24.1115 167.214 24.1359 167.304 24.1521L167.718 24.2616C167.857 24.294 167.999 24.3387 168.146 24.3954C168.284 24.4522 168.414 24.5293 168.536 24.6266C168.666 24.7158 168.768 24.8294 168.841 24.9673C168.914 25.1052 168.951 25.2715 168.951 25.4662C168.951 25.7095 168.89 25.9245 168.768 26.111C168.638 26.2976 168.455 26.4477 168.219 26.5612C167.983 26.6667 167.698 26.7194 167.365 26.7194C167.047 26.7194 166.771 26.6707 166.535 26.5734C166.299 26.4679 166.116 26.3219 165.986 26.1354C165.847 25.9488 165.77 25.7257 165.754 25.4662H166.413C166.421 25.6203 166.47 25.7501 166.559 25.8555C166.649 25.9529 166.763 26.0299 166.901 26.0867C167.039 26.1354 167.194 26.1597 167.365 26.1597C167.544 26.1597 167.706 26.1313 167.853 26.0745C167.991 26.0096 168.105 25.9285 168.194 25.8312C168.276 25.7257 168.316 25.6041 168.316 25.4662C168.316 25.3364 168.28 25.2309 168.207 25.1498C168.133 25.0687 168.036 25.0038 167.914 24.9551C167.792 24.8984 167.653 24.8497 167.499 24.8091L166.986 24.6753C166.645 24.5779 166.372 24.44 166.169 24.2616C165.974 24.075 165.876 23.8357 165.876 23.5437C165.876 23.2923 165.941 23.0773 166.071 22.8989C166.209 22.7123 166.392 22.5663 166.62 22.4608C166.848 22.3635 167.108 22.3148 167.401 22.3148C167.686 22.3148 167.942 22.3635 168.17 22.4608C168.39 22.5663 168.564 22.7082 168.695 22.8867C168.825 23.0651 168.89 23.2679 168.89 23.4951H168.268Z" fill="white"/>
<path d="M161.446 22.3757V26.6464H160.848L158.664 23.5072H158.628V26.6464H157.981V22.3757H158.579L160.763 25.5148H160.8V22.3757H161.446Z" fill="white"/>
<path fill-rule="evenodd" clip-rule="evenodd" d="M153.625 24.5049C153.625 24.9673 153.544 25.3607 153.381 25.6852C153.21 26.0177 152.978 26.2692 152.685 26.4395C152.401 26.618 152.071 26.7072 151.697 26.7072C151.323 26.7072 150.993 26.618 150.709 26.4395C150.416 26.2692 150.184 26.0177 150.013 25.6852C149.85 25.3607 149.769 24.9673 149.769 24.5049C149.769 24.0507 149.85 23.6613 150.013 23.3369C150.184 23.0043 150.416 22.7529 150.709 22.5825C150.993 22.4041 151.323 22.3148 151.697 22.3148C152.071 22.3148 152.401 22.4041 152.685 22.5825C152.978 22.7529 153.21 23.0043 153.381 23.3369C153.544 23.6613 153.625 24.0507 153.625 24.5049ZM152.99 24.5049C152.99 24.1561 152.933 23.8641 152.82 23.6289C152.706 23.3937 152.551 23.2112 152.356 23.0814C152.161 22.9597 151.941 22.8989 151.697 22.8989C151.453 22.8989 151.233 22.9597 151.038 23.0814C150.843 23.2112 150.688 23.3937 150.574 23.6289C150.46 23.8641 150.404 24.1561 150.404 24.5049C150.404 24.8537 150.46 25.1498 150.574 25.3932C150.688 25.6284 150.843 25.8109 151.038 25.9407C151.233 26.0624 151.453 26.1232 151.697 26.1232C151.941 26.1232 152.161 26.0624 152.356 25.9407C152.551 25.8109 152.706 25.6284 152.82 25.3932C152.933 25.1498 152.99 24.8537 152.99 24.5049Z" fill="white"/>
<path d="M145.413 22.3757V26.6464H144.766V22.3757H145.413Z" fill="white"/>
<path d="M137.176 22.9232V22.3757H140.495V22.9232H139.153V26.6464H138.506V22.9232H137.176Z" fill="white"/>
<path d="M132.247 22.3757H132.906V25.1863C132.906 25.4864 132.833 25.7501 132.686 25.9772C132.548 26.2124 132.353 26.3949 132.101 26.5247C131.84 26.6545 131.539 26.7194 131.198 26.7194C130.856 26.7194 130.555 26.6545 130.295 26.5247C130.042 26.3949 129.847 26.2124 129.709 25.9772C129.562 25.7501 129.489 25.4864 129.489 25.1863V22.3757H130.136V25.1376C130.136 25.3242 130.181 25.4945 130.27 25.6487C130.352 25.8028 130.474 25.9204 130.636 26.0015C130.791 26.0907 130.978 26.1354 131.198 26.1354C131.417 26.1354 131.604 26.0907 131.759 26.0015C131.922 25.9204 132.044 25.8028 132.125 25.6487C132.206 25.4945 132.247 25.3242 132.247 25.1376V22.3757Z" fill="white"/>
<path d="M122.619 26.6464V22.3757H123.266V26.0989H125.218V26.6464H122.619Z" fill="white"/>
<path fill-rule="evenodd" clip-rule="evenodd" d="M118.275 24.5049C118.275 24.9673 118.19 25.3607 118.019 25.6852C117.848 26.0177 117.62 26.2692 117.336 26.4395C117.043 26.618 116.709 26.7072 116.335 26.7072C115.969 26.7072 115.64 26.618 115.347 26.4395C115.054 26.2692 114.822 26.0177 114.651 25.6852C114.489 25.3607 114.407 24.9673 114.407 24.5049C114.407 24.0507 114.489 23.6613 114.651 23.3369C114.822 23.0043 115.054 22.7529 115.347 22.5825C115.64 22.4041 115.969 22.3148 116.335 22.3148C116.709 22.3148 117.043 22.4041 117.336 22.5825C117.62 22.7529 117.848 23.0043 118.019 23.3369C118.19 23.6613 118.275 24.0507 118.275 24.5049ZM117.629 24.5049C117.629 24.1561 117.572 23.8641 117.458 23.6289C117.344 23.3937 117.189 23.2112 116.994 23.0814C116.807 22.9597 116.587 22.8989 116.335 22.8989C116.091 22.8989 115.871 22.9597 115.676 23.0814C115.481 23.2112 115.326 23.3937 115.213 23.6289C115.107 23.8641 115.054 24.1561 115.054 24.5049C115.054 24.8537 115.107 25.1498 115.213 25.3932C115.326 25.6284 115.481 25.8109 115.676 25.9407C115.871 26.0624 116.091 26.1232 116.335 26.1232C116.587 26.1232 116.807 26.0624 116.994 25.9407C117.189 25.8109 117.344 25.6284 117.458 25.3932C117.572 25.1498 117.629 24.8537 117.629 24.5049Z" fill="white"/>
<path d="M109.551 23.4951C109.526 23.3004 109.433 23.1463 109.27 23.0327C109.107 22.9272 108.904 22.8745 108.66 22.8745C108.481 22.8745 108.326 22.8989 108.196 22.9475C108.066 23.0043 107.969 23.0814 107.903 23.1787C107.83 23.276 107.794 23.3855 107.794 23.5072C107.794 23.6046 107.818 23.6897 107.867 23.7627C107.916 23.8357 107.981 23.9006 108.062 23.9574C108.135 24.0061 108.221 24.0466 108.318 24.0791C108.408 24.1115 108.493 24.1359 108.575 24.1521L108.989 24.2616C109.128 24.294 109.27 24.3387 109.417 24.3954C109.563 24.4522 109.697 24.5293 109.819 24.6266C109.941 24.7158 110.039 24.8294 110.112 24.9673C110.193 25.1052 110.234 25.2715 110.234 25.4662C110.234 25.7095 110.169 25.9245 110.039 26.111C109.917 26.2976 109.738 26.4477 109.502 26.5612C109.266 26.6667 108.977 26.7194 108.636 26.7194C108.318 26.7194 108.042 26.6707 107.806 26.5734C107.57 26.4679 107.387 26.3219 107.257 26.1354C107.118 25.9488 107.045 25.7257 107.037 25.4662H107.684C107.7 25.6203 107.749 25.7501 107.83 25.8555C107.92 25.9529 108.034 26.0299 108.172 26.0867C108.318 26.1354 108.473 26.1597 108.636 26.1597C108.815 26.1597 108.977 26.1313 109.124 26.0745C109.27 26.0096 109.384 25.9285 109.465 25.8312C109.547 25.7257 109.587 25.6041 109.587 25.4662C109.587 25.3364 109.551 25.2309 109.478 25.1498C109.404 25.0687 109.307 25.0038 109.185 24.9551C109.063 24.8984 108.924 24.8497 108.77 24.8091L108.27 24.6753C107.928 24.5779 107.655 24.44 107.452 24.2616C107.249 24.075 107.147 23.8357 107.147 23.5437C107.147 23.2923 107.216 23.0773 107.354 22.8989C107.485 22.7123 107.663 22.5663 107.891 22.4608C108.127 22.3635 108.387 22.3148 108.672 22.3148C108.965 22.3148 109.221 22.3635 109.441 22.4608C109.661 22.5663 109.835 22.7082 109.966 22.8867C110.096 23.0651 110.165 23.2679 110.173 23.4951H109.551Z" fill="white"/>
<path d="M95.0059 26.6464V22.3757H97.6903V22.9232H95.6526V24.2251H97.5561V24.7848H95.6526V26.0989H97.7147V26.6464H95.0059Z" fill="white"/>
<path d="M87.6602 26.6464V22.3757H89.1854C89.519 22.3757 89.7955 22.4324 90.0152 22.546C90.2348 22.6596 90.4016 22.8177 90.5155 23.0205C90.6212 23.2152 90.6741 23.4464 90.6741 23.7141C90.6741 23.9736 90.6171 24.2048 90.5033 24.4076C90.3975 24.6023 90.2348 24.7564 90.0152 24.87C89.7955 24.9754 89.519 25.0281 89.1854 25.0281H88.0262V24.4806H89.1244C89.3359 24.4806 89.5067 24.4482 89.6369 24.3833C89.7671 24.3265 89.8647 24.2413 89.9298 24.1278C89.9948 24.0142 90.0274 23.8763 90.0274 23.7141C90.0274 23.5518 89.9948 23.4099 89.9298 23.2882C89.8647 23.1746 89.7671 23.0854 89.6369 23.0205C89.5067 22.9556 89.3359 22.9232 89.1244 22.9232H88.3069V26.6464H87.6602ZM89.7833 24.724L90.8327 26.6464H90.1006L89.0634 24.724H89.7833Z" fill="white"/>
<path fill-rule="evenodd" clip-rule="evenodd" d="M80.3508 26.6464H79.6553L81.205 22.3757H81.9493L83.499 26.6464H82.8156L82.413 25.5148H82.6936V24.9795H82.2299L81.5954 23.1422H81.5588L80.9243 24.9795H80.4606V25.5148H80.7413L80.3508 26.6464ZM82.4252 25.5148L82.2299 24.9673H80.9365L80.7413 25.5148H82.4252Z" fill="white"/>
<path d="M71.8828 26.6464L70.6992 22.3757H71.3703L72.2123 25.6852H72.2489L73.1152 22.3757H73.7986L74.6649 25.6852H74.7015L75.5435 22.3757H76.2268L75.031 26.6464H74.3843L73.4691 23.4464H73.4447L72.5417 26.6464H71.8828Z" fill="white"/>
<path d="M63.4512 22.9232V22.3757H66.7702V22.9232H65.4279V26.6464H64.7812V22.9232H63.4512Z" fill="white"/>
<path d="M56.6543 26.6464V22.3757H59.3266V22.9232H57.301V24.2251H59.1313V24.7848H57.301V26.6464H56.6543Z" fill="white"/>
<path fill-rule="evenodd" clip-rule="evenodd" d="M52.3105 24.5049C52.3105 24.9673 52.2251 25.3607 52.0542 25.6852C51.8915 26.0177 51.6638 26.2692 51.3709 26.4395C51.0781 26.618 50.7486 26.7072 50.3825 26.7072C50.0083 26.7072 49.6748 26.618 49.382 26.4395C49.0891 26.2692 48.8613 26.0177 48.6986 25.6852C48.5278 25.3607 48.4424 24.9673 48.4424 24.5049C48.4424 24.0507 48.5278 23.6613 48.6986 23.3369C48.8613 23.0043 49.0891 22.7529 49.382 22.5825C49.6748 22.4041 50.0083 22.3148 50.3825 22.3148C50.7486 22.3148 51.0781 22.4041 51.3709 22.5825C51.6638 22.7529 51.8915 23.0043 52.0542 23.3369C52.2251 23.6613 52.3105 24.0507 52.3105 24.5049ZM51.6638 24.5049C51.6638 24.1561 51.6109 23.8641 51.5051 23.6289C51.3912 23.3937 51.2367 23.2112 51.0414 23.0814C50.8462 22.9597 50.6266 22.8989 50.3825 22.8989C50.1304 22.8989 49.9066 22.9597 49.7114 23.0814C49.5162 23.2112 49.3657 23.3937 49.2599 23.6289C49.146 23.8641 49.0891 24.1561 49.0891 24.5049C49.0891 24.8537 49.146 25.1498 49.2599 25.3932C49.3657 25.6284 49.5162 25.8109 49.7114 25.9407C49.9066 26.0624 50.1304 26.1232 50.3825 26.1232C50.6266 26.1232 50.8462 26.0624 51.0414 25.9407C51.2367 25.8109 51.3912 25.6284 51.5051 25.3932C51.6109 25.1498 51.6638 24.8537 51.6638 24.5049Z" fill="white"/>
<path d="M43.5859 23.4951C43.5615 23.3004 43.468 23.1463 43.3053 23.0327C43.1426 22.9272 42.9392 22.8745 42.6952 22.8745C42.5162 22.8745 42.3657 22.8989 42.2437 22.9475C42.1135 23.0043 42.0118 23.0814 41.9386 23.1787C41.8654 23.276 41.8288 23.3855 41.8288 23.5072C41.8288 23.6046 41.8532 23.6897 41.902 23.7627C41.9508 23.8357 42.0159 23.9006 42.0973 23.9574C42.1786 24.0061 42.264 24.0466 42.3535 24.0791C42.443 24.1115 42.5284 24.1359 42.6097 24.1521L43.0368 24.2616C43.167 24.294 43.3053 24.3387 43.4517 24.3954C43.5981 24.4522 43.7323 24.5293 43.8544 24.6266C43.9764 24.7158 44.074 24.8294 44.1472 24.9673C44.2286 25.1052 44.2692 25.2715 44.2692 25.4662C44.2692 25.7095 44.2042 25.9245 44.074 26.111C43.952 26.2976 43.773 26.4477 43.5371 26.5612C43.3012 26.6667 43.0165 26.7194 42.683 26.7194C42.3576 26.7194 42.0769 26.6707 41.841 26.5734C41.6051 26.4679 41.4221 26.3219 41.2919 26.1354C41.1618 25.9488 41.0885 25.7257 41.0723 25.4662H41.719C41.7353 25.6203 41.7881 25.7501 41.8776 25.8555C41.9671 25.9529 42.081 26.0299 42.2193 26.0867C42.3576 26.1354 42.5081 26.1597 42.6708 26.1597C42.8579 26.1597 43.0205 26.1313 43.1588 26.0745C43.3053 26.0096 43.4192 25.9285 43.5005 25.8312C43.5818 25.7257 43.6225 25.6041 43.6225 25.4662C43.6225 25.3364 43.5859 25.2309 43.5127 25.1498C43.4476 25.0687 43.35 25.0038 43.2199 24.9551C43.106 24.8984 42.9717 24.8497 42.8172 24.8091L42.3047 24.6753C41.963 24.5779 41.6905 24.44 41.4871 24.2616C41.2919 24.075 41.1902 23.8357 41.1821 23.5437C41.1902 23.2923 41.2594 23.0773 41.3895 22.8989C41.5197 22.7123 41.7027 22.5663 41.9386 22.4608C42.1664 22.3635 42.4226 22.3148 42.7074 22.3148C43.0002 22.3148 43.2565 22.3635 43.4761 22.4608C43.7039 22.5663 43.8828 22.7082 44.013 22.8867C44.135 23.0651 44.2001 23.2679 44.2082 23.4951H43.5859Z" fill="white"/>
<path d="M29.7486 0.158173L16.0211 13.8464H10.2007L23.9403 0.158173H29.7486Z" fill="#2164F8"/>
<path d="M3.9165 31.4281L17.6439 17.7399H23.4644L9.72474 31.4281H3.9165Z" fill="#2164F8"/>
<path d="M25.5754 13.7977H21.4633L25.5754 9.69734C33.153 9.53917 36.6184 16.6327 30.6027 21.8038L20.841 31.4281H15.1182L27.6986 18.8837C29.6876 17.0342 29.4191 13.7977 25.5754 13.7977Z" fill="#2164F8"/>
<path d="M8.08977 17.7399H12.2019L8.08977 21.8403C0.512225 22.0107 -2.95319 14.9049 3.06248 9.73384L12.8242 0.109509H18.547L5.96659 12.654C3.97764 14.5034 4.24609 17.7399 8.08977 17.7399Z" fill="#2164F8"/>
</svg>
