<svg width="14" height="14" viewBox="0 0 14 14" fill="none" xmlns="http://www.w3.org/2000/svg">
<path d="M9.41712 8.67962L9.07554 9.01927C9.07554 9.01927 8.2636 9.8266 6.04734 7.62293C3.83109 5.41926 4.64303 4.61193 4.64303 4.61193L4.85814 4.39804C5.38805 3.87113 5.43801 3.02518 4.97568 2.40761L4.02994 1.14431C3.45771 0.379937 2.35197 0.278964 1.69609 0.931121L0.518887 2.10164C0.193672 2.42501 -0.0242612 2.84419 0.00216568 3.3092C0.0697763 4.49886 0.608036 7.05849 3.61152 10.0449C6.79661 13.2119 9.78513 13.3378 11.0072 13.2239C11.3938 13.1878 11.7299 12.9909 12.0008 12.7216L13.0663 11.6622C13.7854 10.9471 13.5827 9.7212 12.6625 9.22099L11.2296 8.44206C10.6254 8.11362 9.88933 8.2101 9.41712 8.67962Z" fill="#2164F8"/>
</svg>
