<svg width="20" height="24" viewBox="0 0 20 24" fill="none" xmlns="http://www.w3.org/2000/svg">
<path fill-rule="evenodd" clip-rule="evenodd" d="M17.7083 9.08366C17.7083 7.91327 17.7083 7.32808 17.4274 6.90771C17.3058 6.72572 17.1495 6.56947 16.9675 6.44788C16.5998 6.2022 16.1061 6.1714 15.2049 6.16755C15.2083 6.41038 15.2083 6.66412 15.2083 6.92575L15.2083 7.00033V8.04199H16.0416C16.3868 8.04199 16.6666 8.32181 16.6666 8.66699C16.6666 9.01217 16.3868 9.29199 16.0416 9.29199H15.2083V10.542H16.0416C16.3868 10.542 16.6666 10.8218 16.6666 11.167C16.6666 11.5122 16.3868 11.792 16.0416 11.792H15.2083V13.042H16.0416C16.3868 13.042 16.6666 13.3218 16.6666 13.667C16.6666 14.0122 16.3868 14.292 16.0416 14.292H15.2083V19.7087H13.9583V7.00033C13.9583 5.42898 13.9583 4.6433 13.4701 4.15515C12.9819 3.66699 12.1963 3.66699 10.6249 3.66699H8.95825C7.3869 3.66699 6.60123 3.66699 6.11307 4.15515C5.62492 4.6433 5.62492 5.42898 5.62492 7.00033V19.7087H4.37492V14.292H3.54159C3.19641 14.292 2.91659 14.0122 2.91659 13.667C2.91659 13.3218 3.19641 13.042 3.54159 13.042H4.37492V11.792H3.54159C3.19641 11.792 2.91659 11.5122 2.91659 11.167C2.91659 10.8218 3.19641 10.542 3.54159 10.542H4.37492V9.29199H3.54159C3.19641 9.29199 2.91659 9.01217 2.91659 8.66699C2.91659 8.32181 3.19641 8.04199 3.54159 8.04199H4.37492V7.00033L4.37491 6.92574C4.37488 6.66411 4.37485 6.41037 4.37828 6.16754C3.4771 6.1714 2.98332 6.2022 2.61564 6.44788C2.43365 6.56947 2.2774 6.72572 2.1558 6.90771C1.87492 7.32808 1.87492 7.91327 1.87492 9.08366V19.7087H1.45825C1.11307 19.7087 0.833252 19.9885 0.833252 20.3337C0.833252 20.6788 1.11307 20.9587 1.45825 20.9587H18.1249C18.4701 20.9587 18.7499 20.6788 18.7499 20.3337C18.7499 19.9885 18.4701 19.7087 18.1249 19.7087H17.7083V9.08366ZM7.49992 11.792C7.49992 11.4468 7.77974 11.167 8.12492 11.167H11.4583C11.8034 11.167 12.0833 11.4468 12.0833 11.792C12.0833 12.1372 11.8034 12.417 11.4583 12.417H8.12492C7.77974 12.417 7.49992 12.1372 7.49992 11.792ZM7.49992 14.292C7.49992 13.9468 7.77974 13.667 8.12492 13.667H11.4583C11.8034 13.667 12.0833 13.9468 12.0833 14.292C12.0833 14.6372 11.8034 14.917 11.4583 14.917H8.12492C7.77974 14.917 7.49992 14.6372 7.49992 14.292ZM9.79158 17.2087C10.1368 17.2087 10.4166 17.4885 10.4166 17.8337V19.7087H9.16658V17.8337C9.16658 17.4885 9.44641 17.2087 9.79158 17.2087ZM7.49992 7.20866C7.49992 6.86348 7.77974 6.58366 8.12492 6.58366H11.4583C11.8034 6.58366 12.0833 6.86348 12.0833 7.20866C12.0833 7.55384 11.8034 7.83366 11.4583 7.83366H8.12492C7.77974 7.83366 7.49992 7.55384 7.49992 7.20866ZM7.49992 9.70866C7.49992 9.36348 7.77974 9.08366 8.12492 9.08366H11.4583C11.8034 9.08366 12.0833 9.36348 12.0833 9.70866C12.0833 10.0538 11.8034 10.3337 11.4583 10.3337H8.12492C7.77974 10.3337 7.49992 10.0538 7.49992 9.70866Z" fill="white"/>
</svg>
