<svg width="20" height="20" viewBox="0 0 20 20" fill="none" xmlns="http://www.w3.org/2000/svg">
<path d="M19.9968 10.0003C19.9968 15.051 16.2541 19.2264 11.392 19.904C10.9374 19.9671 10.4723 20 10.0001 20C9.45514 20 8.91997 19.9566 8.3988 19.8725C3.63897 19.1059 0.00341797 14.9774 0.00341797 10.0003C0.00341797 4.47745 4.47956 0 10.0008 0C15.5221 0 19.9982 4.47745 19.9982 10.0003H19.9968Z" fill="white"/>
<path d="M11.3924 8.02962V10.2081H14.0865L13.6599 13.1426H11.3924V19.9036C10.9378 19.9667 10.4726 19.9996 10.0005 19.9996C9.45553 19.9996 8.92036 19.9562 8.39919 19.8721V13.1426H5.91455V10.2081H8.39919V7.54264C8.39919 5.88899 9.73923 4.54785 11.3931 4.54785V4.54925C11.398 4.54925 11.4022 4.54785 11.4071 4.54785H14.0872V7.08578H12.336C11.8155 7.08578 11.3931 7.5083 11.3931 8.02892L11.3924 8.02962Z" fill="#366059"/>
</svg>
