<svg width="18" height="14" viewBox="0 0 18 14" fill="none" xmlns="http://www.w3.org/2000/svg">
<path fill-rule="evenodd" clip-rule="evenodd" d="M1.64281 1.30932C0.666504 2.28563 0.666504 3.85698 0.666504 6.99967C0.666504 10.1424 0.666504 11.7137 1.64281 12.69C2.61913 13.6663 4.19047 13.6663 7.33317 13.6663H10.6665C13.8092 13.6663 15.3805 13.6663 16.3569 12.69C17.3332 11.7137 17.3332 10.1424 17.3332 6.99967C17.3332 3.85698 17.3332 2.28563 16.3569 1.30932C15.3805 0.333008 13.8092 0.333008 10.6665 0.333008H7.33317C4.19047 0.333008 2.61913 0.333008 1.64281 1.30932ZM14.48 3.26623C14.701 3.5314 14.6651 3.9255 14.4 4.14648L12.5696 5.67181C11.8309 6.28736 11.2322 6.78627 10.7039 7.12611C10.1534 7.48011 9.6174 7.70374 8.99984 7.70374C8.38227 7.70374 7.84623 7.48011 7.29582 7.12611C6.76743 6.78628 6.16876 6.28737 5.43013 5.67182L3.59972 4.14648C3.33455 3.9255 3.29872 3.5314 3.5197 3.26623C3.74068 3.00105 4.13478 2.96522 4.39995 3.1862L6.19903 4.68544C6.9765 5.33332 7.51628 5.78169 7.97199 6.07478C8.41312 6.3585 8.71228 6.45374 8.99984 6.45374C9.2874 6.45374 9.58655 6.3585 10.0277 6.07478C10.4834 5.78169 11.0232 5.33332 11.8006 4.68543L13.5997 3.1862C13.8649 2.96522 14.259 3.00105 14.48 3.26623Z" fill="white"/>
</svg>
