<svg width="20" height="20" viewBox="0 0 20 20" fill="none" xmlns="http://www.w3.org/2000/svg">
<path d="M10.0232 0H9.97771C4.46907 0 0.00341797 4.46696 0.00341797 9.97723V10.0228C0.00341797 15.533 4.46907 20 9.97771 20H10.0232C15.5319 20 19.9975 15.533 19.9975 10.0228V9.97723C19.9975 4.46696 15.5319 0 10.0232 0Z" fill="white"/>
<path d="M4.77181 6.64715C4.50842 6.40261 4.37744 6.09991 4.37744 5.73975C4.37744 5.3796 4.50913 5.06358 4.77181 4.81834C5.03519 4.57379 5.37423 4.45117 5.78962 4.45117C6.20502 4.45117 6.53075 4.57379 6.79343 4.81834C7.05682 5.06288 7.1878 5.37049 7.1878 5.73975C7.1878 6.10902 7.05612 6.40261 6.79343 6.64715C6.53005 6.8917 6.19591 7.01432 5.78962 7.01432C5.38334 7.01432 5.03519 6.8917 4.77181 6.64715ZM6.96645 8.04995V15.5474H4.59809V8.04995H6.96645Z" fill="#366059"/>
<path d="M14.8499 8.79103C15.3662 9.35159 15.624 10.121 15.624 11.1005V15.4154H13.3747V11.4046C13.3747 10.9106 13.2465 10.5267 12.9909 10.2534C12.7352 9.98011 12.3905 9.84278 11.959 9.84278C11.5275 9.84278 11.1829 9.97941 10.9272 10.2534C10.6715 10.5267 10.5433 10.9106 10.5433 11.4046V15.4154H8.28076V8.02937H10.5433V9.00895C10.7724 8.68242 11.0813 8.42457 11.4694 8.23468C11.8575 8.04479 12.2939 7.9502 12.7793 7.9502C13.6437 7.9502 14.3344 8.23047 14.8499 8.79033V8.79103Z" fill="#366059"/>
</svg>
