<svg width="20" height="20" viewBox="0 0 20 20" fill="none" xmlns="http://www.w3.org/2000/svg">
<path d="M10.0232 0H9.97771C4.46906 0 0.00341797 4.46696 0.00341797 9.97723V10.0228C0.00341797 15.533 4.46906 20 9.97771 20H10.0232C15.5319 20 19.9975 15.533 19.9975 10.0228V9.97723C19.9975 4.46696 15.5319 0 10.0232 0Z" fill="white"/>
<path d="M13.0945 4.06934H6.90778C5.19858 4.06934 3.80811 5.46022 3.80811 7.16992V12.8316C3.80811 14.5413 5.19858 15.9321 6.90778 15.9321H13.0945C14.8037 15.9321 16.1942 14.5413 16.1942 12.8316V7.16992C16.1942 5.46022 14.8037 4.06934 13.0945 4.06934ZM4.90157 7.16992C4.90157 6.06352 5.8017 5.16312 6.90778 5.16312H13.0945C14.2006 5.16312 15.1007 6.06352 15.1007 7.16992V12.8316C15.1007 13.938 14.2006 14.8384 13.0945 14.8384H6.90778C5.8017 14.8384 4.90157 13.938 4.90157 12.8316V7.16992Z" fill="#366059"/>
<path d="M10.0009 12.8834C11.5903 12.8834 12.8841 11.5899 12.8841 9.9993C12.8841 8.40872 11.591 7.11523 10.0009 7.11523C8.41078 7.11523 7.11768 8.40872 7.11768 9.9993C7.11768 11.5899 8.41078 12.8834 10.0009 12.8834ZM10.0009 8.20972C10.9879 8.20972 11.7907 9.01272 11.7907 10C11.7907 10.9873 10.9879 11.7903 10.0009 11.7903C9.01391 11.7903 8.21114 10.9873 8.21114 10C8.21114 9.01272 9.01391 8.20972 10.0009 8.20972Z" fill="#366059"/>
<path d="M13.1514 7.58149C13.5794 7.58149 13.9282 7.23325 13.9282 6.80442C13.9282 6.37559 13.5801 6.02734 13.1514 6.02734C12.7227 6.02734 12.3745 6.37559 12.3745 6.80442C12.3745 7.23325 12.7227 7.58149 13.1514 7.58149Z" fill="white"/>
</svg>
