<svg width="16" height="15" viewBox="0 0 16 15" fill="none" xmlns="http://www.w3.org/2000/svg">
<path d="M10.797 9.75546L10.4174 10.1328C10.4174 10.1328 9.51527 11.0299 7.05276 8.58136C4.59026 6.13284 5.49242 5.2358 5.49242 5.2358L5.73143 4.99815C6.32022 4.41269 6.37573 3.47275 5.86203 2.78656L4.81121 1.38289C4.1754 0.533589 2.94679 0.421396 2.21804 1.14602L0.910037 2.44659C0.548687 2.80589 0.306539 3.27165 0.335902 3.78833C0.411025 5.11018 1.00909 7.95421 4.3463 11.2725C7.88528 14.7914 11.2059 14.9312 12.5637 14.8046C12.9932 14.7646 13.3668 14.5458 13.6678 14.2465L14.8516 13.0695C15.6506 12.2749 15.4253 10.9128 14.4029 10.357L12.8108 9.4915C12.1395 9.12656 11.3216 9.23377 10.797 9.75546Z" fill="white"/>
</svg>
