<svg width="20" height="20" viewBox="0 0 20 20" fill="none" xmlns="http://www.w3.org/2000/svg">
<path d="M19.9968 10.0003C19.9968 15.051 16.2541 19.2264 11.392 19.904C10.9374 19.9671 10.4723 20 10.0001 20C9.45514 20 8.91996 19.9566 8.3988 19.8725C3.63896 19.1059 0.00341797 14.9774 0.00341797 10.0003C0.00341797 4.47745 4.47955 0 10.0008 0C15.5221 0 19.9982 4.47745 19.9982 10.0003H19.9968Z" fill="white"/>
<path d="M4.05753 4.41113L8.66816 10.5773L4.02881 15.5908H5.07324L9.13539 11.2016L12.4172 15.5908H15.9708L11.101 9.07777L15.4195 4.41113H14.3751L10.6344 8.45345L7.61182 4.41113H4.05822H4.05753ZM5.593 5.1805H7.22515L14.4339 14.8214H12.8018L5.593 5.1805Z" fill="#366059"/>
</svg>
