<svg width="20" height="20" viewBox="0 0 20 20" fill="none" xmlns="http://www.w3.org/2000/svg">
<path d="M10.0232 0H9.97771C4.46906 0 0.00341797 4.46696 0.00341797 9.97723V10.0228C0.00341797 15.533 4.46906 20 9.97771 20H10.0232C15.5319 20 19.9975 15.533 19.9975 10.0228V9.97723C19.9975 4.46696 15.5319 0 10.0232 0Z" fill="white"/>
<path d="M11.9486 12.9248C9.38969 12.9248 7.30783 10.8416 7.30713 8.28194C7.30783 7.6331 7.836 7.10547 8.48326 7.10547C8.5498 7.10547 8.61564 7.11107 8.67869 7.12228C8.81738 7.14541 8.94908 7.19236 9.07027 7.26313C9.08778 7.27364 9.09969 7.29046 9.10249 7.31008L9.37288 9.01487C9.37638 9.03449 9.37008 9.05481 9.35677 9.06952C9.20756 9.23489 9.01703 9.35401 8.80478 9.41357L8.70251 9.4423L8.74103 9.54109C9.08988 10.4296 9.80018 11.1394 10.6891 11.4897L10.7879 11.529L10.8166 11.4267C10.8761 11.2144 10.9952 11.0238 11.1605 10.8745C11.1724 10.8633 11.1886 10.8577 11.2047 10.8577C11.2082 10.8577 11.2117 10.8577 11.2159 10.8584L12.9202 11.1289C12.9405 11.1324 12.9573 11.1436 12.9678 11.1611C13.0378 11.2823 13.0848 11.4148 13.1086 11.5535C13.1198 11.6152 13.1247 11.6803 13.1247 11.7483C13.1247 12.3964 12.5972 12.9241 11.9486 12.9248Z" fill="#366059"/>
<path d="M16.4865 9.43793C16.3485 7.87818 15.634 6.43124 14.4747 5.36408C13.3084 4.29061 11.7953 3.69922 10.2129 3.69922C6.7399 3.69922 3.91412 6.52583 3.91412 9.99989C3.91412 11.1658 4.23564 12.3017 4.84437 13.2911L3.48682 16.2971L7.83337 15.8339C8.5892 16.1436 9.38915 16.3006 10.2122 16.3006C10.4287 16.3006 10.6507 16.2893 10.8735 16.2662C11.0696 16.2452 11.2679 16.2144 11.4626 16.1751C14.3711 15.5872 16.4942 13.0052 16.511 10.0335V9.99989C16.511 9.8107 16.5026 9.62151 16.4858 9.43863L16.4865 9.43793ZM8.00078 14.5145L5.596 14.7709L6.31401 13.1797L6.1704 12.987C6.15989 12.9729 6.14939 12.9589 6.13748 12.9428C5.51404 12.0817 5.18481 11.0642 5.18481 10.0006C5.18481 7.22723 7.44039 4.97099 10.2129 4.97099C12.8104 4.97099 15.012 6.9981 15.2242 9.58578C15.2355 9.72451 15.2418 9.86395 15.2418 10.0013C15.2418 10.0405 15.2411 10.0791 15.2404 10.1204C15.1871 12.4404 13.5669 14.4108 11.3001 14.9125C11.1271 14.951 10.9498 14.9804 10.7733 14.9994C10.5898 15.0204 10.4014 15.0309 10.2143 15.0309C9.54817 15.0309 8.90091 14.902 8.28939 14.6469C8.22144 14.6196 8.15489 14.5902 8.09254 14.56L8.00149 14.5159L8.00078 14.5145Z" fill="#366059"/>
</svg>
