<svg width="40" height="40" viewBox="0 0 40 40" fill="none" xmlns="http://www.w3.org/2000/svg">
<path d="M20 5C20.3438 5 20.625 4.71875 20.625 4.375V1.875C20.625 1.53125 20.3438 1.25 20 1.25C19.6562 1.25 19.375 1.53125 19.375 1.875V4.375C19.375 4.71875 19.6562 5 20 5Z" fill="#2164F8"/>
<path d="M29.725 5.64375L27.9562 7.4125C27.7125 7.65625 27.7125 8.05 27.9562 8.29375C28.0812 8.41875 28.2375 8.475 28.4 8.475C28.5625 8.475 28.7188 8.4125 28.8438 8.29375L30.6125 6.525C30.8562 6.28125 30.8562 5.8875 30.6125 5.64375C30.3687 5.4 29.975 5.4 29.7312 5.64375H29.725Z" fill="#2164F8"/>
<path d="M11.163 24.2062L9.39424 25.975C9.15049 26.2188 9.15049 26.6125 9.39424 26.8563C9.51924 26.9813 9.67549 27.0375 9.83799 27.0375C10.0005 27.0375 10.1567 26.975 10.2817 26.8563L12.0505 25.0875C12.2942 24.8437 12.2942 24.45 12.0505 24.2062C11.8067 23.9625 11.413 23.9625 11.1692 24.2062H11.163Z" fill="#2164F8"/>
<path d="M34.375 15.625H31.875C31.5312 15.625 31.25 15.9062 31.25 16.25C31.25 16.5938 31.5312 16.875 31.875 16.875H34.375C34.7188 16.875 35 16.5938 35 16.25C35 15.9062 34.7188 15.625 34.375 15.625Z" fill="#2164F8"/>
<path d="M8.125 15.625H5.625C5.28125 15.625 5 15.9062 5 16.25C5 16.5938 5.28125 16.875 5.625 16.875H8.125C8.46875 16.875 8.75 16.5938 8.75 16.25C8.75 15.9062 8.46875 15.625 8.125 15.625Z" fill="#2164F8"/>
<path d="M28.8375 24.2063C28.5937 23.9625 28.2 23.9625 27.9562 24.2063C27.7125 24.45 27.7125 24.8438 27.9562 25.0875L29.725 26.8563C29.85 26.9813 30.0063 27.0375 30.1688 27.0375C30.3313 27.0375 30.4875 26.975 30.6125 26.8563C30.8563 26.6125 30.8563 26.2188 30.6125 25.975L28.8438 24.2063H28.8375Z" fill="#2164F8"/>
<path d="M11.1621 8.29375C11.2871 8.41875 11.4434 8.475 11.6059 8.475C11.7684 8.475 11.9246 8.4125 12.0496 8.29375C12.2934 8.05 12.2934 7.65625 12.0496 7.4125L10.2809 5.64375C10.0371 5.4 9.64336 5.4 9.39961 5.64375C9.15586 5.8875 9.15586 6.28125 9.39961 6.525L11.1684 8.29375H11.1621Z" fill="#2164F8"/>
<path d="M25.7556 24.4251C28.4118 22.5501 29.9993 19.4939 29.9993 16.2501C29.9993 13.4939 28.8993 10.9251 26.9056 9.01888C24.9118 7.11263 22.2931 6.13138 19.5243 6.26263C14.3931 6.50013 10.2118 10.7064 10.0056 15.8439C9.87434 19.2564 11.4618 22.4689 14.2556 24.4314C14.7243 24.7626 14.9993 25.3189 14.9993 25.9251V27.2251C14.2556 27.6564 13.7493 28.4564 13.7493 29.3751C13.7493 30.1251 14.0868 30.7939 14.6118 31.2501C14.0868 31.7064 13.7493 32.3751 13.7493 33.1251C13.7493 34.5064 14.8681 35.6251 16.2493 35.6251H16.8743C16.8743 37.3501 18.2743 38.7501 19.9993 38.7501C21.7243 38.7501 23.1243 37.3501 23.1243 35.6251H23.7493C25.1306 35.6251 26.2493 34.5064 26.2493 33.1251C26.2493 32.3751 25.9118 31.7064 25.3868 31.2501C25.9118 30.7939 26.2493 30.1251 26.2493 29.3751C26.2493 28.4564 25.7431 27.6564 24.9993 27.2251V25.9251C24.9993 25.3189 25.2806 24.7564 25.7556 24.4251ZM21.6681 16.8751H18.3368C17.5306 16.8751 16.8806 16.2439 16.8806 15.4689V13.9064C16.8806 13.1314 17.5368 12.5001 18.3368 12.5001H19.3806V11.8751C19.3806 11.5314 19.6618 11.2501 20.0056 11.2501C20.3493 11.2501 20.6306 11.5314 20.6306 11.8751V12.5001H22.5056C22.8493 12.5001 23.1306 12.7814 23.1306 13.1251C23.1306 13.4689 22.8493 13.7501 22.5056 13.7501H18.3368C18.2243 13.7501 18.1306 13.8189 18.1306 13.9064V15.4689C18.1306 15.5564 18.2243 15.6251 18.3368 15.6251H21.6681C22.4743 15.6251 23.1243 16.2564 23.1243 17.0314V18.5939C23.1243 19.3689 22.4681 20.0001 21.6681 20.0001H20.6243V20.6251C20.6243 20.9689 20.3431 21.2501 19.9993 21.2501C19.6556 21.2501 19.3743 20.9689 19.3743 20.6251V20.0001H17.4993C17.1556 20.0001 16.8743 19.7189 16.8743 19.3751C16.8743 19.0314 17.1556 18.7501 17.4993 18.7501H21.6681C21.7806 18.7501 21.8743 18.6814 21.8743 18.5939V17.0314C21.8743 16.9439 21.7806 16.8751 21.6681 16.8751ZM23.7493 34.3751H16.2493C15.5618 34.3751 14.9993 33.8126 14.9993 33.1251C14.9993 32.4376 15.5618 31.8751 16.2493 31.8751H23.7493C24.4368 31.8751 24.9993 32.4376 24.9993 33.1251C24.9993 33.8126 24.4368 34.3751 23.7493 34.3751ZM23.7493 30.6251H16.2493C15.5618 30.6251 14.9993 30.0626 14.9993 29.3751C14.9993 28.6876 15.5618 28.1251 16.2493 28.1251H23.7493C24.4368 28.1251 24.9993 28.6876 24.9993 29.3751C24.9993 30.0626 24.4368 30.6251 23.7493 30.6251Z" fill="#2164F8"/>
</svg>
