<svg width="34" height="29" viewBox="0 0 34 29" fill="none" xmlns="http://www.w3.org/2000/svg">
<path d="M30.9678 3.16665C29.4928 1.68907 27.5591 0.757118 25.4844 0.523902C23.4097 0.290686 21.3173 0.770076 19.5511 1.88331L23.2511 5.64998C23.3989 5.81356 23.5128 6.00483 23.5862 6.21274C23.6596 6.42064 23.691 6.64103 23.6786 6.86115C23.6662 7.08127 23.6102 7.29674 23.514 7.49509C23.4177 7.69343 23.283 7.87071 23.1178 8.01665C22.8096 8.28843 22.412 8.43681 22.0011 8.43331C21.7657 8.43511 21.5327 8.38702 21.3172 8.29222C21.1017 8.19742 20.9088 8.05806 20.7511 7.88331L16.0511 3.16665C15.3771 2.49328 14.6009 1.93077 13.7511 1.49998C12.0174 0.611796 10.0472 0.294701 8.12229 0.594057C6.19743 0.893413 4.41656 1.79388 3.03445 3.16665C1.30495 5.17977 0.354004 7.74595 0.354004 10.4C0.354004 13.054 1.30495 15.6202 3.03445 17.6333C6.13445 20.9666 13.6678 28.6833 17.0511 28.6833C19.6845 28.6833 24.8511 24 28.4345 20.35C29.3345 19.45 30.1011 18.6833 30.7678 17.9333L31.0178 17.6666C32.7493 15.6452 33.6968 13.0689 33.6876 10.4074C33.6784 7.74576 32.7132 5.17607 30.9678 3.16665ZM20.3345 17.5H18.6678V19.1666C18.6678 19.6087 18.4922 20.0326 18.1796 20.3452C17.8671 20.6577 17.4431 20.8333 17.0011 20.8333C16.5591 20.8333 16.1352 20.6577 15.8226 20.3452C15.51 20.0326 15.3345 19.6087 15.3345 19.1666V17.5H13.6678C13.2258 17.5 12.8018 17.3244 12.4893 17.0118C12.1767 16.6993 12.0011 16.2753 12.0011 15.8333C12.0011 15.3913 12.1767 14.9674 12.4893 14.6548C12.8018 14.3422 13.2258 14.1666 13.6678 14.1666H15.3345V12.5C15.3345 12.058 15.51 11.634 15.8226 11.3215C16.1352 11.0089 16.5591 10.8333 17.0011 10.8333C17.4431 10.8333 17.8671 11.0089 18.1796 11.3215C18.4922 11.634 18.6678 12.058 18.6678 12.5V14.1666H20.3345C20.7765 14.1666 21.2004 14.3422 21.513 14.6548C21.8255 14.9674 22.0011 15.3913 22.0011 15.8333C22.0011 16.2753 21.8255 16.6993 21.513 17.0118C21.2004 17.3244 20.7765 17.5 20.3345 17.5Z" fill="white"/>
</svg>
