<svg width="40" height="40" viewBox="0 0 40 40" fill="none" xmlns="http://www.w3.org/2000/svg">
<path d="M20 2.5C16.5388 2.5 13.1554 3.52636 10.2775 5.44928C7.39967 7.37221 5.15665 10.1053 3.83212 13.303C2.50758 16.5007 2.16102 20.0194 2.83627 23.4141C3.51151 26.8087 5.17822 29.9269 7.62564 32.3744C10.0731 34.8218 13.1913 36.4885 16.5859 37.1637C19.9806 37.839 23.4993 37.4924 26.697 36.1679C29.8947 34.8434 32.6278 32.6003 34.5507 29.7225C36.4737 26.8446 37.5 23.4612 37.5 20C37.4948 15.3603 35.6494 10.9121 32.3686 7.63137C29.0879 4.35061 24.6397 2.50519 20 2.5ZM20 7.5C22.6596 7.49564 25.2508 8.34268 27.3943 9.91715C29.5379 11.4916 31.1212 13.7108 31.9125 16.25H27.8125L26.875 15C26.5831 14.6128 26.2055 14.2984 25.7718 14.0815C25.338 13.8646 24.8599 13.7512 24.375 13.75H15.625C15.1401 13.7511 14.662 13.8645 14.2282 14.0814C13.7945 14.2983 13.4169 14.6127 13.125 15L12.1875 16.25H8.08751C8.87896 13.7109 10.4623 11.4917 12.6058 9.91729C14.7493 8.34285 17.3404 7.49576 20 7.5ZM16.875 32.1024C14.6101 31.5162 12.5555 30.3057 10.9451 28.6086C9.33481 26.9115 8.2336 24.7962 7.76701 22.5037C10.2053 22.576 12.5196 23.5947 14.2198 25.344C15.9199 27.0932 16.8722 29.4357 16.875 31.875V32.1024ZM20 25C19.2583 25 18.5333 24.7801 17.9166 24.368C17.2999 23.956 16.8193 23.3703 16.5355 22.6851C16.2516 21.9998 16.1774 21.2458 16.3221 20.5184C16.4668 19.791 16.8239 19.1228 17.3484 18.5983C17.8728 18.0739 18.541 17.7167 19.2684 17.5721C19.9958 17.4274 20.7498 17.5016 21.4351 17.7855C22.1203 18.0693 22.706 18.5499 23.118 19.1666C23.5301 19.7833 23.75 20.5083 23.75 21.25C23.7489 22.2442 23.3535 23.1974 22.6505 23.9004C21.9474 24.6035 20.9942 24.9989 20 25ZM23.125 32.1024V31.875C23.1279 29.4357 24.0803 27.0933 25.7805 25.344C27.4806 23.5947 29.795 22.576 32.2333 22.5037C31.7668 24.7963 30.6656 26.9117 29.0552 28.6088C27.4448 30.3059 25.39 31.5164 23.125 32.1024Z" fill="#2164F8"/>
<path d="M20 23.75C21.3807 23.75 22.5 22.6307 22.5 21.25C22.5 19.8693 21.3807 18.75 20 18.75C18.6193 18.75 17.5 19.8693 17.5 21.25C17.5 22.6307 18.6193 23.75 20 23.75Z" fill="#2164F8"/>
</svg>
