<svg width="40" height="40" viewBox="0 0 40 40" fill="none" xmlns="http://www.w3.org/2000/svg">
<g clip-path="url(#clip0_664_410)">
<path fill-rule="evenodd" clip-rule="evenodd" d="M11.9109 12.413C11.901 12.388 11.8927 12.3623 11.886 12.3362L9.84969 6.06905C9.72938 5.68115 9.48677 5.3426 9.15811 5.10402C8.82946 4.86543 8.43241 4.73961 8.02633 4.74538H0.625C0.45924 4.74538 0.300269 4.67953 0.183058 4.56232C0.065848 4.44511 0 4.28614 0 4.12038C0 3.95462 0.065848 3.79564 0.183058 3.67843C0.300269 3.56122 0.45924 3.49538 0.625 3.49538H8.02633C8.69595 3.49044 9.34953 3.70019 9.89122 4.09387C10.4329 4.48755 10.8342 5.04444 11.0363 5.68288L12.9446 11.5564H15.8005C15.7459 11.9713 15.7459 12.3915 15.8005 12.8064C15.9598 15.3857 17.0967 17.8072 18.9795 19.5773C20.8622 21.3474 23.3492 22.3329 25.9334 22.3329C28.5176 22.3329 31.0045 21.3474 32.8873 19.5773C34.77 17.8072 35.9069 15.3857 36.0662 12.8064C36.0941 12.3902 36.0941 11.9726 36.0662 11.5564H39.375C39.4771 11.5564 39.5776 11.5813 39.6678 11.6291C39.758 11.6769 39.8351 11.7461 39.8924 11.8306C39.9497 11.915 39.9854 12.0122 39.9965 12.1137C40.0075 12.2152 39.9935 12.3178 39.9558 12.4126L35.3542 26.5744C35.3135 26.6996 35.2342 26.8088 35.1276 26.8862C35.0211 26.9637 34.8927 27.0054 34.761 27.0055V27.0065H17.1057C17.0701 27.0065 17.0345 27.0035 16.9994 26.9975C16.9643 27.0035 16.9288 27.0065 16.8932 27.0065C16.373 27.0065 15.874 27.2131 15.5062 27.581C15.1383 27.9489 14.9316 28.4478 14.9316 28.968C14.9316 29.4883 15.1383 29.9872 15.5062 30.3551C15.874 30.7229 16.373 30.9296 16.8932 30.9296H35.0123C35.178 30.9296 35.337 30.9954 35.4542 31.1127C35.5714 31.2299 35.6373 31.3888 35.6373 31.5546C35.6373 31.7204 35.5714 31.8793 35.4542 31.9965C35.337 32.1137 35.178 32.1796 35.0123 32.1796H34.0871C34.4135 32.5926 34.617 33.0893 34.6743 33.6126C34.7315 34.1359 34.6401 34.6648 34.4107 35.1386C34.1812 35.6124 33.8229 36.0121 33.3769 36.2917C32.9308 36.5713 32.415 36.7196 31.8885 36.7196C31.3621 36.7196 30.8462 36.5713 30.4002 36.2917C29.9541 36.0121 29.5958 35.6124 29.3664 35.1386C29.1369 34.6648 29.0456 34.1359 29.1028 33.6126C29.16 33.0893 29.3635 32.5926 29.6899 32.1796H22.1562C22.4827 32.5926 22.6862 33.0893 22.7435 33.6126C22.8008 34.136 22.7094 34.6649 22.48 35.1388C22.2505 35.6126 21.8922 36.0122 21.4461 36.2919C21 36.5715 20.4842 36.7198 19.9577 36.7198C19.4312 36.7198 18.9154 36.5715 18.4693 36.2919C18.0232 36.0122 17.6649 35.6126 17.4354 35.1388C17.206 34.6649 17.1146 34.136 17.1719 33.6126C17.2291 33.0893 17.4327 32.5926 17.7591 32.1796H16.8932C16.0969 32.178 15.3295 31.8807 14.74 31.3453C14.1505 30.81 13.7809 30.0747 13.7029 29.2822C13.6248 28.4897 13.8439 27.6965 14.3177 27.0564C14.7914 26.4164 15.486 25.9751 16.2667 25.8182L11.9109 12.413ZM18.0501 16.3203H21.2018C20.9509 15.1649 20.8085 13.9887 20.7763 12.8069H17.0532C17.1375 14.0346 17.4771 15.2312 18.0501 16.3203ZM22.4829 16.3203H29.3838C29.6543 15.1676 29.8071 13.9904 29.8399 12.8069H22.0268C22.0596 13.9904 22.2124 15.1676 22.4829 16.3203ZM22.8465 17.5703C22.9729 17.938 23.1196 18.2984 23.286 18.6498C24.0029 20.1537 24.9423 21.0838 25.9334 21.0838C26.9245 21.0838 27.8639 20.1537 28.5807 18.6498C28.7471 18.2984 28.8939 17.938 29.0203 17.5703H22.8465ZM18.847 17.5703C19.9036 18.9584 21.3437 20.0066 22.9893 20.5854C22.6672 20.1475 22.3888 19.6791 22.158 19.1869C21.9113 18.6636 21.7022 18.1234 21.5323 17.5703H18.847ZM30.3345 17.5703C30.1645 18.1234 29.9554 18.6636 29.7087 19.1869C29.4779 19.6791 29.1995 20.1475 28.8774 20.5854C30.5231 20.0067 31.9632 18.9585 33.0197 17.5703H30.3345ZM30.665 16.3203H33.8167C34.3897 15.2312 34.7292 14.0346 34.8135 12.8069H31.0905C31.0583 13.9887 30.9158 15.1649 30.665 16.3203ZM22.0268 11.5568H29.8399C29.8071 10.3732 29.6543 9.19605 29.3838 8.04334H22.483C22.2124 9.19604 22.0596 10.3732 22.0268 11.5568ZM31.0905 11.5568H34.8135C34.7292 10.3291 34.3897 9.13242 33.8166 8.04334H30.665C30.9158 9.1987 31.0583 10.3749 31.0905 11.5568ZM20.7763 11.5568C20.8085 10.3749 20.9509 9.1987 21.2018 8.04334H18.0501C17.4771 9.13244 17.1376 10.3291 17.0532 11.5568H20.7763ZM29.0202 6.79334C28.8938 6.42565 28.7471 6.06525 28.5807 5.71381C27.8639 4.20999 26.9245 3.27991 25.9334 3.27991C24.9423 3.27991 24.0029 4.20999 23.286 5.71381C23.1197 6.06525 22.9729 6.42565 22.8465 6.79334H29.0202ZM33.0197 6.79334C31.9631 5.40525 30.5231 4.35709 28.8774 3.77834C29.1995 4.21622 29.4779 4.68461 29.7086 5.17678C29.9554 5.70009 30.1646 6.24034 30.3345 6.79342L33.0197 6.79334ZM21.5323 6.79334C21.7022 6.24026 21.9113 5.70001 22.1581 5.1767C22.3888 4.68453 22.6672 4.21615 22.9893 3.77827C21.3436 4.35701 19.9036 5.40518 18.847 6.79327L21.5323 6.79334Z" fill="#2164F8"/>
</g>
<defs>
<clipPath id="clip0_664_410">
<rect width="40" height="40" fill="white"/>
</clipPath>
</defs>
</svg>
