<svg width="40" height="40" viewBox="0 0 40 40" fill="none" xmlns="http://www.w3.org/2000/svg">
<path d="M27.32 4.52759C26.6325 4.52759 26.0752 5.08493 26.0752 5.77243C26.0752 6.45993 26.6325 7.01728 27.32 7.01728C29.264 7.01728 30.8456 8.59876 30.8456 10.5427C30.8456 11.2302 31.4029 11.7876 32.0904 11.7876C32.7779 11.7876 33.3353 11.2302 33.3353 10.5427C33.3351 7.22595 30.6368 4.52759 27.32 4.52759Z" fill="#2164F8"/>
<path d="M27.32 0C26.6325 0 26.0752 0.557344 26.0752 1.24484C26.0752 1.93234 26.6325 2.48969 27.32 2.48969C31.7605 2.48969 35.3731 6.10227 35.3731 10.5427C35.3731 11.2302 35.9304 11.7876 36.6179 11.7876C37.3054 11.7876 37.8628 11.2302 37.8628 10.5427C37.8627 4.72938 33.1332 0 27.32 0Z" fill="#2164F8"/>
<path d="M14.8561 26.767C16.8776 26.767 18.5164 25.1283 18.5164 23.1067C18.5164 21.0852 16.8776 19.4464 14.8561 19.4464C12.8346 19.4464 11.1958 21.0852 11.1958 23.1067C11.1958 25.1283 12.8346 26.767 14.8561 26.767Z" fill="#2164F8"/>
<path d="M24.9744 14.6573L26.9747 12.657C27.4609 12.1708 27.4609 11.3827 26.9747 10.8966C26.4886 10.4104 25.7004 10.4104 25.2143 10.8966L23.214 12.8969L15.4603 5.14324C15.1021 4.78504 14.5145 4.80652 14.1838 5.19035C11.1455 8.71785 10.3488 13.6049 11.6896 17.8378C12.6745 17.2434 13.8384 16.9168 15.0799 16.9608C18.2534 17.0734 20.8468 19.6328 21.0002 22.8046C21.0594 24.0291 20.7563 25.1795 20.1918 26.1614C24.3605 27.3914 29.1119 26.5554 32.5693 23.5736C32.9524 23.2432 32.973 22.6559 32.6152 22.2982L24.9744 14.6573Z" fill="#2164F8"/>
<path d="M19.3757 27.2728C18.2512 28.4917 16.6419 29.2568 14.8568 29.2568C13.0858 29.2568 11.4882 28.5033 10.365 27.3012L7.44043 34.5322H22.2389L19.3757 27.2728Z" fill="#2164F8"/>
<path d="M26.0892 37.0217H3.62439C2.8033 37.0217 2.13525 37.6898 2.13525 38.5109C2.13525 39.332 2.8033 40 3.62439 40H26.0892C26.9103 40 27.5783 39.332 27.5783 38.5109C27.5782 37.6898 26.9103 37.0217 26.0892 37.0217Z" fill="#2164F8"/>
</svg>
