<svg width="40" height="40" viewBox="0 0 40 40" fill="none" xmlns="http://www.w3.org/2000/svg">
<path d="M37.3118 2.99223C37.2805 2.85161 37.1712 2.74223 37.0384 2.70317C32.4602 1.58598 21.8899 5.57036 16.1634 11.2969C15.1399 12.3125 14.2102 13.4141 13.3821 14.586C11.6165 14.4297 9.85086 14.5625 8.34305 15.2188C4.09305 17.086 2.85867 21.9688 2.50711 24.0625C2.4368 24.4688 2.71023 24.8594 3.1243 24.9297C3.19461 24.9375 3.26492 24.9454 3.33523 24.9375L10.1555 24.1875C10.1634 24.7032 10.1946 25.2188 10.2493 25.7266C10.2805 26.0782 10.4446 26.4141 10.6946 26.6641L13.3352 29.2969C13.5852 29.5469 13.9212 29.711 14.2727 29.7422C14.7805 29.7969 15.2884 29.8282 15.804 29.836L15.054 36.6485C15.0071 37.0625 15.3118 37.4375 15.7259 37.4766C15.7962 37.4844 15.8665 37.4844 15.929 37.4688C18.0227 37.1329 22.9134 35.8985 24.7727 31.6485C25.429 30.1407 25.5618 28.3829 25.4134 26.625C26.593 25.7969 27.6946 24.8594 28.7102 23.8438C34.4524 18.1329 38.4134 7.79692 37.3118 2.99223ZM28.2727 17.0235C26.8118 18.4844 24.4368 18.4922 22.9759 17.0235C21.5071 15.5625 21.5071 13.1875 22.9759 11.7188C24.4368 10.25 26.8118 10.25 28.2805 11.7188C29.7415 13.1875 29.7415 15.5625 28.2727 17.0235Z" fill="#2164F8"/>
<path d="M13.1562 31.2032C12.7266 31.6329 12.0391 31.797 11.2109 31.9454C9.35156 32.2579 7.71094 30.6563 8.04688 28.7813C8.17188 28.0704 8.55469 27.0704 8.78906 26.836C8.92188 26.7032 8.92969 26.4845 8.79688 26.3517C8.71875 26.2735 8.61719 26.2345 8.50781 26.2501C7.46875 26.3751 6.5 26.8517 5.76563 27.586C3.92188 29.4298 3.75 36.2501 3.75 36.2501C3.75 36.2501 10.5781 36.0782 12.4141 34.2345C13.1562 33.4923 13.625 32.5313 13.75 31.4845C13.7812 31.1642 13.3828 30.9688 13.1562 31.2032Z" fill="#2164F8"/>
</svg>
