<?xml version="1.0" standalone="no"?>
<!DOCTYPE svg PUBLIC "-//W3C//DTD SVG 20010904//EN"
 "http://www.w3.org/TR/2001/REC-SVG-20010904/DTD/svg10.dtd">
<svg version="1.0" xmlns="http://www.w3.org/2000/svg"
 width="930.000000pt" height="711.000000pt" viewBox="0 0 930.000000 711.000000"
 preserveAspectRatio="xMidYMid meet">

<g transform="translate(0.000000,711.000000) scale(0.100000,-0.100000)"
fill="#000000" stroke="none">
<path d="M1490 6632 l0 -68 38 1 37 0 0 45 c0 43 -2 45 -27 45 -23 -1 -28 4
-28 22 0 13 -4 23 -10 23 -6 0 -10 -29 -10 -68z m65 -22 c0 -28 -4 -35 -20
-35 -13 0 -21 8 -23 23 -5 34 5 54 25 50 13 -2 18 -13 18 -38z"/>
<path d="M1060 6625 c0 -37 4 -65 10 -65 6 0 10 19 10 43 0 23 3 52 6 65 5 16
2 22 -10 22 -13 0 -16 -12 -16 -65z"/>
<path d="M1156 6658 c-7 -18 -16 -42 -21 -53 -6 -18 -9 -15 -25 20 -22 49 -26
22 -5 -29 18 -43 29 -40 45 12 20 61 32 63 28 4 -1 -28 0 -52 5 -52 4 0 7 29
7 65 0 72 -13 84 -34 33z"/>
<path d="M1225 6645 c-3 -8 -7 -21 -9 -27 -8 -29 13 -58 43 -58 16 0 33 4 36
10 4 6 -6 7 -25 4 -19 -4 -30 -2 -30 5 0 6 0 14 0 19 -1 4 15 9 33 12 31 4 34
7 26 28 -10 26 -67 32 -74 7z m63 -12 c2 -9 -7 -13 -28 -13 -28 0 -31 2 -20
15 15 18 41 16 48 -2z"/>
<path d="M1330 6608 c0 -26 4 -48 8 -48 5 0 7 12 5 28 -5 31 18 69 35 58 7 -4
13 -26 14 -49 l1 -42 4 37 c4 39 28 67 43 52 5 -5 11 -27 13 -49 3 -33 4 -31
3 10 l-1 50 -62 1 -63 1 0 -49z"/>
<path d="M1600 6636 c-15 -41 3 -76 39 -76 16 0 32 4 35 9 3 5 -9 8 -27 7 -22
-1 -32 3 -32 14 0 10 10 15 33 15 29 0 33 3 30 25 -2 20 -9 26 -36 28 -27 3
-34 -1 -42 -22z m54 8 c27 -10 18 -24 -15 -24 -27 0 -30 2 -19 15 14 17 13 17
34 9z"/>
<path d="M1711 6605 c1 -49 1 -49 8 -13 4 20 13 44 20 52 10 12 9 15 -8 13
-18 -1 -21 -7 -20 -52z"/>
<path d="M1180 6395 c0 -37 4 -65 10 -65 6 0 10 11 10 24 0 21 5 25 38 29 l37
4 -37 1 c-33 2 -38 5 -38 27 0 22 4 25 35 25 19 0 35 5 35 10 0 6 -20 10 -45
10 l-45 0 0 -65z"/>
<path d="M1504 6436 c-14 -15 -5 -93 12 -107 8 -7 18 -8 22 -4 4 4 1 10 -5 12
-17 6 -17 70 -1 75 10 4 9 8 -2 20 -11 11 -18 12 -26 4z"/>
<path d="M1310 6421 c-8 -6 -11 -13 -7 -17 4 -4 12 -3 18 3 12 12 39 7 39 -7
0 -4 -14 -10 -30 -14 -17 -3 -33 -12 -36 -21 -8 -21 15 -48 35 -39 9 4 27 6
41 5 15 0 20 2 13 7 -6 4 -13 25 -15 47 -2 31 -7 41 -23 43 -11 1 -27 -2 -35
-7z m36 -76 c-21 -16 -36 -11 -36 10 0 16 31 25 45 13 6 -6 3 -14 -9 -23z"/>
<path d="M1416 6414 c-9 -8 -16 -26 -16 -39 0 -21 23 -55 36 -55 14 0 44 22
44 32 0 9 -3 9 -12 0 -7 -7 -20 -12 -30 -12 -14 0 -18 8 -18 36 0 36 1 36 31
30 27 -5 30 -4 19 9 -16 19 -35 19 -54 -1z"/>
<path d="M1559 6414 c-12 -15 -11 -18 4 -28 48 -28 53 -35 37 -45 -9 -7 -18
-7 -24 -1 -13 13 -26 13 -26 0 0 -16 49 -23 65 -10 24 20 18 40 -15 51 -40 14
-39 33 1 25 27 -5 30 -4 19 9 -16 20 -44 19 -61 -1z"/>
<path d="M920 6290 c0 -5 5 -10 11 -10 5 0 7 5 4 10 -3 6 -8 10 -11 10 -2 0
-4 -4 -4 -10z"/>
<path d="M970 6290 c0 -5 5 -10 10 -10 6 0 10 5 10 10 0 6 -4 10 -10 10 -5 0
-10 -4 -10 -10z"/>
<path d="M1025 6290 c-3 -5 -1 -10 4 -10 6 0 11 5 11 10 0 6 -2 10 -4 10 -3 0
-8 -4 -11 -10z"/>
<path d="M1080 6290 c0 -5 5 -10 11 -10 5 0 7 5 4 10 -3 6 -8 10 -11 10 -2 0
-4 -4 -4 -10z"/>
<path d="M1135 6290 c-3 -5 -1 -10 4 -10 6 0 11 5 11 10 0 6 -2 10 -4 10 -3 0
-8 -4 -11 -10z"/>
<path d="M1240 6290 c0 -5 5 -10 11 -10 5 0 7 5 4 10 -3 6 -8 10 -11 10 -2 0
-4 -4 -4 -10z"/>
<path d="M1295 6290 c-3 -5 -1 -10 4 -10 6 0 11 5 11 10 0 6 -2 10 -4 10 -3 0
-8 -4 -11 -10z"/>
<path d="M1345 6290 c-3 -5 1 -10 10 -10 9 0 13 5 10 10 -3 6 -8 10 -10 10 -2
0 -7 -4 -10 -10z"/>
<path d="M1400 6290 c0 -5 5 -10 11 -10 5 0 7 5 4 10 -3 6 -8 10 -11 10 -2 0
-4 -4 -4 -10z"/>
<path d="M1455 6290 c-3 -5 -1 -10 4 -10 6 0 11 5 11 10 0 6 -2 10 -4 10 -3 0
-8 -4 -11 -10z"/>
<path d="M1510 6290 c0 -5 5 -10 11 -10 5 0 7 5 4 10 -3 6 -8 10 -11 10 -2 0
-4 -4 -4 -10z"/>
<path d="M1560 6290 c0 -5 5 -10 11 -10 5 0 7 5 4 10 -3 6 -8 10 -11 10 -2 0
-4 -4 -4 -10z"/>
<path d="M1615 6290 c-3 -5 -1 -10 4 -10 6 0 11 5 11 10 0 6 -2 10 -4 10 -3 0
-8 -4 -11 -10z"/>
<path d="M1670 6290 c0 -5 5 -10 11 -10 5 0 7 5 4 10 -3 6 -8 10 -11 10 -2 0
-4 -4 -4 -10z"/>
<path d="M1720 6290 c0 -5 5 -10 11 -10 5 0 7 5 4 10 -3 6 -8 10 -11 10 -2 0
-4 -4 -4 -10z"/>
<path d="M1775 6290 c-3 -5 -1 -10 4 -10 6 0 11 5 11 10 0 6 -2 10 -4 10 -3 0
-8 -4 -11 -10z"/>
<path d="M1880 6290 c0 -5 5 -10 11 -10 5 0 7 5 4 10 -3 6 -8 10 -11 10 -2 0
-4 -4 -4 -10z"/>
<path d="M1935 6290 c-3 -5 -1 -10 4 -10 6 0 11 5 11 10 0 6 -2 10 -4 10 -3 0
-8 -4 -11 -10z"/>
<path d="M1990 6290 c0 -5 5 -10 11 -10 5 0 7 5 4 10 -3 6 -8 10 -11 10 -2 0
-4 -4 -4 -10z"/>
<path d="M2040 6290 c0 -5 5 -10 11 -10 5 0 7 5 4 10 -3 6 -8 10 -11 10 -2 0
-4 -4 -4 -10z"/>
<path d="M880 6270 c0 -5 5 -10 10 -10 6 0 10 5 10 10 0 6 -4 10 -10 10 -5 0
-10 -4 -10 -10z"/>
<path d="M865 6230 c3 -5 8 -10 11 -10 2 0 4 5 4 10 0 6 -5 10 -11 10 -5 0 -7
-4 -4 -10z"/>
<path d="M2095 6230 c3 -5 8 -10 11 -10 2 0 4 5 4 10 0 6 -5 10 -11 10 -5 0
-7 -4 -4 -10z"/>
<path d="M865 6180 c3 -5 8 -10 11 -10 2 0 4 5 4 10 0 6 -5 10 -11 10 -5 0 -7
-4 -4 -10z"/>
<path d="M2095 6180 c3 -5 8 -10 11 -10 2 0 4 5 4 10 0 6 -5 10 -11 10 -5 0
-7 -4 -4 -10z"/>
<path d="M2090 6130 c0 -5 5 -10 10 -10 6 0 10 5 10 10 0 6 -4 10 -10 10 -5 0
-10 -4 -10 -10z"/>
<path d="M5830 6051 c0 -41 4 -71 10 -71 6 0 10 28 10 64 0 36 -4 68 -10 71
-6 4 -10 -20 -10 -64z"/>
<path d="M5870 6110 c0 -5 5 -10 10 -10 6 0 10 5 10 10 0 6 -4 10 -10 10 -5 0
-10 -4 -10 -10z"/>
<path d="M4657 6092 c-21 -23 -22 -76 -1 -96 19 -20 77 -21 93 -3 15 19 2 29
-16 12 -37 -38 -93 8 -73 59 12 32 36 43 61 28 27 -17 48 -14 25 3 -27 20 -70
19 -89 -3z"/>
<path d="M5498 6045 c-15 -36 -22 -65 -18 -65 5 0 12 9 15 20 4 14 15 20 35
20 19 0 33 -7 40 -20 24 -45 25 -15 2 45 -14 36 -31 65 -37 65 -7 0 -23 -29
-37 -65z m62 -7 c0 -5 -11 -8 -25 -8 -29 0 -29 0 -13 35 l12 26 13 -23 c7 -13
12 -26 13 -30z"/>
<path d="M5262 6083 c-8 -8 -9 -13 -2 -13 5 0 10 -20 10 -45 0 -36 4 -45 17
-45 13 0 14 3 5 12 -14 14 -16 60 -3 74 6 5 5 13 -3 20 -8 8 -15 7 -24 -3z"/>
<path d="M6123 6089 c-5 -5 -6 -30 -3 -56 4 -38 9 -48 25 -50 11 -2 14 0 8 3
-15 6 -18 81 -4 86 5 2 3 8 -4 15 -8 7 -16 8 -22 2z"/>
<path d="M868 6073 c7 -3 16 -2 19 1 4 3 -2 6 -13 5 -11 0 -14 -3 -6 -6z"/>
<path d="M4792 6072 c-8 -6 -12 -24 -10 -48 3 -36 6 -39 36 -42 26 -3 34 1 41
20 13 35 -1 73 -30 76 -13 1 -30 -2 -37 -6z m54 -27 c8 -34 -1 -55 -25 -55
-25 0 -39 43 -21 65 19 23 39 18 46 -10z"/>
<path d="M4892 6025 c1 -42 2 -44 5 -13 4 38 25 64 43 53 5 -3 11 -25 12 -48
l1 -42 4 37 c4 39 28 67 43 52 5 -5 11 -27 13 -49 3 -33 4 -31 3 10 l-1 50
-62 0 -63 0 2 -50z"/>
<path d="M5052 6005 c3 -61 5 -70 23 -72 11 -2 14 0 8 3 -7 3 -13 14 -13 25 0
14 7 19 25 19 34 0 53 39 37 75 -10 21 -18 25 -47 23 l-36 -3 3 -70z m63 25
c0 -28 -4 -35 -20 -35 -13 0 -21 8 -23 23 -5 34 5 54 25 50 13 -2 18 -13 18
-38z"/>
<path d="M5164 6035 l1 -50 38 -2 37 -1 0 49 c0 60 -18 65 -22 7 -2 -35 -7
-43 -23 -43 -16 0 -21 9 -26 45 l-7 45 2 -50z"/>
<path d="M5331 6066 c-7 -8 -11 -30 -9 -48 3 -28 7 -33 32 -36 16 -2 33 1 39
7 8 8 3 10 -19 5 -23 -4 -33 -2 -37 10 -5 12 0 16 18 17 50 3 51 4 41 42 -5
21 -49 23 -65 3z m43 -2 c27 -10 18 -24 -15 -24 -27 0 -30 2 -19 15 14 17 13
17 34 9z"/>
<path d="M5610 6009 c0 -44 -4 -69 -12 -73 -7 -3 -4 -5 7 -3 13 1 21 11 23 28
3 22 7 25 29 21 29 -5 43 10 43 49 0 34 -17 48 -58 47 l-32 -1 0 -68z m65 21
c0 -28 -4 -35 -20 -35 -13 0 -21 8 -23 23 -5 34 5 54 25 50 13 -2 18 -13 18
-38z"/>
<path d="M5720 6008 c0 -45 -4 -68 -12 -68 -6 0 -9 -2 -6 -5 12 -13 38 9 38
32 0 21 3 23 14 14 12 -10 19 -8 35 8 40 40 20 91 -34 89 l-35 -1 0 -69z m65
22 c0 -28 -4 -35 -20 -35 -13 0 -21 8 -23 23 -5 34 5 54 25 50 13 -2 18 -13
18 -38z"/>
<path d="M5870 6030 c0 -27 5 -50 10 -50 6 0 10 23 10 50 0 28 -4 50 -10 50
-5 0 -10 -22 -10 -50z"/>
<path d="M5922 6068 c-17 -17 -15 -63 2 -78 19 -15 58 -9 64 10 5 13 3 13 -11
1 -25 -20 -47 -6 -47 29 0 33 26 52 40 29 5 -7 12 -10 17 -6 9 9 -15 27 -37
27 -9 0 -21 -5 -28 -12z"/>
<path d="M6020 6066 c-8 -10 -8 -16 -2 -16 6 0 14 5 17 10 9 15 35 12 35 -4 0
-7 -14 -16 -31 -20 -25 -5 -30 -10 -27 -28 2 -19 9 -23 43 -24 l41 -1 -6 46
c-4 40 -8 46 -31 49 -14 2 -31 -4 -39 -12z m50 -50 c0 -19 -17 -29 -37 -22
-12 5 -13 9 -3 21 16 19 40 19 40 1z"/>
<path d="M6183 6030 c0 -30 2 -43 4 -27 2 15 2 39 0 55 -2 15 -4 2 -4 -28z"/>
<path d="M6218 6055 c-8 -19 -8 -31 0 -51 10 -21 18 -25 45 -22 28 3 32 7 35
36 4 40 -12 62 -44 62 -16 0 -28 -8 -36 -25z m62 0 c7 -9 10 -25 6 -41 -9 -33
-49 -31 -54 4 -7 48 21 69 48 37z"/>
<path d="M6320 6034 c0 -24 5 -46 10 -49 6 -4 10 8 10 28 0 36 21 64 40 52 5
-3 10 -24 10 -46 0 -21 5 -39 10 -39 12 0 13 69 2 87 -4 6 -24 11 -45 10 -37
-1 -37 -1 -37 -43z"/>
<path d="M1060 6030 c-19 -19 -20 -33 -20 -394 0 -413 -2 -399 63 -411 18 -3
204 -5 414 -3 351 3 384 4 400 21 16 15 19 43 23 200 l5 182 412 3 c364 2 413
0 427 -14 14 -13 16 -51 16 -273 0 -216 2 -261 15 -271 13 -11 13 -14 0 -27
-11 -11 -15 -41 -15 -122 0 -89 -3 -111 -17 -122 -13 -11 -97 -15 -430 -17
l-413 -3 0 121 c0 115 -1 122 -25 145 l-24 25 -406 0 c-392 0 -406 -1 -425
-20 -19 -19 -20 -33 -20 -267 0 -137 4 -253 8 -259 21 -32 53 -34 447 -34
l396 0 24 25 c24 23 25 30 25 139 l0 115 406 1 c248 0 413 4 424 10 10 6 21
10 24 10 3 0 6 -305 6 -678 0 -527 -3 -682 -12 -695 -12 -15 -55 -17 -431 -19
l-417 -3 0 142 c0 151 -8 187 -44 197 -11 3 -200 6 -418 6 -385 0 -399 -1
-418 -20 -19 -19 -20 -33 -20 -328 0 -250 3 -312 14 -328 14 -18 32 -19 429
-22 l415 -3 21 27 c19 24 21 40 21 170 l0 143 421 3 c403 3 421 4 435 22 12
17 14 145 14 817 0 712 2 799 16 813 13 14 59 16 350 16 331 0 334 0 334 -21
0 -22 -3 -23 99 11 l53 18 -76 24 c-72 24 -76 24 -76 7 0 -18 -15 -19 -338
-19 -250 0 -341 3 -350 12 -9 9 -12 82 -12 268 0 236 -1 258 -18 273 -17 15
-62 17 -435 17 l-417 0 0 176 c0 170 -6 207 -34 226 -6 4 -194 8 -418 8 -395
0 -409 -1 -428 -20z m839 -14 c8 -9 11 -120 9 -387 l-3 -374 -399 -5 c-264 -3
-407 -2 -420 5 -21 10 -21 18 -24 377 -2 323 0 368 14 382 14 14 64 16 413 16
325 0 401 -3 410 -14z m-8 -976 c18 -10 19 -24 19 -260 0 -236 -1 -250 -19
-260 -30 -16 -769 -13 -801 3 l-25 13 -3 239 c-2 235 -2 240 19 258 19 15 54
17 406 17 246 0 391 -4 404 -10z m7 -1332 c17 -17 17 -619 0 -636 -9 -9 -113
-12 -407 -12 -353 0 -396 2 -413 17 -17 15 -18 38 -18 311 0 261 2 298 17 314
15 17 41 18 413 18 295 0 399 -3 408 -12z"/>
<path d="M1290 5909 c0 -5 5 -7 10 -4 6 3 10 8 10 11 0 2 -4 4 -10 4 -5 0 -10
-5 -10 -11z"/>
<path d="M1580 5910 c0 -5 5 -10 10 -10 6 0 10 5 10 10 0 6 -4 10 -10 10 -5 0
-10 -4 -10 -10z"/>
<path d="M1178 5845 c14 -36 31 -65 37 -65 6 0 23 29 37 65 15 36 22 65 17 65
-6 0 -17 -17 -25 -37 -33 -84 -30 -82 -49 -20 -10 31 -24 57 -31 57 -8 0 -4
-21 14 -65z"/>
<path d="M1360 5882 c-8 -3 -18 -10 -22 -16 -13 -19 -9 -63 6 -76 19 -15 58
-9 64 10 5 13 3 13 -11 1 -20 -16 -47 -8 -47 14 0 11 10 15 36 15 27 0 35 4
32 16 -4 22 -39 43 -58 36z m38 -29 c2 -8 -6 -13 -22 -13 -25 0 -33 10 -19 24
10 10 36 3 41 -11z"/>
<path d="M1661 5881 c-8 -5 -20 -7 -28 -4 -10 4 -13 -7 -13 -46 0 -28 5 -51
10 -51 6 0 10 15 10 33 0 41 13 62 34 54 11 -4 16 -19 16 -47 0 -22 5 -40 10
-40 16 0 12 77 -6 94 -18 19 -15 18 -33 7z"/>
<path d="M1746 5877 c-13 -9 -17 -24 -14 -52 3 -38 5 -40 36 -39 35 2 40 -7
17 -26 -12 -10 -18 -10 -32 1 -14 12 -16 12 -11 -1 2 -8 16 -16 30 -18 21 -3
28 3 37 29 15 45 15 112 -1 106 -7 -2 -20 -1 -29 4 -10 5 -23 3 -33 -4z m48
-30 c8 -12 8 -22 0 -34 -16 -25 -38 -22 -42 5 -7 50 18 67 42 29z"/>
<path d="M1290 5830 c0 -27 5 -50 10 -50 6 0 10 23 10 50 0 28 -4 50 -10 50
-5 0 -10 -22 -10 -50z"/>
<path d="M1434 5858 c4 -13 9 -35 12 -50 10 -42 33 -34 40 13 7 42 24 36 24
-8 0 -21 16 -40 26 -30 12 12 32 97 23 97 -5 0 -12 -14 -16 -30 -7 -37 -23
-50 -23 -18 0 29 -15 52 -28 44 -5 -3 -13 -20 -17 -38 l-8 -33 -10 38 c-6 20
-15 37 -20 37 -5 0 -6 -10 -3 -22z"/>
<path d="M1580 5830 c0 -27 5 -50 10 -50 6 0 10 23 10 50 0 28 -4 50 -10 50
-5 0 -10 -22 -10 -50z"/>
<path d="M1340 5680 c0 -5 5 -10 10 -10 6 0 10 5 10 10 0 6 -4 10 -10 10 -5 0
-10 -4 -10 -10z"/>
<path d="M1200 5616 c0 -36 5 -68 10 -71 6 -4 10 8 10 29 0 34 2 36 35 36 32
0 35 -2 35 -29 0 -17 5 -33 10 -36 6 -4 10 20 10 64 0 41 -4 71 -10 71 -5 0
-10 -13 -10 -30 0 -28 -3 -30 -35 -30 -32 0 -35 2 -35 30 0 17 -4 30 -10 30
-6 0 -10 -28 -10 -64z"/>
<path d="M1483 5659 c-5 -5 -6 -32 -3 -61 4 -40 9 -54 23 -56 9 -2 17 1 17 7
0 6 -4 11 -10 11 -12 0 -13 77 -1 82 5 2 3 8 -4 15 -7 7 -16 8 -22 2z"/>
<path d="M1340 5594 c0 -34 4 -53 10 -49 6 3 10 28 10 56 0 27 -4 49 -10 49
-5 0 -10 -25 -10 -56z"/>
<path d="M1384 5635 c-8 -19 3 -34 32 -45 35 -14 31 -34 -6 -26 -36 7 -41 -11
-5 -20 52 -13 75 40 25 57 -16 6 -30 15 -30 19 0 16 21 23 33 11 17 -17 31
-13 17 4 -16 19 -59 19 -66 0z"/>
<path d="M1542 5638 c-28 -28 -4 -98 33 -98 22 0 45 30 45 59 0 32 -16 51 -45
51 -12 0 -26 -5 -33 -12z m53 -39 c0 -27 -4 -34 -20 -34 -24 0 -35 53 -13 66
22 14 33 4 33 -32z"/>
<path d="M1640 5599 c0 -26 5 -51 10 -54 6 -4 10 10 10 35 0 27 5 43 15 46 23
9 18 22 -10 22 -23 0 -25 -4 -25 -49z"/>
<path d="M1700 5643 c0 -5 8 -30 17 -56 17 -47 17 -49 -1 -63 -11 -8 -17 -17
-13 -20 11 -11 39 19 57 61 27 63 32 85 21 85 -6 0 -16 -19 -23 -41 l-12 -42
-18 42 c-16 38 -28 52 -28 34z"/>
<path d="M1580 5450 c0 -5 5 -10 11 -10 5 0 7 5 4 10 -3 6 -8 10 -11 10 -2 0
-4 -4 -4 -10z"/>
<path d="M1196 5437 c-29 -21 -16 -51 26 -61 44 -11 55 -31 27 -47 -16 -8 -26
-7 -45 6 -20 13 -24 13 -24 1 0 -28 69 -36 94 -10 22 22 5 51 -37 62 -42 11
-50 42 -10 42 16 0 34 -5 41 -12 9 -9 12 -9 12 0 0 13 -31 32 -52 32 -8 0 -22
-6 -32 -13z"/>
<path d="M1314 5394 c-24 -36 -9 -78 30 -82 16 -2 33 1 39 7 16 16 0 26 -18
11 -12 -10 -18 -10 -30 0 -24 20 -17 30 20 30 27 0 35 4 35 18 0 45 -50 56
-76 16z m64 -11 c2 -9 -7 -13 -27 -13 -30 0 -39 9 -24 24 11 10 46 3 51 -11z"/>
<path d="M1419 5411 c-2 -6 -2 -33 0 -59 l5 -47 7 45 c6 42 -3 89 -12 61z"/>
<path d="M1444 5409 c-3 -5 3 -9 13 -9 13 0 22 -13 32 -45 7 -25 19 -45 26
-45 11 0 45 77 45 102 0 23 -21 -7 -31 -45 l-12 -42 -14 41 c-13 40 -46 64
-59 43z"/>
<path d="M1580 5366 c0 -31 4 -55 9 -52 10 7 9 91 -1 102 -5 4 -8 -18 -8 -50z"/>
<path d="M1629 5399 c-20 -20 -19 -48 3 -76 14 -17 43 -16 58 2 15 18 -1 20
-19 3 -10 -11 -15 -9 -27 6 -16 23 -17 35 -4 56 8 13 13 13 31 2 27 -17 40 -5
15 14 -26 19 -32 18 -57 -7z"/>
<path d="M1730 5400 c-22 -22 -25 -42 -10 -71 12 -21 64 -27 75 -8 11 17 -3
23 -20 9 -12 -10 -18 -10 -30 0 -24 20 -17 30 20 30 28 0 35 4 35 20 0 10 -9
24 -19 30 -26 13 -28 13 -51 -10z m58 -17 c2 -9 -7 -13 -27 -13 -30 0 -39 9
-24 24 11 10 46 3 51 -11z"/>
<path d="M1202 4863 l1 -68 6 55 6 55 18 -53 c11 -29 24 -51 29 -50 6 2 19 24
29 48 l18 45 0 -47 c1 -27 6 -48 11 -48 6 0 10 28 10 65 0 82 -19 87 -48 13
l-20 -53 -12 30 c-7 17 -16 40 -21 53 -17 43 -29 23 -27 -45z"/>
<path d="M1510 4865 l0 -65 48 2 c43 1 44 2 10 5 l-38 4 0 60 c0 33 -4 59 -10
59 -6 0 -10 -28 -10 -65z"/>
<path d="M1753 4905 c-8 -9 -9 -16 -3 -20 6 -3 10 -23 10 -45 0 -37 22 -61 35
-40 4 6 2 10 -3 10 -12 0 -21 69 -10 76 8 5 -1 34 -11 34 -3 -1 -12 -7 -18
-15z"/>
<path d="M1360 4854 c24 -55 25 -73 5 -80 -8 -4 -15 -11 -15 -16 0 -28 45 24
66 76 27 68 27 66 15 66 -5 0 -16 -19 -23 -42 l-14 -42 -17 42 c-9 23 -21 42
-27 42 -5 0 0 -21 10 -46z"/>
<path d="M1618 4850 c-1 -28 0 -50 5 -50 4 0 7 23 7 50 0 65 -7 65 -12 0z"/>
<path d="M1662 4888 c-19 -19 -15 -28 23 -44 43 -18 37 -39 -9 -30 -29 5 -30
5 -12 -9 25 -19 41 -19 60 0 21 21 11 41 -27 54 -24 9 -28 14 -19 23 10 10 17
10 33 -1 18 -10 20 -10 17 1 -6 17 -50 22 -66 6z"/>
<path d="M1580 4700 c0 -5 5 -10 11 -10 5 0 7 5 4 10 -3 6 -8 10 -11 10 -2 0
-4 -4 -4 -10z"/>
<path d="M1190 4685 c-20 -24 -3 -52 37 -62 43 -10 52 -27 23 -43 -17 -9 -26
-8 -46 5 -25 16 -33 8 -12 -13 17 -17 64 -15 83 4 14 14 14 19 2 38 -8 11 -27
23 -43 26 -40 7 -46 40 -7 40 16 0 34 -5 41 -12 7 -7 12 -8 12 -2 0 32 -67 47
-90 19z"/>
<path d="M1317 4652 c-43 -48 9 -116 63 -82 8 5 11 12 7 16 -3 4 -13 1 -22 -6
-12 -10 -18 -10 -30 0 -24 20 -17 30 20 30 27 0 35 4 35 18 0 41 -45 55 -73
24z m55 -17 c-2 -10 -30 -15 -45 -7 -4 2 -5 8 -1 13 8 13 50 7 46 -6z"/>
<path d="M1416 4660 c-1 -3 1 -27 5 -55 5 -44 6 -45 7 -13 1 20 9 43 17 52 8
8 15 16 15 18 0 6 -41 4 -44 -2z"/>
<path d="M1470 4666 c0 -23 36 -106 47 -106 13 0 49 98 39 107 -6 6 -35 -57
-37 -79 0 -7 -7 5 -15 27 -14 38 -34 68 -34 51z"/>
<path d="M1580 4616 c0 -31 4 -55 9 -52 10 7 9 91 -2 102 -4 4 -7 -18 -7 -50z"/>
<path d="M1624 4646 c-13 -22 -14 -29 -2 -53 15 -32 49 -41 68 -18 14 17 7 19
-20 5 -15 -8 -21 -6 -30 10 -15 28 -3 60 21 60 10 0 19 -5 19 -11 0 -5 5 -7
12 -3 7 5 5 11 -7 21 -27 19 -42 16 -61 -11z"/>
<path d="M1726 4648 c-9 -12 -16 -30 -16 -40 0 -21 27 -48 48 -48 23 0 48 17
39 26 -3 4 -13 1 -22 -6 -12 -10 -18 -10 -30 0 -24 20 -17 30 20 30 27 0 35 4
35 18 0 43 -49 56 -74 20z m59 -8 c8 -13 -20 -24 -41 -16 -20 8 -9 26 16 26
10 0 22 -5 25 -10z"/>
<path d="M1380 3600 c0 -5 5 -10 10 -10 6 0 10 5 10 10 0 6 -4 10 -10 10 -5 0
-10 -4 -10 -10z"/>
<path d="M1490 3586 c0 -19 -4 -23 -20 -19 -29 8 -50 -14 -50 -52 0 -42 24
-64 51 -47 13 8 19 9 19 1 0 -5 5 -7 10 -4 6 3 10 37 10 76 0 39 -4 69 -10 69
-5 0 -10 -11 -10 -24z m-10 -40 c18 -23 8 -61 -17 -64 -20 -3 -23 1 -23 31 0
47 16 61 40 33z"/>
<path d="M1269 3536 c15 -37 31 -69 34 -73 4 -3 20 24 37 60 33 73 34 77 21
77 -8 0 -16 -16 -42 -85 l-11 -30 -22 54 c-12 30 -27 56 -33 58 -6 2 1 -25 16
-61z"/>
<path d="M1380 3514 c0 -34 4 -53 10 -49 6 3 10 28 10 56 0 27 -4 49 -10 49
-5 0 -10 -25 -10 -56z"/>
<path d="M1542 3558 c-7 -7 -12 -27 -12 -45 0 -36 27 -58 60 -48 29 9 24 24
-6 22 -15 -1 -29 4 -31 11 -3 8 7 12 31 12 38 0 43 8 26 41 -12 21 -50 25 -68
7z m58 -19 c0 -5 -11 -9 -25 -9 -26 0 -34 15 -12 23 16 5 37 -3 37 -14z"/>
<path d="M1652 3558 c-20 -20 -15 -76 9 -88 26 -15 69 11 69 41 0 50 -47 78
-78 47z m48 -12 c18 -23 8 -61 -17 -64 -26 -4 -39 28 -23 58 13 24 23 25 40 6z"/>
<path d="M1100 3300 c0 -39 4 -69 9 -66 4 3 7 29 5 57 -3 60 -2 60 24 -6 11
-28 23 -49 28 -48 4 1 16 21 25 45 l18 43 0 -47 c1 -27 6 -48 11 -48 6 0 10
30 10 71 0 85 -14 88 -46 10 l-21 -53 -19 53 c-29 79 -44 75 -44 -11z"/>
<path d="M1590 3349 c0 -11 -5 -17 -10 -14 -20 12 -49 -6 -55 -35 -10 -45 9
-70 50 -67 l35 2 0 68 c0 38 -4 67 -10 67 -5 0 -10 -9 -10 -21z m-2 -63 c4
-32 -15 -51 -35 -34 -14 11 -18 50 -6 62 15 15 38 -1 41 -28z"/>
<path d="M1368 3348 c-3 -7 -2 -35 1 -63 5 -39 10 -51 26 -54 17 -3 18 -1 6
12 -7 9 -12 33 -11 54 4 51 2 63 -9 63 -5 0 -11 -6 -13 -12z"/>
<path d="M1742 3339 c-8 -12 -8 -19 -2 -19 5 0 10 -20 10 -45 0 -33 4 -45 15
-45 8 0 15 5 15 10 0 6 -4 10 -10 10 -15 0 -12 68 2 72 10 4 9 9 -3 20 -14 14
-17 14 -27 -3z"/>
<path d="M1270 3320 c-46 -46 5 -115 60 -80 8 5 11 12 7 16 -3 4 -13 1 -22 -6
-12 -10 -18 -10 -30 0 -24 20 -17 30 20 30 28 0 35 4 35 20 0 10 -9 24 -19 30
-26 13 -28 13 -51 -10z m53 -15 c-3 -13 -53 -20 -53 -7 0 15 13 23 35 20 11
-2 19 -7 18 -13z"/>
<path d="M1430 3325 c-11 -13 -8 -14 19 -9 25 5 31 3 31 -10 0 -10 -3 -15 -7
-13 -5 3 -18 1 -31 -4 -17 -6 -22 -15 -20 -31 3 -20 9 -23 51 -24 35 -1 46 1
38 9 -6 6 -11 25 -11 42 0 50 -42 74 -70 40z m50 -54 c0 -13 -26 -32 -33 -24
-14 13 -6 33 13 33 11 0 20 -4 20 -9z"/>
<path d="M1653 3333 c-23 -9 -14 -24 11 -17 13 3 27 1 30 -5 4 -6 -7 -14 -26
-19 -26 -6 -33 -13 -33 -33 0 -22 4 -24 48 -25 37 -1 47 2 42 13 -3 8 -5 25
-5 38 0 39 -33 62 -67 48z m47 -62 c0 -5 -7 -14 -15 -21 -18 -15 -42 1 -31 19
8 13 46 15 46 2z"/>
<path d="M1810 3325 c-11 -13 -8 -14 20 -8 25 5 32 3 28 -8 -2 -8 -14 -15 -26
-17 -11 -2 -26 -10 -32 -18 -20 -23 5 -43 50 -41 l38 1 -5 41 c-7 57 -45 83
-73 50z m50 -54 c0 -5 -7 -14 -15 -21 -18 -15 -42 1 -31 19 8 13 46 15 46 2z"/>
<path d="M2095 5970 c3 -5 8 -10 11 -10 2 0 4 5 4 10 0 6 -5 10 -11 10 -5 0
-7 -4 -4 -10z"/>
<path d="M3375 5940 c-3 -5 -1 -10 4 -10 6 0 11 5 11 10 0 6 -2 10 -4 10 -3 0
-8 -4 -11 -10z"/>
<path d="M3430 5940 c0 -5 5 -10 11 -10 5 0 7 5 4 10 -3 6 -8 10 -11 10 -2 0
-4 -4 -4 -10z"/>
<path d="M3640 5940 c0 -5 5 -10 11 -10 5 0 7 5 4 10 -3 6 -8 10 -11 10 -2 0
-4 -4 -4 -10z"/>
<path d="M3955 5940 c-3 -5 -1 -10 4 -10 6 0 11 5 11 10 0 6 -2 10 -4 10 -3 0
-8 -4 -11 -10z"/>
<path d="M5015 5940 c-3 -5 -1 -10 4 -10 6 0 11 5 11 10 0 6 -2 10 -4 10 -3 0
-8 -4 -11 -10z"/>
<path d="M5225 5940 c-3 -5 -1 -10 4 -10 6 0 11 5 11 10 0 6 -2 10 -4 10 -3 0
-8 -4 -11 -10z"/>
<path d="M5755 5940 c-3 -5 -1 -10 4 -10 6 0 11 5 11 10 0 6 -2 10 -4 10 -3 0
-8 -4 -11 -10z"/>
<path d="M6070 5940 c0 -5 5 -10 11 -10 5 0 7 5 4 10 -3 6 -8 10 -11 10 -2 0
-4 -4 -4 -10z"/>
<path d="M7180 5940 c0 -5 5 -10 11 -10 5 0 7 5 4 10 -3 6 -8 10 -11 10 -2 0
-4 -4 -4 -10z"/>
<path d="M7445 5940 c-3 -5 -1 -10 4 -10 6 0 11 5 11 10 0 6 -2 10 -4 10 -3 0
-8 -4 -11 -10z"/>
<path d="M5278 5933 c7 -3 16 -2 19 1 4 3 -2 6 -13 5 -11 0 -14 -3 -6 -6z"/>
<path d="M7288 5933 c7 -3 16 -2 19 1 4 3 -2 6 -13 5 -11 0 -14 -3 -6 -6z"/>
<path d="M2090 5920 c0 -5 5 -10 10 -10 6 0 10 5 10 10 0 6 -4 10 -10 10 -5 0
-10 -4 -10 -10z"/>
<path d="M3340 5920 c0 -5 5 -10 10 -10 6 0 10 5 10 10 0 6 -4 10 -10 10 -5 0
-10 -4 -10 -10z"/>
<path d="M7690 5920 c0 -5 5 -10 10 -10 6 0 10 5 10 10 0 6 -4 10 -10 10 -5 0
-10 -4 -10 -10z"/>
<path d="M2090 5870 c0 -5 5 -10 10 -10 6 0 10 5 10 10 0 6 -4 10 -10 10 -5 0
-10 -4 -10 -10z"/>
<path d="M3320 5830 c0 -5 5 -10 10 -10 6 0 10 5 10 10 0 6 -4 10 -10 10 -5 0
-10 -4 -10 -10z"/>
<path d="M3325 5780 c-3 -5 -1 -10 4 -10 6 0 11 5 11 10 0 6 -2 10 -4 10 -3 0
-8 -4 -11 -10z"/>
<path d="M3325 5720 c3 -5 8 -10 11 -10 2 0 4 5 4 10 0 6 -5 10 -11 10 -5 0
-7 -4 -4 -10z"/>
<path d="M7710 5719 c0 -5 5 -7 10 -4 6 3 10 8 10 11 0 2 -4 4 -10 4 -5 0 -10
-5 -10 -11z"/>
<path d="M865 5710 c3 -5 8 -10 11 -10 2 0 4 5 4 10 0 6 -5 10 -11 10 -5 0 -7
-4 -4 -10z"/>
<path d="M2095 5710 c3 -5 8 -10 11 -10 2 0 4 5 4 10 0 6 -5 10 -11 10 -5 0
-7 -4 -4 -10z"/>
<path d="M3320 5670 c0 -5 5 -10 10 -10 6 0 10 5 10 10 0 6 -4 10 -10 10 -5 0
-10 -4 -10 -10z"/>
<path d="M2095 5660 c3 -5 8 -10 11 -10 2 0 4 5 4 10 0 6 -5 10 -11 10 -5 0
-7 -4 -4 -10z"/>
<path d="M3325 5620 c-3 -5 -1 -10 4 -10 6 0 11 5 11 10 0 6 -2 10 -4 10 -3 0
-8 -4 -11 -10z"/>
<path d="M7710 5620 c0 -5 5 -10 11 -10 5 0 7 5 4 10 -3 6 -8 10 -11 10 -2 0
-4 -4 -4 -10z"/>
<path d="M2095 5610 c-3 -5 -1 -10 4 -10 6 0 11 5 11 10 0 6 -2 10 -4 10 -3 0
-8 -4 -11 -10z"/>
<path d="M3713 5590 c-12 -5 -26 -18 -32 -29 -17 -31 -15 -992 2 -1015 7 -9
32 -20 55 -23 l42 -6 0 -416 c0 -311 -3 -420 -12 -429 -9 -9 -88 -12 -293 -12
-238 0 -284 -2 -303 -16 l-22 -15 0 -803 c0 -765 -1 -804 -18 -819 -17 -16
-88 -17 -815 -17 -784 0 -797 0 -817 -20 -19 -19 -20 -33 -20 -210 0 -179 -1
-190 -19 -190 -18 0 -18 -2 3 -69 11 -38 23 -67 26 -64 3 2 14 33 25 68 l21
64 -20 3 c-20 3 -21 10 -24 182 -2 148 0 183 13 202 l15 24 804 0 c765 0 804
1 819 18 16 17 17 88 17 815 0 784 0 797 20 817 19 19 33 20 299 20 241 0 282
2 295 16 14 13 16 51 16 259 0 185 3 245 13 248 9 4 9 7 -1 14 -9 7 -12 48
-10 169 l3 159 631 5 c515 4 634 8 647 19 15 12 17 43 17 262 l0 249 441 0
c242 0 438 -4 435 -8 -2 -4 -2 -13 2 -19 5 -7 29 -3 77 12 39 13 63 25 55 28
-39 14 -114 37 -121 37 -3 0 -9 -9 -12 -20 -5 -20 -12 -20 -439 -18 l-433 3
-5 252 c-4 188 -8 255 -18 265 -10 10 -148 13 -675 15 -370 1 -672 -2 -684 -7z
m1351 -36 c3 -9 6 -235 6 -503 0 -365 -3 -490 -12 -499 -9 -9 -149 -12 -568
-12 l-556 0 4 103 c3 94 2 104 -18 125 -21 22 -28 24 -126 20 l-104 -3 0 381
c0 282 3 383 12 392 9 9 175 12 684 12 603 0 672 -2 678 -16z m-1160 -806 c11
-15 16 -46 16 -95 0 -100 -13 -113 -117 -113 -104 0 -113 9 -113 113 0 109 8
117 116 117 74 0 84 -2 98 -22z"/>
<path d="M4383 5315 c0 -44 2 -61 4 -37 2 23 2 59 0 80 -2 20 -4 1 -4 -43z"/>
<path d="M4420 5380 c0 -5 5 -10 11 -10 5 0 7 5 4 10 -3 6 -8 10 -11 10 -2 0
-4 -4 -4 -10z"/>
<path d="M4129 5359 c-17 -17 -20 -29 -15 -57 13 -85 126 -79 126 7 0 66 -65
96 -111 50z m91 -24 c13 -34 1 -64 -28 -72 -34 -8 -56 8 -60 45 -6 56 68 79
88 27z"/>
<path d="M4269 5338 c-1 -5 -1 -17 -1 -28 0 -53 3 -71 10 -66 5 3 7 18 4 34
-2 18 2 35 13 45 23 24 35 13 35 -33 0 -21 5 -42 10 -45 15 -9 12 81 -2 93
-14 11 -67 11 -69 0z"/>
<path d="M4420 5295 c0 -35 4 -54 10 -50 6 3 10 26 10 50 0 24 -4 47 -10 50
-6 4 -10 -15 -10 -50z"/>
<path d="M4460 5294 c0 -30 5 -54 10 -54 6 0 10 17 10 39 0 77 44 73 53 -4 3
-28 4 -24 3 15 l-1 55 -37 2 -38 1 0 -54z"/>
<path d="M4580 5335 c-33 -40 -2 -103 44 -91 36 9 32 24 -5 22 -18 0 -34 5
-36 12 -3 8 7 12 31 12 28 0 36 4 36 18 0 38 -46 56 -70 27z m54 -14 c3 -5 -6
-11 -19 -14 -25 -4 -40 4 -28 17 9 9 41 7 47 -3z"/>
<path d="M4071 5073 c1 -38 4 -56 6 -40 4 23 9 27 38 27 19 0 37 5 40 10 4 6
-10 10 -34 10 -37 0 -41 3 -41 24 0 22 5 25 43 29 l42 4 -47 1 -48 2 1 -67z"/>
<path d="M4398 5120 c-1 -5 -1 -32 0 -60 3 -44 7 -50 25 -50 20 1 20 2 5 11
-22 12 -22 79 -1 79 12 0 12 3 -1 15 -17 18 -23 19 -28 5z"/>
<path d="M4203 5109 c-18 -6 -23 -16 -23 -42 0 -19 7 -40 14 -47 18 -14 58
-10 64 8 3 11 0 11 -16 1 -17 -10 -23 -10 -36 0 -26 22 -19 31 24 31 43 0 45
2 30 29 -13 24 -30 30 -57 20z m45 -26 c2 -9 -7 -13 -27 -13 -23 0 -29 4 -24
16 6 17 44 15 51 -3z"/>
<path d="M4303 5104 c-16 -12 -15 -13 11 -11 16 1 31 -4 33 -10 3 -8 -5 -13
-21 -13 -27 0 -49 -28 -37 -48 3 -6 25 -10 47 -10 43 2 43 2 29 74 -6 27 -38
36 -62 18z m47 -53 c0 -5 -7 -14 -15 -21 -18 -15 -42 1 -31 19 8 13 46 15 46
2z"/>
<path d="M4642 5104 c-25 -18 -30 -65 -8 -84 19 -15 58 -9 64 10 5 13 3 13
-11 1 -20 -16 -47 -8 -47 14 0 11 10 15 36 15 27 0 35 4 32 16 -2 9 -12 23
-23 30 -18 12 -24 11 -43 -2z m46 -21 c2 -8 -6 -13 -22 -13 -25 0 -33 10 -19
24 10 10 36 3 41 -11z"/>
<path d="M4452 5063 l3 -48 38 0 37 -1 -2 51 c-1 42 -2 44 -5 13 -8 -70 -53
-76 -53 -7 0 21 -5 39 -11 39 -6 0 -9 -19 -7 -47z"/>
<path d="M4560 5060 c0 -27 5 -50 10 -50 6 0 10 18 10 40 0 27 6 42 18 49 14
9 13 10 -10 11 -27 0 -28 -2 -28 -50z"/>
<path d="M3930 4890 c-27 -27 -25 -66 5 -95 27 -28 42 -30 80 -13 16 7 25 19
25 35 0 20 -5 23 -32 22 -25 -1 -27 -3 -10 -6 36 -7 24 -37 -16 -41 -26 -3
-34 1 -43 22 -25 53 25 110 66 76 9 -7 19 -10 22 -6 4 4 1 11 -7 16 -25 16
-69 11 -90 -10z"/>
<path d="M4562 4884 c-7 -8 -8 -15 -2 -19 6 -3 10 -23 10 -45 0 -24 5 -40 15
-44 8 -3 15 -1 15 4 0 6 -4 10 -10 10 -12 0 -13 77 -1 82 5 2 4 8 -3 14 -8 8
-15 7 -24 -2z"/>
<path d="M4070 4861 c-15 -29 -12 -49 10 -71 24 -24 30 -24 56 -6 18 13 17 14
-15 13 -19 -1 -36 3 -38 11 -3 8 7 12 31 12 28 0 36 4 36 18 0 41 -60 59 -80
23z m60 -6 c11 -13 8 -15 -20 -15 -28 0 -31 2 -20 15 7 8 16 15 20 15 4 0 13
-7 20 -15z"/>
<path d="M4179 4875 c-6 -3 -6 -48 0 -71 l9 -29 1 36 c1 38 22 66 41 54 5 -3
10 -24 10 -46 0 -21 5 -39 10 -39 12 0 13 70 2 88 -6 9 -59 15 -73 7z"/>
<path d="M4292 4868 c-17 -17 -15 -64 4 -82 17 -18 24 -19 48 -10 25 9 19 20
-11 19 -14 0 -28 6 -30 13 -3 8 7 12 31 12 38 0 43 8 26 41 -12 21 -50 25 -68
7z m42 -4 c25 -9 19 -24 -9 -24 -24 0 -32 10 -18 23 8 8 8 8 27 1z"/>
<path d="M4390 4829 c0 -27 5 -49 10 -49 6 0 10 16 10 35 0 22 6 38 15 41 23
9 18 22 -10 22 -23 0 -25 -4 -25 -49z"/>
<path d="M4465 4869 c-4 -6 -4 -13 0 -17 3 -3 10 0 15 7 4 8 15 11 24 8 24
-10 19 -27 -8 -27 -32 0 -53 -26 -39 -48 6 -10 19 -16 29 -14 11 2 29 3 42 3
16 -1 21 3 15 12 -4 6 -6 20 -5 29 5 29 -17 58 -43 58 -13 0 -27 -5 -30 -11z
m53 -56 c-4 -23 -48 -31 -48 -10 0 9 6 18 13 20 25 11 38 7 35 -10z"/>
<path d="M4621 4833 c0 -29 3 -53 7 -53 4 0 6 17 4 38 -6 64 -10 69 -11 15z"/>
<path d="M4672 4868 c-20 -20 -15 -76 9 -88 26 -15 69 11 69 41 0 50 -47 78
-78 47z m53 -38 c0 -28 -4 -36 -22 -38 -26 -4 -39 28 -23 58 18 33 45 21 45
-20z"/>
<path d="M4770 4828 c0 -26 5 -48 10 -48 6 0 10 18 10 39 0 24 5 41 14 44 20
8 26 -2 26 -45 0 -21 5 -38 11 -38 6 0 9 19 7 48 l-3 47 -37 0 -38 1 0 -48z"/>
<path d="M6170 5589 c-13 -6 -28 -15 -32 -22 -4 -7 -8 -238 -8 -514 l0 -502
22 -15 c20 -14 102 -16 690 -16 655 0 668 0 688 20 19 19 20 33 20 518 0 494
0 499 -21 518 -20 18 -48 19 -678 21 -418 1 -665 -2 -681 -8z m1348 -31 c9 -9
12 -134 12 -499 0 -430 -2 -489 -16 -503 -14 -14 -88 -16 -670 -16 -433 0
-662 4 -675 10 -18 10 -19 27 -19 503 0 370 3 496 12 505 17 17 1339 17 1356
0z"/>
<path d="M6837 5383 c-11 -10 -8 -143 3 -143 6 0 10 32 10 75 0 75 -1 81 -13
68z"/>
<path d="M6875 5380 c-3 -5 -1 -10 4 -10 6 0 11 5 11 10 0 6 -2 10 -4 10 -3 0
-8 -4 -11 -10z"/>
<path d="M6592 5364 c-29 -20 -30 -76 -1 -105 16 -16 28 -20 53 -15 37 8 56
30 56 68 0 56 -60 86 -108 52z m76 -16 c7 -7 12 -24 12 -38 0 -31 -17 -50 -45
-50 -12 0 -26 5 -33 12 -13 13 -17 70 -5 81 11 11 58 8 71 -5z"/>
<path d="M6724 5341 c-8 -9 -4 -90 6 -96 6 -4 10 9 10 32 0 42 14 65 36 56 9
-3 14 -21 14 -50 0 -49 14 -52 18 -3 4 47 -13 70 -49 67 -17 -1 -32 -4 -35 -6z"/>
<path d="M6877 5343 c-11 -10 -8 -91 3 -98 6 -4 10 15 10 49 0 57 -1 61 -13
49z"/>
<path d="M6921 5290 l2 -55 7 43 c11 72 50 81 50 12 0 -21 5 -42 10 -45 15 -9
12 81 -2 93 -7 6 -25 10 -40 9 -27 -2 -28 -4 -27 -57z"/>
<path d="M7036 5334 c-9 -8 -16 -26 -16 -39 0 -45 53 -72 79 -41 10 12 6 14
-20 13 -18 -1 -34 4 -36 11 -3 8 7 12 31 12 28 0 36 4 36 18 0 39 -45 55 -74
26z m54 -14 c0 -5 -12 -10 -26 -10 -14 0 -23 4 -19 10 3 6 15 10 26 10 10 0
19 -4 19 -10z"/>
<path d="M6546 5137 c-27 -20 -16 -50 24 -63 23 -8 35 -18 35 -30 0 -21 -32
-24 -70 -9 -18 8 -19 7 -6 -8 17 -21 74 -22 91 -2 21 25 7 49 -35 61 -22 6
-40 17 -40 25 0 18 42 24 61 9 9 -9 14 -9 14 -2 0 11 -31 32 -47 32 -5 0 -17
-6 -27 -13z"/>
<path d="M6773 5109 c-18 -6 -23 -16 -23 -42 0 -39 15 -57 47 -57 27 0 47 33
39 66 -8 30 -34 44 -63 33z m45 -47 c4 -38 -20 -54 -45 -29 -23 23 -9 69 20
65 17 -2 23 -11 25 -36z"/>
<path d="M7000 5110 c-8 -5 -18 -6 -22 -4 -4 3 -7 -19 -7 -48 1 -29 3 -42 6
-28 9 60 14 70 33 70 17 0 20 -7 20 -45 0 -25 5 -45 10 -45 6 0 10 20 10 45 0
47 -22 72 -50 55z"/>
<path d="M6662 5098 c-7 -7 -12 -24 -12 -38 0 -14 5 -31 12 -38 15 -15 55 -16
63 -1 11 16 -3 23 -19 10 -21 -18 -36 -5 -36 30 0 33 26 51 40 28 5 -7 12 -10
15 -7 12 12 -5 28 -29 28 -12 0 -27 -5 -34 -12z"/>
<path d="M6860 5058 c0 -26 5 -48 10 -48 6 0 10 18 10 40 0 27 6 42 18 49 14
9 13 10 -10 9 -26 -2 -28 -5 -28 -50z"/>
<path d="M6920 5060 c0 -27 5 -50 10 -50 6 0 10 23 10 50 0 28 -4 50 -10 50
-5 0 -10 -22 -10 -50z"/>
<path d="M7076 5094 c-18 -48 5 -91 44 -79 14 4 20 2 20 -8 0 -21 -30 -30 -48
-15 -13 11 -14 10 -10 -2 2 -8 17 -16 31 -18 32 -4 47 25 47 92 l0 43 -39 1
c-27 1 -41 -3 -45 -14z m62 -25 c3 -27 -20 -55 -38 -44 -11 7 -14 58 -3 69 14
14 38 0 41 -25z"/>
<path d="M6930 4910 c0 -5 5 -10 11 -10 5 0 7 5 4 10 -3 6 -8 10 -11 10 -2 0
-4 -4 -4 -10z"/>
<path d="M6540 4895 c-18 -22 -5 -45 30 -51 33 -7 55 -28 45 -44 -9 -14 -58
-13 -73 2 -9 9 -12 9 -12 0 0 -19 46 -33 74 -22 50 19 43 55 -15 70 -23 7 -39
17 -39 26 0 21 29 29 52 15 11 -7 23 -10 26 -6 10 10 -20 25 -49 25 -15 0 -32
-7 -39 -15z"/>
<path d="M6673 4872 c-24 -15 -26 -59 -4 -81 25 -25 31 -26 57 -7 18 13 17 14
-15 13 -19 -1 -36 3 -38 11 -3 8 7 12 31 12 28 0 36 4 36 18 0 34 -37 53 -67
34z m47 -17 c11 -13 8 -15 -20 -15 -28 0 -31 2 -20 15 7 8 16 15 20 15 4 0 13
-7 20 -15z"/>
<path d="M6772 4825 c1 -43 2 -45 5 -13 3 24 11 42 23 48 17 9 22 5 35 -26 8
-20 15 -40 15 -45 0 -5 6 -9 14 -9 14 0 52 87 42 97 -3 3 -14 -14 -24 -38
l-19 -44 -13 43 c-12 40 -15 42 -47 40 -33 -2 -33 -2 -31 -53z"/>
<path d="M6931 4833 c0 -29 3 -53 7 -53 4 0 6 17 4 38 -6 64 -10 69 -11 15z"/>
<path d="M6982 4868 c-7 -7 -12 -27 -12 -45 0 -39 28 -60 60 -43 21 11 27 30
10 30 -5 0 -10 -4 -10 -10 0 -5 -9 -10 -20 -10 -27 0 -38 46 -16 68 12 13 19
14 28 4 17 -17 33 -15 18 3 -15 18 -42 19 -58 3z"/>
<path d="M7084 4872 c-23 -15 -25 -61 -4 -82 24 -24 30 -24 56 -6 18 13 17 14
-15 13 -19 -1 -36 3 -38 11 -3 8 7 12 31 12 28 0 36 4 36 18 0 34 -38 53 -66
34z m46 -17 c11 -13 8 -15 -20 -15 -28 0 -31 2 -20 15 7 8 16 15 20 15 4 0 13
-7 20 -15z"/>
<path d="M3320 5510 c0 -5 5 -10 10 -10 6 0 10 5 10 10 0 6 -4 10 -10 10 -5 0
-10 -4 -10 -10z"/>
<path d="M7710 5460 c0 -5 5 -10 11 -10 5 0 7 5 4 10 -3 6 -8 10 -11 10 -2 0
-4 -4 -4 -10z"/>
<path d="M2095 5450 c3 -5 8 -10 11 -10 2 0 4 5 4 10 0 6 -5 10 -11 10 -5 0
-7 -4 -4 -10z"/>
<path d="M2095 5400 c-3 -5 -1 -10 4 -10 6 0 11 5 11 10 0 6 -2 10 -4 10 -3 0
-8 -4 -11 -10z"/>
<path d="M865 5350 c-3 -5 -1 -10 4 -10 6 0 11 5 11 10 0 6 -2 10 -4 10 -3 0
-8 -4 -11 -10z"/>
<path d="M2095 5350 c-3 -5 -1 -10 4 -10 6 0 11 5 11 10 0 6 -2 10 -4 10 -3 0
-8 -4 -11 -10z"/>
<path d="M3320 5350 c0 -5 5 -10 10 -10 6 0 10 5 10 10 0 6 -4 10 -10 10 -5 0
-10 -4 -10 -10z"/>
<path d="M871 5294 c0 -11 3 -14 6 -6 3 7 2 16 -1 19 -3 4 -6 -2 -5 -13z"/>
<path d="M2095 5301 c-3 -5 -1 -12 5 -16 5 -3 10 1 10 9 0 18 -6 21 -15 7z"/>
<path d="M3325 5300 c-3 -5 -1 -10 4 -10 6 0 11 5 11 10 0 6 -2 10 -4 10 -3 0
-8 -4 -11 -10z"/>
<path d="M7710 5300 c0 -5 5 -10 11 -10 5 0 7 5 4 10 -3 6 -8 10 -11 10 -2 0
-4 -4 -4 -10z"/>
<path d="M865 5240 c3 -5 8 -10 11 -10 2 0 4 5 4 10 0 6 -5 10 -11 10 -5 0 -7
-4 -4 -10z"/>
<path d="M2095 5240 c3 -5 8 -10 11 -10 2 0 4 5 4 10 0 6 -5 10 -11 10 -5 0
-7 -4 -4 -10z"/>
<path d="M3325 5240 c3 -5 8 -10 11 -10 2 0 4 5 4 10 0 6 -5 10 -11 10 -5 0
-7 -4 -4 -10z"/>
<path d="M7710 5239 c0 -5 5 -7 10 -4 6 3 10 8 10 11 0 2 -4 4 -10 4 -5 0 -10
-5 -10 -11z"/>
<path d="M2095 5190 c-3 -5 -1 -10 4 -10 6 0 11 5 11 10 0 6 -2 10 -4 10 -3 0
-8 -4 -11 -10z"/>
<path d="M3320 5190 c0 -5 5 -10 10 -10 6 0 10 5 10 10 0 6 -4 10 -10 10 -5 0
-10 -4 -10 -10z"/>
<path d="M2095 5140 c-3 -5 -1 -10 4 -10 6 0 11 5 11 10 0 6 -2 10 -4 10 -3 0
-8 -4 -11 -10z"/>
<path d="M3325 5140 c-3 -5 -1 -10 4 -10 6 0 11 5 11 10 0 6 -2 10 -4 10 -3 0
-8 -4 -11 -10z"/>
<path d="M7710 5090 c0 -5 5 -10 11 -10 5 0 7 5 4 10 -3 6 -8 10 -11 10 -2 0
-4 -4 -4 -10z"/>
<path d="M3320 5030 c0 -5 5 -10 10 -10 6 0 10 5 10 10 0 6 -4 10 -10 10 -5 0
-10 -4 -10 -10z"/>
<path d="M2095 4980 c3 -5 8 -10 11 -10 2 0 4 5 4 10 0 6 -5 10 -11 10 -5 0
-7 -4 -4 -10z"/>
<path d="M3325 4980 c-3 -5 -1 -10 4 -10 6 0 11 5 11 10 0 6 -2 10 -4 10 -3 0
-8 -4 -11 -10z"/>
<path d="M2090 4930 c0 -5 5 -10 10 -10 6 0 10 5 10 10 0 6 -4 10 -10 10 -5 0
-10 -4 -10 -10z"/>
<path d="M2095 4880 c-3 -5 -1 -10 4 -10 6 0 11 5 11 10 0 6 -2 10 -4 10 -3 0
-8 -4 -11 -10z"/>
<path d="M3320 4870 c0 -5 5 -10 10 -10 6 0 10 5 10 10 0 6 -4 10 -10 10 -5 0
-10 -4 -10 -10z"/>
<path d="M3320 4820 c0 -5 5 -10 10 -10 6 0 10 5 10 10 0 6 -4 10 -10 10 -5 0
-10 -4 -10 -10z"/>
<path d="M2095 4720 c3 -5 8 -10 11 -10 2 0 4 5 4 10 0 6 -5 10 -11 10 -5 0
-7 -4 -4 -10z"/>
<path d="M3320 4710 c0 -5 5 -10 10 -10 6 0 10 5 10 10 0 6 -4 10 -10 10 -5 0
-10 -4 -10 -10z"/>
<path d="M2095 4670 c-3 -5 -1 -10 4 -10 6 0 11 5 11 10 0 6 -2 10 -4 10 -3 0
-8 -4 -11 -10z"/>
<path d="M3320 4660 c0 -5 5 -10 10 -10 6 0 10 5 10 10 0 6 -4 10 -10 10 -5 0
-10 -4 -10 -10z"/>
<path d="M7710 4610 c0 -5 5 -10 11 -10 5 0 7 5 4 10 -3 6 -8 10 -11 10 -2 0
-4 -4 -4 -10z"/>
<path d="M3320 4550 c0 -5 5 -10 10 -10 6 0 10 5 10 10 0 6 -4 10 -10 10 -5 0
-10 -4 -10 -10z"/>
<path d="M7710 4549 c0 -5 5 -7 10 -4 6 3 10 8 10 11 0 2 -4 4 -10 4 -5 0 -10
-5 -10 -11z"/>
<path d="M870 4509 c0 -5 5 -7 10 -4 6 3 10 8 10 11 0 2 -4 4 -10 4 -5 0 -10
-5 -10 -11z"/>
<path d="M2095 4510 c3 -5 8 -10 11 -10 2 0 4 5 4 10 0 6 -5 10 -11 10 -5 0
-7 -4 -4 -10z"/>
<path d="M3320 4500 c0 -5 5 -10 10 -10 6 0 10 5 10 10 0 6 -4 10 -10 10 -5 0
-10 -4 -10 -10z"/>
<path d="M4358 4437 c-24 -76 -24 -76 -4 -79 21 -3 21 -6 21 -508 l0 -505
-340 -5 -339 -5 -13 -25 c-10 -19 -13 -118 -13 -400 l0 -375 35 -23 c19 -12
35 -30 35 -40 0 -9 16 -28 35 -41 19 -13 35 -32 35 -42 0 -21 97 -89 190 -131
103 -48 244 -62 325 -33 22 8 43 15 48 15 4 0 7 -149 7 -331 0 -322 -1 -331
-20 -336 -25 -7 -25 -5 2 -83 l21 -64 17 49 c34 99 33 95 11 95 -21 0 -21 1
-19 342 l3 342 90 48 c120 63 172 74 272 58 92 -14 179 -52 269 -115 36 -25
66 -45 67 -45 1 0 2 127 2 282 l0 283 75 5 75 6 -75 4 -75 5 -3 179 c-3 183
-7 206 -42 206 -11 0 -20 10 -25 27 -8 35 -23 53 -52 64 -13 5 -23 16 -23 26
-1 47 -4 48 -287 53 l-268 5 -3 200 -2 200 1372 -3 c1202 -2 1375 -4 1395 -17
l23 -15 2 -468 c2 -257 2 -774 0 -1149 l-2 -683 -334 0 c-310 0 -334 -1 -349
-18 -15 -17 -17 -67 -17 -519 0 -472 1 -501 18 -516 17 -16 79 -17 688 -17
590 0 672 2 692 16 l22 15 0 503 c0 475 -1 504 -18 519 -17 15 -56 17 -350 17
l-332 0 0 680 0 679 88 4 87 3 -87 2 -88 2 0 460 0 461 -25 24 -24 25 -1369 0
c-1140 0 -1371 2 -1381 14 -8 9 -11 103 -11 306 1 285 1 292 20 287 25 -6 25
-8 -4 82 l-23 73 -25 -75z m560 -1129 c7 -7 12 -20 12 -30 0 -17 -28 -18 -575
-18 -562 0 -575 0 -595 -20 -19 -19 -20 -33 -20 -370 0 -192 -3 -350 -7 -350
-3 0 -15 7 -25 17 -17 15 -18 40 -18 380 0 232 4 371 10 384 10 18 28 19 608
19 452 0 601 -3 610 -12z m70 -80 c7 -7 12 -20 12 -30 0 -17 -28 -18 -569 -18
-560 0 -569 0 -595 -21 l-26 -20 0 -350 c0 -192 -3 -349 -7 -349 -3 0 -15 7
-25 17 -17 15 -18 40 -18 381 0 326 2 367 17 384 15 17 47 18 608 18 446 0
594 -3 603 -12z m57 -78 l25 -10 0 -445 c0 -410 -3 -470 -24 -436 -11 17 -130
79 -196 101 -47 16 -91 23 -156 24 l-91 1 -149 -75 -149 -75 -90 0 c-104 1
-187 25 -281 81 -113 68 -102 25 -104 434 0 196 2 365 6 374 4 10 16 22 28 26
29 12 1150 12 1181 0z m2823 -1772 c17 -17 17 -989 0 -1006 -17 -17 -1339 -17
-1356 0 -17 17 -17 989 0 1006 17 17 1339 17 1356 0z"/>
<path d="M4288 3104 c-12 -11 -10 -134 2 -134 6 0 10 15 10 34 0 35 21 63 40
51 5 -3 10 -25 11 -48 1 -41 1 -41 11 -14 15 42 -4 81 -37 75 -19 -4 -25 -1
-27 19 -2 14 -6 21 -10 17z"/>
<path d="M4740 3086 c0 -19 -4 -23 -20 -19 -29 8 -50 -14 -50 -53 0 -36 26
-59 50 -44 8 5 18 6 22 4 4 -3 8 27 8 65 0 39 -2 71 -5 71 -3 0 -5 -11 -5 -24z
m-10 -41 c17 -21 4 -65 -19 -65 -22 0 -34 36 -20 62 12 22 23 23 39 3z"/>
<path d="M4167 3093 c-4 -3 -7 -17 -7 -29 0 -19 8 -25 41 -34 29 -8 39 -16 37
-28 -4 -20 -45 -29 -61 -13 -14 14 -27 14 -27 1 0 -16 48 -31 75 -24 27 7 43
40 26 57 -6 6 -26 16 -43 21 -18 6 -33 18 -33 26 0 18 43 26 58 11 17 -17 31
-13 17 4 -12 15 -71 21 -83 8z"/>
<path d="M4400 3061 c-8 -6 -11 -13 -7 -17 3 -4 13 -1 21 5 8 7 20 10 26 6 18
-11 11 -22 -20 -28 -23 -5 -30 -12 -30 -31 0 -26 26 -42 44 -27 7 6 23 8 37 5
14 -4 19 -2 12 3 -6 4 -13 26 -15 48 -3 34 -7 40 -28 43 -14 1 -32 -2 -40 -7z
m50 -55 c0 -19 -17 -29 -37 -22 -12 5 -13 9 -3 21 16 19 40 19 40 1z"/>
<path d="M4500 3018 c0 -27 5 -48 10 -48 6 0 10 16 10 36 0 23 6 41 17 49 16
12 15 13 -10 12 -25 -2 -27 -5 -27 -49z"/>
<path d="M4572 3058 c-7 -7 -12 -24 -12 -40 0 -32 37 -62 64 -52 25 9 19 20
-11 19 -14 0 -28 6 -30 13 -3 8 7 12 31 12 28 0 36 4 36 18 0 24 -19 42 -45
42 -12 0 -26 -5 -33 -12z m58 -19 c0 -5 -11 -9 -25 -9 -26 0 -34 15 -12 23 16
5 37 -3 37 -14z"/>
<path d="M4142 2798 c0 -40 3 -59 5 -41 4 29 7 32 46 36 l42 4 -42 1 c-39 2
-43 5 -43 27 0 23 4 25 40 25 22 0 40 5 40 10 0 6 -20 10 -45 10 l-45 0 2 -72z"/>
<path d="M4469 2848 c-4 -33 4 -104 12 -112 14 -15 20 -1 10 25 -4 13 -5 34 0
46 9 24 3 53 -12 53 -5 0 -10 -6 -10 -12z"/>
<path d="M4266 2827 c-23 -17 -24 -63 -3 -84 16 -17 67 -11 67 8 0 6 -8 5 -22
-2 -18 -10 -24 -8 -35 7 -13 18 -11 19 26 22 45 3 48 8 25 40 -17 25 -33 28
-58 9z m52 -24 c2 -8 -6 -13 -22 -13 -17 0 -26 5 -26 16 0 19 41 16 48 -3z"/>
<path d="M4370 2825 c-11 -13 -8 -14 19 -9 23 5 31 3 31 -8 0 -8 -12 -15 -27
-16 -33 -3 -45 -20 -32 -44 11 -20 49 -25 49 -6 0 9 3 9 12 0 21 -21 26 -13
21 31 -7 59 -45 86 -73 52z m50 -54 c0 -5 -7 -14 -15 -21 -18 -15 -42 1 -31
19 8 13 46 15 46 2z"/>
<path d="M4520 2798 c0 -56 9 -68 48 -65 32 2 32 2 32 55 0 32 -4 51 -10 47
-5 -3 -7 -18 -4 -34 4 -19 0 -33 -11 -44 -23 -24 -35 -13 -35 33 0 21 -4 42
-10 45 -6 4 -10 -11 -10 -37z"/>
<path d="M4630 2783 c0 -29 5 -53 10 -53 6 0 10 18 10 40 0 27 5 43 15 46 24
9 17 22 -10 20 -23 -1 -25 -5 -25 -53z"/>
<path d="M4706 2824 c-20 -19 -21 -68 -2 -84 18 -15 58 -10 64 8 3 11 0 12
-14 4 -23 -12 -44 -5 -44 14 0 9 11 14 35 14 24 0 35 5 35 14 0 18 -27 46 -45
46 -7 0 -21 -7 -29 -16z m52 -21 c2 -8 -6 -13 -22 -13 -25 0 -33 10 -19 24 10
10 36 3 41 -11z"/>
<path d="M4570 2617 c0 -20 -4 -23 -30 -19 -24 3 -31 0 -38 -19 -5 -13 -6 -35
-2 -49 5 -21 13 -25 43 -26 l37 -1 0 68 c0 38 -2 69 -5 69 -3 0 -5 -10 -5 -23z
m-9 -54 c10 -27 -12 -59 -35 -50 -16 6 -23 57 -9 71 13 12 36 2 44 -21z"/>
<path d="M4060 2565 l0 -65 53 2 c50 1 50 2 10 5 -38 4 -43 7 -43 29 0 21 4
24 37 24 44 0 40 8 -5 12 -26 2 -32 7 -32 25 0 19 6 22 43 26 40 3 40 4 -10 5
l-53 2 0 -65z"/>
<path d="M4192 2546 c1 -42 2 -45 5 -14 8 70 53 76 53 7 0 -21 5 -39 11 -39 6
0 9 19 7 48 -3 47 -3 47 -40 48 l-38 1 2 -51z"/>
<path d="M4302 2588 c-7 -7 -12 -24 -12 -38 0 -32 17 -50 46 -50 24 0 41 16
29 28 -3 3 -10 0 -15 -7 -14 -23 -40 -4 -40 29 0 33 26 52 40 29 5 -7 12 -10
15 -7 12 12 -5 28 -29 28 -12 0 -27 -5 -34 -12z"/>
<path d="M4402 2588 c-13 -13 -16 -47 -6 -72 10 -27 62 -20 76 9 23 51 -32
101 -70 63z m56 -36 c4 -38 -21 -54 -46 -29 -13 13 -13 21 -4 42 17 37 46 29
50 -13z"/>
<path d="M4608 2576 c-17 -39 3 -76 41 -76 16 0 33 4 36 10 4 6 -5 7 -23 4
-21 -4 -31 -2 -35 10 -5 13 1 16 29 16 33 0 35 2 32 28 -2 22 -8 28 -35 30
-27 3 -35 -1 -45 -22z m62 -1 c11 -13 8 -15 -18 -15 -24 0 -30 4 -26 15 4 8
12 15 19 15 7 0 18 -7 25 -15z"/>
<path d="M4722 2545 c1 -40 2 -43 5 -15 3 19 11 43 20 52 14 15 13 17 -6 15
-19 -1 -21 -7 -19 -52z"/>
<path d="M4787 2593 c-15 -14 -5 -33 24 -49 23 -12 28 -19 20 -27 -9 -9 -16
-8 -31 1 -12 7 -21 8 -25 2 -8 -13 35 -29 55 -22 16 6 30 22 30 35 0 4 -16 15
-35 23 -39 16 -38 39 2 29 16 -4 22 -2 18 5 -7 11 -48 14 -58 3z"/>
<path d="M7277 1088 c-5 -9 -6 -22 -2 -27 4 -7 -5 -9 -24 -5 -26 6 -32 3 -43
-21 -18 -40 7 -81 48 -77 16 2 30 5 32 7 2 1 2 34 0 71 -2 45 -6 63 -11 52z
m-12 -78 c0 -25 -5 -36 -18 -38 -21 -4 -31 19 -23 54 10 40 41 28 41 -16z"/>
<path d="M7433 1030 c0 -41 2 -58 4 -37 2 20 2 54 0 75 -2 20 -4 3 -4 -38z"/>
<path d="M6940 1025 c0 -37 4 -65 10 -65 6 0 10 21 11 48 l0 47 18 -45 c18
-43 40 -64 42 -38 0 7 9 31 20 53 l19 40 -4 -52 c-3 -30 -1 -53 4 -53 6 0 10
30 10 66 0 81 -16 82 -44 4 l-20 -54 -19 57 c-26 80 -47 77 -47 -8z"/>
<path d="M7112 1048 c-7 -7 -12 -27 -12 -45 0 -26 5 -36 23 -42 45 -17 82 33
57 78 -12 23 -49 28 -68 9z m54 -23 c8 -34 -1 -55 -25 -55 -25 0 -39 43 -21
65 19 23 39 18 46 -10z"/>
<path d="M7320 1041 c-15 -29 -12 -49 10 -71 24 -24 30 -24 56 -6 18 13 17 14
-15 13 -19 -1 -36 3 -38 11 -3 8 7 12 31 12 28 0 36 4 36 18 0 41 -60 59 -80
23z m60 -6 c11 -13 8 -15 -20 -15 -28 0 -31 2 -20 15 7 8 16 15 20 15 4 0 13
-7 20 -15z"/>
<path d="M6850 850 c0 -5 9 -10 20 -10 18 0 20 -7 20 -54 0 -30 5 -58 10 -61
6 -4 10 17 10 54 0 59 1 61 26 61 14 0 23 4 19 10 -3 6 -28 10 -56 10 -27 0
-49 -4 -49 -10z"/>
<path d="M6972 775 l1 -60 7 45 c4 25 4 52 -1 60 -5 9 -8 -8 -7 -45z"/>
<path d="M6995 820 c-3 -5 1 -10 10 -10 9 0 13 5 10 10 -3 6 -8 10 -10 10 -2
0 -7 -4 -10 -10z"/>
<path d="M7044 816 c-18 -14 -17 -14 11 -13 40 3 47 -17 9 -23 -23 -4 -29 -10
-29 -30 0 -28 30 -40 49 -20 8 9 6 11 -11 5 -19 -5 -23 -2 -23 14 0 31 36 27
44 -4 4 -14 14 -25 23 -25 13 0 14 3 5 12 -7 7 -12 26 -12 43 0 50 -28 68 -66
41z"/>
<path d="M7215 820 c-3 -5 -12 -7 -20 -3 -12 4 -15 -5 -15 -46 0 -62 18 -68
22 -8 2 35 7 43 26 45 20 3 22 -1 22 -43 0 -28 4 -44 10 -40 13 8 13 61 0 86
-11 20 -35 25 -45 9z"/>
<path d="M7365 820 c-3 -5 -12 -7 -20 -3 -12 4 -15 -4 -15 -40 0 -59 18 -71
22 -15 2 36 7 44 26 46 20 3 22 -1 22 -42 0 -25 5 -46 10 -46 13 0 13 66 0 91
-11 20 -35 25 -45 9z"/>
<path d="M7457 819 c-21 -12 -23 -72 -2 -89 8 -6 23 -9 36 -5 16 5 20 3 17 -6
-3 -8 -17 -14 -32 -14 -14 1 -25 -4 -23 -10 6 -17 43 -17 57 0 14 17 21 123 8
131 -4 3 -8 0 -8 -6 0 -7 -6 -8 -18 -1 -11 6 -24 6 -35 0z m48 -28 c13 -41
-29 -79 -44 -39 -4 12 -6 30 -3 40 6 24 39 23 47 -1z"/>
<path d="M7140 770 c0 -27 5 -50 10 -50 6 0 10 23 10 50 0 28 -4 50 -10 50 -5
0 -10 -22 -10 -50z"/>
<path d="M7290 770 c0 -27 5 -50 10 -50 6 0 10 23 10 50 0 28 -4 50 -10 50 -5
0 -10 -22 -10 -50z"/>
<path d="M2095 4460 c3 -5 8 -10 11 -10 2 0 4 5 4 10 0 6 -5 10 -11 10 -5 0
-7 -4 -4 -10z"/>
<path d="M2095 4410 c-3 -5 -1 -10 4 -10 6 0 11 5 11 10 0 6 -2 10 -4 10 -3 0
-8 -4 -11 -10z"/>
<path d="M885 4370 c3 -5 8 -10 11 -10 2 0 4 5 4 10 0 6 -5 10 -11 10 -5 0 -7
-4 -4 -10z"/>
<path d="M2080 4369 c0 -5 5 -7 10 -4 6 3 10 8 10 11 0 2 -4 4 -10 4 -5 0 -10
-5 -10 -11z"/>
<path d="M1348 4353 c7 -3 16 -2 19 1 4 3 -2 6 -13 5 -11 0 -14 -3 -6 -6z"/>
<path d="M3320 4340 c0 -5 5 -10 10 -10 6 0 10 5 10 10 0 6 -4 10 -10 10 -5 0
-10 -4 -10 -10z"/>
<path d="M3320 4230 c0 -5 5 -10 10 -10 6 0 10 5 10 10 0 6 -4 10 -10 10 -5 0
-10 -4 -10 -10z"/>
<path d="M3340 4200 c0 -5 5 -10 11 -10 5 0 7 5 4 10 -3 6 -8 10 -11 10 -2 0
-4 -4 -4 -10z"/>
<path d="M3480 4180 c0 -5 5 -10 10 -10 6 0 10 5 10 10 0 6 -4 10 -10 10 -5 0
-10 -4 -10 -10z"/>
<path d="M3530 4180 c0 -5 5 -10 10 -10 6 0 10 5 10 10 0 6 -4 10 -10 10 -5 0
-10 -4 -10 -10z"/>
<path d="M3640 4180 c0 -5 5 -10 11 -10 5 0 7 5 4 10 -3 6 -8 10 -11 10 -2 0
-4 -4 -4 -10z"/>
<path d="M3690 4180 c0 -5 5 -10 10 -10 6 0 10 5 10 10 0 6 -4 10 -10 10 -5 0
-10 -4 -10 -10z"/>
<path d="M3850 4180 c0 -5 5 -10 10 -10 6 0 10 5 10 10 0 6 -4 10 -10 10 -5 0
-10 -4 -10 -10z"/>
<path d="M3900 4180 c0 -5 5 -10 10 -10 6 0 10 5 10 10 0 6 -4 10 -10 10 -5 0
-10 -4 -10 -10z"/>
<path d="M4010 4180 c0 -5 5 -10 10 -10 6 0 10 5 10 10 0 6 -4 10 -10 10 -5 0
-10 -4 -10 -10z"/>
<path d="M4060 4180 c0 -5 5 -10 10 -10 6 0 10 5 10 10 0 6 -4 10 -10 10 -5 0
-10 -4 -10 -10z"/>
<path d="M4220 4180 c0 -5 5 -10 10 -10 6 0 10 5 10 10 0 6 -4 10 -10 10 -5 0
-10 -4 -10 -10z"/>
<path d="M4270 4180 c0 -5 5 -10 10 -10 6 0 10 5 10 10 0 6 -4 10 -10 10 -5 0
-10 -4 -10 -10z"/>
<path d="M4430 4180 c0 -5 5 -10 10 -10 6 0 10 5 10 10 0 6 -4 10 -10 10 -5 0
-10 -4 -10 -10z"/>
<path d="M4485 4180 c3 -5 8 -10 11 -10 2 0 4 5 4 10 0 6 -5 10 -11 10 -5 0
-7 -4 -4 -10z"/>
<path d="M4590 4180 c0 -5 5 -10 10 -10 6 0 10 5 10 10 0 6 -4 10 -10 10 -5 0
-10 -4 -10 -10z"/>
<path d="M4640 4180 c0 -5 5 -10 10 -10 6 0 10 5 10 10 0 6 -4 10 -10 10 -5 0
-10 -4 -10 -10z"/>
<path d="M4750 4179 c0 -5 5 -7 10 -4 6 3 10 8 10 11 0 2 -4 4 -10 4 -5 0 -10
-5 -10 -11z"/>
<path d="M4800 4180 c0 -5 5 -10 10 -10 6 0 10 5 10 10 0 6 -4 10 -10 10 -5 0
-10 -4 -10 -10z"/>
<path d="M4960 4180 c0 -5 5 -10 10 -10 6 0 10 5 10 10 0 6 -4 10 -10 10 -5 0
-10 -4 -10 -10z"/>
<path d="M5010 4180 c0 -5 5 -10 10 -10 6 0 10 5 10 10 0 6 -4 10 -10 10 -5 0
-10 -4 -10 -10z"/>
<path d="M5060 4180 c0 -5 5 -10 10 -10 6 0 10 5 10 10 0 6 -4 10 -10 10 -5 0
-10 -4 -10 -10z"/>
<path d="M5120 4180 c0 -5 5 -10 10 -10 6 0 10 5 10 10 0 6 -4 10 -10 10 -5 0
-10 -4 -10 -10z"/>
<path d="M5170 4180 c0 -5 5 -10 10 -10 6 0 10 5 10 10 0 6 -4 10 -10 10 -5 0
-10 -4 -10 -10z"/>
<path d="M5225 4180 c-3 -5 -1 -10 4 -10 6 0 11 5 11 10 0 6 -2 10 -4 10 -3 0
-8 -4 -11 -10z"/>
<path d="M5330 4180 c0 -5 5 -10 10 -10 6 0 10 5 10 10 0 6 -4 10 -10 10 -5 0
-10 -4 -10 -10z"/>
<path d="M5380 4180 c0 -5 5 -10 10 -10 6 0 10 5 10 10 0 6 -4 10 -10 10 -5 0
-10 -4 -10 -10z"/>
<path d="M5490 4179 c0 -5 5 -7 10 -4 6 3 10 8 10 11 0 2 -4 4 -10 4 -5 0 -10
-5 -10 -11z"/>
<path d="M5540 4180 c0 -5 5 -10 10 -10 6 0 10 5 10 10 0 6 -4 10 -10 10 -5 0
-10 -4 -10 -10z"/>
<path d="M5595 4180 c3 -5 8 -10 11 -10 2 0 4 5 4 10 0 6 -5 10 -11 10 -5 0
-7 -4 -4 -10z"/>
<path d="M5700 4180 c0 -5 5 -10 10 -10 6 0 10 5 10 10 0 6 -4 10 -10 10 -5 0
-10 -4 -10 -10z"/>
<path d="M5750 4180 c0 -5 5 -10 10 -10 6 0 10 5 10 10 0 6 -4 10 -10 10 -5 0
-10 -4 -10 -10z"/>
<path d="M5805 4180 c3 -5 8 -10 11 -10 2 0 4 5 4 10 0 6 -5 10 -11 10 -5 0
-7 -4 -4 -10z"/>
<path d="M5860 4180 c0 -5 5 -10 10 -10 6 0 10 5 10 10 0 6 -4 10 -10 10 -5 0
-10 -4 -10 -10z"/>
<path d="M5910 4180 c0 -5 5 -10 10 -10 6 0 10 5 10 10 0 6 -4 10 -10 10 -5 0
-10 -4 -10 -10z"/>
<path d="M5960 4180 c0 -5 5 -10 10 -10 6 0 10 5 10 10 0 6 -4 10 -10 10 -5 0
-10 -4 -10 -10z"/>
<path d="M6070 4180 c0 -5 5 -10 10 -10 6 0 10 5 10 10 0 6 -4 10 -10 10 -5 0
-10 -4 -10 -10z"/>
<path d="M6120 4180 c0 -5 5 -10 10 -10 6 0 10 5 10 10 0 6 -4 10 -10 10 -5 0
-10 -4 -10 -10z"/>
<path d="M6230 4180 c0 -5 5 -10 10 -10 6 0 10 5 10 10 0 6 -4 10 -10 10 -5 0
-10 -4 -10 -10z"/>
<path d="M6280 4180 c0 -5 5 -10 10 -10 6 0 10 5 10 10 0 6 -4 10 -10 10 -5 0
-10 -4 -10 -10z"/>
<path d="M6330 4180 c0 -5 5 -10 10 -10 6 0 10 5 10 10 0 6 -4 10 -10 10 -5 0
-10 -4 -10 -10z"/>
<path d="M6440 4180 c0 -5 5 -10 10 -10 6 0 10 5 10 10 0 6 -4 10 -10 10 -5 0
-10 -4 -10 -10z"/>
<path d="M6490 4180 c0 -5 5 -10 10 -10 6 0 10 5 10 10 0 6 -4 10 -10 10 -5 0
-10 -4 -10 -10z"/>
<path d="M6650 4180 c0 -5 5 -10 10 -10 6 0 10 5 10 10 0 6 -4 10 -10 10 -5 0
-10 -4 -10 -10z"/>
<path d="M6705 4180 c-3 -5 -1 -10 4 -10 6 0 11 5 11 10 0 6 -2 10 -4 10 -3 0
-8 -4 -11 -10z"/>
<path d="M6810 4180 c0 -5 5 -10 10 -10 6 0 10 5 10 10 0 6 -4 10 -10 10 -5 0
-10 -4 -10 -10z"/>
<path d="M6860 4180 c0 -5 5 -10 10 -10 6 0 10 5 10 10 0 6 -4 10 -10 10 -5 0
-10 -4 -10 -10z"/>
<path d="M6970 4179 c0 -5 5 -7 10 -4 6 3 10 8 10 11 0 2 -4 4 -10 4 -5 0 -10
-5 -10 -11z"/>
<path d="M7020 4180 c0 -5 5 -10 10 -10 6 0 10 5 10 10 0 6 -4 10 -10 10 -5 0
-10 -4 -10 -10z"/>
<path d="M7070 4180 c0 -5 5 -10 10 -10 6 0 10 5 10 10 0 6 -4 10 -10 10 -5 0
-10 -4 -10 -10z"/>
<path d="M7180 4180 c0 -5 5 -10 10 -10 6 0 10 5 10 10 0 6 -4 10 -10 10 -5 0
-10 -4 -10 -10z"/>
<path d="M7230 4180 c0 -5 5 -10 10 -10 6 0 10 5 10 10 0 6 -4 10 -10 10 -5 0
-10 -4 -10 -10z"/>
<path d="M7340 4180 c0 -5 5 -10 10 -10 6 0 10 5 10 10 0 6 -4 10 -10 10 -5 0
-10 -4 -10 -10z"/>
<path d="M7390 4180 c0 -5 5 -10 10 -10 6 0 10 5 10 10 0 6 -4 10 -10 10 -5 0
-10 -4 -10 -10z"/>
<path d="M7445 4180 c-3 -5 -1 -10 4 -10 6 0 11 5 11 10 0 6 -2 10 -4 10 -3 0
-8 -4 -11 -10z"/>
<path d="M7550 4180 c0 -5 5 -10 10 -10 6 0 10 5 10 10 0 6 -4 10 -10 10 -5 0
-10 -4 -10 -10z"/>
<path d="M7600 4180 c0 -5 5 -10 10 -10 6 0 10 5 10 10 0 6 -4 10 -10 10 -5 0
-10 -4 -10 -10z"/>
<path d="M1070 3991 c0 -17 52 -131 60 -131 10 0 63 131 56 138 -6 5 -46 -82
-46 -99 0 -5 -4 -9 -9 -9 -5 0 -17 22 -26 50 -15 46 -35 75 -35 51z"/>
<path d="M1310 3979 c0 -15 -5 -19 -19 -14 -23 7 -51 -18 -51 -46 0 -40 18
-58 55 -57 l35 1 0 69 c0 39 -4 68 -10 68 -5 0 -10 -9 -10 -21z m-2 -65 c3
-31 -18 -52 -39 -38 -11 6 -12 58 -2 68 16 16 38 -1 41 -30z"/>
<path d="M1637 3993 c-11 -10 -8 -133 3 -133 6 0 10 13 10 29 0 27 4 30 38 34
l37 4 -37 1 c-33 2 -38 5 -38 27 0 22 4 25 35 25 19 0 35 5 35 10 0 11 -73 14
-83 3z"/>
<path d="M1954 3976 c-6 -7 -8 -32 -5 -61 5 -39 10 -51 26 -53 16 -3 18 -1 8
9 -15 15 -17 76 -4 81 5 2 4 10 -2 19 -9 12 -15 13 -23 5z"/>
<path d="M1207 3963 c-11 -10 -8 -91 3 -98 6 -4 10 15 10 49 0 57 -1 61 -13
49z"/>
<path d="M1367 3952 c-21 -24 -22 -56 -1 -77 19 -19 55 -16 62 5 5 13 3 13
-11 1 -20 -16 -47 -8 -47 14 0 11 10 15 35 15 39 0 46 17 19 44 -20 21 -37 20
-57 -2z m53 -17 c0 -9 -9 -15 -25 -15 -24 0 -32 10 -18 23 12 13 43 7 43 -8z"/>
<path d="M1476 3954 c-32 -31 -15 -94 25 -94 44 0 65 63 31 93 -23 21 -36 21
-56 1z m49 -44 c0 -28 -4 -35 -20 -35 -16 0 -21 8 -23 38 -3 35 -1 38 20 35
19 -2 23 -9 23 -38z"/>
<path d="M1763 3963 c-22 -8 -14 -22 11 -20 36 3 36 -17 0 -23 -23 -4 -29 -10
-29 -30 0 -23 4 -25 47 -25 32 -1 45 2 38 9 -6 6 -10 27 -10 47 0 43 -20 57
-57 42z m47 -62 c0 -14 -28 -33 -40 -26 -20 12 -10 35 15 35 14 0 25 -4 25 -9z"/>
<path d="M1866 3954 c-19 -18 -21 -65 -4 -82 16 -16 43 -15 58 3 14 17 0 21
-17 4 -18 -18 -33 -1 -33 38 0 35 1 35 33 29 30 -5 31 -5 13 9 -25 19 -31 19
-50 -1z"/>
<path d="M2018 3959 c-27 -15 -22 -36 12 -48 17 -5 30 -14 30 -20 0 -17 -19
-22 -40 -11 -14 7 -20 8 -20 0 0 -15 26 -23 55 -16 36 9 33 41 -5 55 -42 14
-40 35 3 27 30 -5 31 -5 13 9 -23 17 -25 18 -48 4z"/>
<path d="M1060 3830 c0 -5 5 -10 11 -10 5 0 7 5 4 10 -3 6 -8 10 -11 10 -2 0
-4 -4 -4 -10z"/>
<path d="M1110 3830 c0 -5 5 -10 10 -10 6 0 10 5 10 10 0 6 -4 10 -10 10 -5 0
-10 -4 -10 -10z"/>
<path d="M1160 3830 c0 -5 5 -10 10 -10 6 0 10 5 10 10 0 6 -4 10 -10 10 -5 0
-10 -4 -10 -10z"/>
<path d="M1215 3830 c-3 -5 -1 -10 4 -10 6 0 11 5 11 10 0 6 -2 10 -4 10 -3 0
-8 -4 -11 -10z"/>
<path d="M1370 3830 c0 -5 5 -10 11 -10 5 0 7 5 4 10 -3 6 -8 10 -11 10 -2 0
-4 -4 -4 -10z"/>
<path d="M1420 3830 c0 -5 5 -10 10 -10 6 0 10 5 10 10 0 6 -4 10 -10 10 -5 0
-10 -4 -10 -10z"/>
<path d="M1470 3830 c0 -5 5 -10 10 -10 6 0 10 5 10 10 0 6 -4 10 -10 10 -5 0
-10 -4 -10 -10z"/>
<path d="M1525 3830 c-3 -5 -1 -10 4 -10 6 0 11 5 11 10 0 6 -2 10 -4 10 -3 0
-8 -4 -11 -10z"/>
<path d="M1680 3830 c0 -5 5 -10 11 -10 5 0 7 5 4 10 -3 6 -8 10 -11 10 -2 0
-4 -4 -4 -10z"/>
<path d="M1730 3830 c0 -5 5 -10 10 -10 6 0 10 5 10 10 0 6 -4 10 -10 10 -5 0
-10 -4 -10 -10z"/>
<path d="M1780 3830 c0 -5 5 -10 10 -10 6 0 10 5 10 10 0 6 -4 10 -10 10 -5 0
-10 -4 -10 -10z"/>
<path d="M1890 3830 c0 -5 5 -10 11 -10 5 0 7 5 4 10 -3 6 -8 10 -11 10 -2 0
-4 -4 -4 -10z"/>
<path d="M1940 3830 c0 -5 5 -10 11 -10 5 0 7 5 4 10 -3 6 -8 10 -11 10 -2 0
-4 -4 -4 -10z"/>
<path d="M1990 3830 c0 -5 5 -10 10 -10 6 0 10 5 10 10 0 6 -4 10 -10 10 -5 0
-10 -4 -10 -10z"/>
<path d="M2040 3830 c0 -5 5 -10 10 -10 6 0 10 5 10 10 0 6 -4 10 -10 10 -5 0
-10 -4 -10 -10z"/>
<path d="M970 3810 c0 -5 5 -10 10 -10 6 0 10 5 10 10 0 6 -4 10 -10 10 -5 0
-10 -4 -10 -10z"/>
<path d="M2080 3809 c0 -5 5 -7 10 -4 6 3 10 8 10 11 0 2 -4 4 -10 4 -5 0 -10
-5 -10 -11z"/>
<path d="M955 3670 c3 -5 8 -10 11 -10 2 0 4 5 4 10 0 6 -5 10 -11 10 -5 0 -7
-4 -4 -10z"/>
<path d="M2095 3670 c3 -5 8 -10 11 -10 2 0 4 5 4 10 0 6 -5 10 -11 10 -5 0
-7 -4 -4 -10z"/>
<path d="M955 3620 c3 -5 8 -10 11 -10 2 0 4 5 4 10 0 6 -5 10 -11 10 -5 0 -7
-4 -4 -10z"/>
<path d="M2095 3620 c3 -5 8 -10 11 -10 2 0 4 5 4 10 0 6 -5 10 -11 10 -5 0
-7 -4 -4 -10z"/>
<path d="M950 3570 c0 -5 5 -10 10 -10 6 0 10 5 10 10 0 6 -4 10 -10 10 -5 0
-10 -4 -10 -10z"/>
<path d="M2090 3570 c0 -5 5 -10 10 -10 6 0 10 5 10 10 0 6 -4 10 -10 10 -5 0
-10 -4 -10 -10z"/>
<path d="M950 3520 c0 -5 5 -10 10 -10 6 0 10 5 10 10 0 6 -4 10 -10 10 -5 0
-10 -4 -10 -10z"/>
<path d="M2095 3520 c-3 -5 -1 -10 4 -10 6 0 11 5 11 10 0 6 -2 10 -4 10 -3 0
-8 -4 -11 -10z"/>
<path d="M955 3310 c3 -5 8 -10 11 -10 2 0 4 5 4 10 0 6 -5 10 -11 10 -5 0 -7
-4 -4 -10z"/>
<path d="M2095 3310 c3 -5 8 -10 11 -10 2 0 4 5 4 10 0 6 -5 10 -11 10 -5 0
-7 -4 -4 -10z"/>
<path d="M8327 3273 c-11 -10 -8 -133 3 -133 6 0 10 30 10 70 0 70 -1 76 -13
63z"/>
<path d="M8365 3270 c-3 -5 -1 -10 4 -10 6 0 11 5 11 10 0 6 -2 10 -4 10 -3 0
-8 -4 -11 -10z"/>
<path d="M950 3260 c0 -5 5 -10 10 -10 6 0 10 5 10 10 0 6 -4 10 -10 10 -5 0
-10 -4 -10 -10z"/>
<path d="M2090 3260 c0 -5 5 -10 10 -10 6 0 10 5 10 10 0 6 -4 10 -10 10 -5 0
-10 -4 -10 -10z"/>
<path d="M8080 3250 c-46 -46 -8 -128 54 -116 37 7 56 30 56 66 0 63 -67 93
-110 50z m71 0 c13 -7 19 -21 19 -43 0 -38 -15 -57 -45 -57 -29 0 -45 19 -45
51 0 27 22 59 41 59 6 0 19 -5 30 -10z"/>
<path d="M8216 3230 c-1 -3 1 -25 5 -50 6 -43 6 -44 7 -9 2 38 23 66 42 54 5
-3 10 -24 10 -46 0 -21 5 -39 10 -39 13 0 13 60 0 80 -9 14 -69 22 -74 10z"/>
<path d="M8367 3233 c-11 -10 -8 -91 3 -98 6 -4 10 15 10 49 0 57 -1 61 -13
49z"/>
<path d="M8411 3185 l1 -50 8 39 c13 67 50 71 50 5 0 -21 5 -39 10 -39 14 0
12 76 -2 88 -7 6 -25 10 -40 9 -27 -2 -28 -4 -27 -52z"/>
<path d="M8524 3215 c-21 -32 -15 -56 18 -75 25 -13 29 -13 45 3 18 18 8 23
-17 7 -9 -5 -19 -5 -27 2 -22 18 -14 28 22 28 27 0 35 4 35 18 0 44 -50 56
-76 17z m66 -10 c0 -3 -14 -5 -31 -5 -27 0 -30 2 -19 15 9 11 17 12 31 4 10
-5 19 -12 19 -14z"/>
<path d="M950 3210 c0 -5 5 -10 10 -10 6 0 10 5 10 10 0 6 -4 10 -10 10 -5 0
-10 -4 -10 -10z"/>
<path d="M2090 3210 c0 -5 5 -10 10 -10 6 0 10 5 10 10 0 6 -4 10 -10 10 -5 0
-10 -4 -10 -10z"/>
<path d="M950 3160 c0 -5 5 -10 10 -10 6 0 10 5 10 10 0 6 -4 10 -10 10 -5 0
-10 -4 -10 -10z"/>
<path d="M2095 3160 c-3 -5 -1 -10 4 -10 6 0 11 5 11 10 0 6 -2 10 -4 10 -3 0
-8 -4 -11 -10z"/>
<path d="M8328 3009 c-2 -6 -1 -32 2 -57 4 -37 9 -47 25 -50 15 -2 16 -1 7 6
-8 6 -13 25 -12 48 1 22 2 45 1 52 -1 15 -18 16 -23 1z"/>
<path d="M955 3000 c3 -5 8 -10 11 -10 2 0 4 5 4 10 0 6 -5 10 -11 10 -5 0 -7
-4 -4 -10z"/>
<path d="M2095 3000 c3 -5 8 -10 11 -10 2 0 4 5 4 10 0 6 -5 10 -11 10 -5 0
-7 -4 -4 -10z"/>
<path d="M8036 2991 c-10 -16 5 -39 30 -45 13 -4 24 -14 24 -22 0 -13 -7 -15
-32 -10 -24 5 -29 3 -21 -5 18 -18 68 -7 71 17 2 16 -4 24 -27 32 -41 15 -41
37 -1 28 19 -3 29 -2 25 4 -8 13 -62 13 -69 1z"/>
<path d="M8142 2950 c20 -49 20 -51 2 -72 -14 -16 -15 -20 -4 -17 8 3 25 25
37 49 28 58 38 95 25 86 -6 -3 -13 -20 -17 -36 -9 -39 -18 -38 -34 5 -7 19
-16 35 -21 35 -5 0 0 -23 12 -50z"/>
<path d="M8237 2993 c-16 -15 -5 -35 23 -45 37 -12 34 -34 -4 -31 -14 1 -24
-2 -21 -8 9 -14 51 -11 65 6 15 18 8 29 -30 45 -35 14 -29 35 7 25 16 -4 22
-2 18 5 -7 11 -48 14 -58 3z"/>
<path d="M8386 2984 c-10 -25 -7 -59 6 -72 14 -14 54 -16 63 -3 3 6 -7 9 -22
8 -19 -1 -28 3 -31 16 -3 14 4 17 32 17 39 0 41 2 26 31 -13 24 -65 26 -74 3z
m62 -11 c2 -8 -6 -13 -22 -13 -25 0 -33 10 -19 24 10 10 36 3 41 -11z"/>
<path d="M8490 2948 c0 -59 18 -64 22 -6 2 31 8 44 21 46 14 3 17 -4 17 -42 0
-58 18 -61 22 -4 2 31 8 44 21 46 14 3 17 -4 17 -44 0 -26 2 -45 4 -43 8 8 13
77 7 88 -4 6 -33 9 -69 8 l-62 -2 0 -47z"/>
<path d="M970 2970 c0 -5 5 -10 10 -10 6 0 10 5 10 10 0 6 -4 10 -10 10 -5 0
-10 -4 -10 -10z"/>
<path d="M2080 2970 c0 -5 5 -10 11 -10 5 0 7 5 4 10 -3 6 -8 10 -11 10 -2 0
-4 -4 -4 -10z"/>
<path d="M1005 2950 c3 -5 8 -10 11 -10 2 0 4 5 4 10 0 6 -5 10 -11 10 -5 0
-7 -4 -4 -10z"/>
<path d="M1060 2949 c0 -5 5 -7 10 -4 6 3 10 8 10 11 0 2 -4 4 -10 4 -5 0 -10
-5 -10 -11z"/>
<path d="M1110 2950 c0 -5 5 -10 10 -10 6 0 10 5 10 10 0 6 -4 10 -10 10 -5 0
-10 -4 -10 -10z"/>
<path d="M1160 2950 c0 -5 5 -10 10 -10 6 0 10 5 10 10 0 6 -4 10 -10 10 -5 0
-10 -4 -10 -10z"/>
<path d="M1215 2950 c3 -5 8 -10 11 -10 2 0 4 5 4 10 0 6 -5 10 -11 10 -5 0
-7 -4 -4 -10z"/>
<path d="M1370 2950 c0 -5 5 -10 10 -10 6 0 10 5 10 10 0 6 -4 10 -10 10 -5 0
-10 -4 -10 -10z"/>
<path d="M1420 2950 c0 -5 5 -10 10 -10 6 0 10 5 10 10 0 6 -4 10 -10 10 -5 0
-10 -4 -10 -10z"/>
<path d="M1470 2950 c0 -5 5 -10 10 -10 6 0 10 5 10 10 0 6 -4 10 -10 10 -5 0
-10 -4 -10 -10z"/>
<path d="M1525 2950 c3 -5 8 -10 11 -10 2 0 4 5 4 10 0 6 -5 10 -11 10 -5 0
-7 -4 -4 -10z"/>
<path d="M1630 2949 c0 -5 5 -7 10 -4 6 3 10 8 10 11 0 2 -4 4 -10 4 -5 0 -10
-5 -10 -11z"/>
<path d="M1680 2949 c0 -5 5 -7 10 -4 6 3 10 8 10 11 0 2 -4 4 -10 4 -5 0 -10
-5 -10 -11z"/>
<path d="M1730 2950 c0 -5 5 -10 10 -10 6 0 10 5 10 10 0 6 -4 10 -10 10 -5 0
-10 -4 -10 -10z"/>
<path d="M1785 2950 c3 -5 8 -10 11 -10 2 0 4 5 4 10 0 6 -5 10 -11 10 -5 0
-7 -4 -4 -10z"/>
<path d="M1835 2950 c3 -5 8 -10 11 -10 2 0 4 5 4 10 0 6 -5 10 -11 10 -5 0
-7 -4 -4 -10z"/>
<path d="M1940 2950 c0 -5 5 -10 10 -10 6 0 10 5 10 10 0 6 -4 10 -10 10 -5 0
-10 -4 -10 -10z"/>
<path d="M1990 2950 c0 -5 5 -10 10 -10 6 0 10 5 10 10 0 6 -4 10 -10 10 -5 0
-10 -4 -10 -10z"/>
<path d="M2040 2950 c0 -5 5 -10 10 -10 6 0 10 5 10 10 0 6 -4 10 -10 10 -5 0
-10 -4 -10 -10z"/>
<path d="M903 2773 c15 -2 37 -2 50 0 12 2 0 4 -28 4 -27 0 -38 -2 -22 -4z"/>
<path d="M1103 2773 c26 -2 68 -2 95 0 26 2 4 3 -48 3 -52 0 -74 -1 -47 -3z"/>
<path d="M1373 2773 c26 -2 67 -2 90 0 23 2 2 3 -48 3 -49 0 -68 -1 -42 -3z"/>
<path d="M1643 2773 c26 -2 67 -2 90 0 23 2 2 3 -48 3 -49 0 -68 -1 -42 -3z"/>
<path d="M1903 2773 c26 -2 68 -2 95 0 26 2 4 3 -48 3 -52 0 -74 -1 -47 -3z"/>
<path d="M2173 2773 c26 -2 67 -2 90 0 23 2 2 3 -48 3 -49 0 -68 -1 -42 -3z"/>
<path d="M2443 2773 c26 -2 67 -2 90 0 23 2 2 3 -48 3 -49 0 -68 -1 -42 -3z"/>
<path d="M2703 2773 c26 -2 68 -2 95 0 26 2 4 3 -48 3 -52 0 -74 -1 -47 -3z"/>
<path d="M2973 2773 c26 -2 67 -2 90 0 23 2 2 3 -48 3 -49 0 -68 -1 -42 -3z"/>
<path d="M3243 2773 c26 -2 67 -2 90 0 23 2 2 3 -48 3 -49 0 -68 -1 -42 -3z"/>
<path d="M3503 2773 c26 -2 68 -2 95 0 26 2 4 3 -48 3 -52 0 -74 -1 -47 -3z"/>
<path d="M5378 2773 c23 -2 61 -2 85 0 23 2 4 4 -43 4 -47 0 -66 -2 -42 -4z"/>
<path d="M5643 2773 c26 -2 68 -2 95 0 26 2 4 3 -48 3 -52 0 -74 -1 -47 -3z"/>
<path d="M5913 2773 c26 -2 67 -2 90 0 23 2 2 3 -48 3 -49 0 -68 -1 -42 -3z"/>
<path d="M6173 2773 c26 -2 68 -2 95 0 26 2 4 3 -48 3 -52 0 -74 -1 -47 -3z"/>
<path d="M6443 2773 c26 -2 67 -2 90 0 23 2 2 3 -48 3 -49 0 -68 -1 -42 -3z"/>
<path d="M6713 2773 c26 -2 67 -2 90 0 23 2 2 3 -48 3 -49 0 -68 -1 -42 -3z"/>
<path d="M6983 2773 c26 -2 67 -2 90 0 23 2 2 3 -48 3 -49 0 -68 -1 -42 -3z"/>
<path d="M7513 2773 c26 -2 67 -2 90 0 23 2 2 3 -48 3 -49 0 -68 -1 -42 -3z"/>
<path d="M7773 2773 c26 -2 68 -2 95 0 26 2 4 3 -48 3 -52 0 -74 -1 -47 -3z"/>
<path d="M8043 2773 c26 -2 67 -2 90 0 23 2 2 3 -48 3 -49 0 -68 -1 -42 -3z"/>
<path d="M8303 2773 c26 -2 67 -2 90 0 23 2 2 3 -48 3 -49 0 -68 -1 -42 -3z"/>
<path d="M8553 2773 c15 -2 37 -2 50 0 12 2 0 4 -28 4 -27 0 -38 -2 -22 -4z"/>
<path d="M8222 2701 c-9 -26 -2 -121 9 -121 5 0 9 20 9 45 0 33 4 45 15 45 11
0 15 -12 15 -45 0 -25 5 -45 10 -45 6 0 10 20 10 45 0 29 4 45 13 45 8 0 8 3
-2 9 -12 8 -12 12 -2 25 11 14 11 16 -4 16 -9 0 -19 -9 -22 -20 -3 -11 -12
-20 -19 -20 -17 0 -18 12 -2 28 9 9 8 12 -5 12 -10 0 -21 -9 -25 -19z"/>
<path d="M8320 2650 c0 -40 4 -70 10 -70 6 0 10 30 10 70 0 40 -4 70 -10 70
-6 0 -10 -30 -10 -70z"/>
<path d="M8365 2710 c3 -5 8 -10 11 -10 2 0 4 5 4 10 0 6 -5 10 -11 10 -5 0
-7 -4 -4 -10z"/>
<path d="M8076 2688 c-34 -49 -7 -108 49 -108 43 0 65 22 65 65 0 43 -22 65
-65 65 -24 0 -39 -7 -49 -22z m84 -3 c29 -35 7 -95 -34 -95 -30 0 -46 18 -46
51 0 49 52 78 80 44z"/>
<path d="M8360 2630 c0 -27 5 -50 10 -50 6 0 10 23 10 50 0 28 -4 50 -10 50
-5 0 -10 -22 -10 -50z"/>
<path d="M8412 2625 c1 -42 2 -44 5 -13 8 70 53 76 53 7 0 -21 5 -39 10 -39
12 0 13 69 2 87 -4 7 -22 12 -40 10 -32 -2 -32 -2 -30 -52z"/>
<path d="M8520 2661 c-13 -26 -13 -54 2 -69 13 -13 68 -17 68 -4 0 4 -12 8
-27 7 -18 0 -29 6 -31 18 -3 14 4 17 32 17 23 0 36 5 36 13 0 37 -62 51 -80
18z m58 -8 c2 -8 -6 -13 -22 -13 -25 0 -33 10 -19 24 10 10 36 3 41 -11z"/>
<path d="M8328 2458 c-9 -23 7 -111 20 -116 14 -4 17 14 3 22 -5 3 -5 22 -1
42 9 37 4 64 -10 64 -4 0 -10 -6 -12 -12z"/>
<path d="M8040 2435 c-10 -12 -10 -18 0 -30 7 -8 18 -15 26 -15 19 0 28 -20
15 -33 -8 -8 -14 -8 -23 1 -14 14 -28 16 -28 3 0 -5 9 -13 20 -16 56 -18 85
37 30 56 -16 6 -30 15 -30 19 0 14 27 19 39 7 6 -6 14 -7 18 -3 9 9 -16 26
-38 26 -9 0 -22 -7 -29 -15z"/>
<path d="M8122 2440 c3 -8 14 -35 24 -59 17 -42 17 -44 -1 -57 -10 -8 -16 -17
-12 -20 13 -13 35 17 57 77 26 68 21 92 -5 27 l-18 -43 -11 32 c-6 18 -17 38
-25 45 -12 11 -13 10 -9 -2z"/>
<path d="M8243 2443 c-24 -9 -14 -41 17 -52 17 -5 30 -14 30 -20 0 -17 -19
-22 -40 -11 -12 6 -20 7 -20 1 0 -16 38 -23 60 -11 29 15 25 28 -16 52 -25 15
-32 23 -23 29 7 4 21 3 31 -2 11 -6 18 -6 18 0 0 16 -33 24 -57 14z"/>
<path d="M8392 2438 c-20 -20 -15 -76 8 -88 22 -12 60 -5 60 11 0 6 -7 6 -19
-1 -15 -8 -24 -6 -37 8 -17 16 -16 17 24 20 46 3 49 7 26 40 -17 24 -43 29
-62 10z m53 -28 c-6 -10 -45 -1 -45 10 0 13 24 18 37 8 7 -6 11 -14 8 -18z"/>
<path d="M8490 2393 c0 -29 4 -53 10 -53 5 0 9 18 8 41 -1 25 4 44 12 49 22
14 30 2 30 -46 0 -25 4 -43 9 -40 5 3 9 22 8 42 -1 34 17 59 35 48 4 -3 8 -25
8 -50 0 -25 4 -43 9 -40 12 8 6 85 -8 99 -9 9 -16 9 -31 -1 -11 -7 -21 -8 -25
-2 -3 5 -19 8 -35 7 -29 -2 -30 -3 -30 -54z"/>
<path d="M7767 1913 c-4 -3 -7 -14 -7 -23 0 -13 -6 -16 -24 -13 -30 6 -50 -26
-41 -67 7 -32 26 -43 61 -34 22 6 24 11 24 75 0 69 -1 75 -13 62z m-9 -87 c3
-34 1 -37 -20 -34 -17 2 -24 11 -26 32 -4 28 13 49 33 43 6 -2 11 -20 13 -41z"/>
<path d="M8140 1896 c0 -19 -4 -22 -25 -19 -19 4 -27 0 -36 -20 -13 -29 -6
-72 14 -80 7 -3 25 -3 40 0 26 5 27 7 27 74 0 39 -4 69 -10 69 -5 0 -10 -11
-10 -24z m-5 -66 c0 -28 -4 -35 -20 -35 -13 0 -21 8 -23 23 -5 34 5 54 25 50
13 -2 18 -13 18 -38z"/>
<path d="M7450 1860 c0 -37 5 -55 20 -70 24 -24 38 -25 68 -4 18 12 22 25 22
70 0 31 -4 53 -9 50 -5 -4 -9 -26 -9 -51 1 -52 -10 -68 -43 -63 -22 3 -24 9
-27 61 -4 70 -22 76 -22 7z"/>
<path d="M7917 1887 c-8 -22 8 -110 21 -115 6 -2 12 1 12 7 0 6 -4 11 -10 11
-13 0 -13 63 -1 76 6 5 4 14 -4 21 -10 9 -14 9 -18 0z"/>
<path d="M7590 1808 c0 -39 4 -68 10 -68 6 0 10 9 10 19 0 14 5 18 19 14 29
-7 56 38 44 74 -8 24 -15 28 -46 28 l-37 1 0 -68z m60 48 c18 -23 8 -61 -17
-64 -20 -3 -23 1 -23 31 0 47 16 61 40 33z"/>
<path d="M7817 1873 c-14 -13 -7 -25 8 -13 15 13 45 7 45 -8 0 -5 -14 -12 -30
-16 -37 -7 -49 -32 -26 -54 13 -13 20 -14 34 -5 12 7 24 8 35 2 14 -8 15 -4
10 28 -3 21 -10 46 -15 56 -9 17 -48 24 -61 10z m51 -60 c-4 -23 -48 -31 -48
-10 0 9 6 18 13 20 25 11 38 7 35 -10z"/>
<path d="M7982 1868 c-22 -29 -23 -57 -3 -77 25 -25 31 -26 57 -7 18 13 17 14
-15 13 -19 -1 -36 3 -38 11 -3 8 7 12 31 12 42 0 50 10 30 38 -17 24 -46 29
-62 10z m47 -12 c9 -11 6 -15 -14 -18 -30 -6 -39 1 -24 19 14 17 24 17 38 -1z"/>
<path d="M7888 1653 c0 -16 0 -39 1 -51 2 -24 -14 -52 -30 -52 -14 0 -30 40
-24 60 4 12 15 20 28 20 15 0 18 3 10 11 -20 20 -53 -7 -53 -45 0 -41 16 -56
55 -52 30 3 30 3 30 70 0 63 -13 95 -17 39z"/>
<path d="M8040 1610 c0 -40 4 -70 10 -70 6 0 10 30 10 70 0 40 -4 70 -10 70
-6 0 -10 -30 -10 -70z"/>
<path d="M7562 1603 l1 -68 6 59 6 59 19 -56 c11 -31 23 -57 27 -57 4 0 16 24
26 53 l18 52 3 -53 c4 -71 22 -56 22 19 0 76 -22 80 -47 9 -10 -27 -20 -50
-24 -50 -3 0 -12 21 -20 47 -23 73 -39 67 -37 -14z"/>
<path d="M7740 1643 c-21 -8 -30 -24 -30 -53 0 -31 17 -50 45 -50 12 0 26 5
33 12 17 17 15 64 -4 82 -16 17 -20 18 -44 9z m38 -50 c-2 -30 -7 -38 -23 -38
-13 0 -21 8 -23 23 -5 34 5 52 28 52 18 0 21 -5 18 -37z"/>
<path d="M7948 1639 c-22 -12 -24 -71 -4 -89 18 -14 58 -10 64 8 3 11 0 11
-16 1 -17 -10 -23 -10 -36 0 -26 22 -19 31 24 31 45 0 50 10 20 40 -23 23 -28
24 -52 9z m50 -26 c2 -8 -6 -13 -22 -13 -17 0 -26 5 -26 16 0 19 41 16 48 -3z"/>
<path d="M1230 1400 c-109 -14 -206 -39 -243 -64 l-32 -22 -3 -433 c-2 -337 1
-437 10 -449 21 -25 87 -49 183 -68 128 -25 548 -26 684 -1 101 19 178 47 186
70 3 7 7 107 8 223 l2 209 743 3 c737 2 742 2 742 -18 0 -11 4 -20 8 -20 13 0
133 42 130 45 -4 4 -125 45 -133 45 -3 0 -5 -9 -5 -20 0 -20 -7 -20 -739 -20
l-739 0 -6 26 c-4 15 -6 111 -5 214 1 103 -2 193 -5 199 -13 21 -70 43 -160
63 -72 15 -140 20 -321 23 -126 2 -264 0 -305 -5z m529 -25 c143 -18 236 -49
236 -80 0 -42 -176 -80 -428 -91 -273 -12 -587 37 -587 91 0 72 459 119 779
80z m-669 -155 c237 -59 688 -50 864 16 21 8 40 13 42 11 3 -3 5 -230 4 -595
l0 -213 -43 -19 c-90 -40 -216 -54 -467 -54 -260 0 -386 15 -468 56 l-47 23
-3 404 -2 403 22 -7 c13 -4 57 -15 98 -25z"/>
<path d="M1077 968 c-39 -97 -45 -118 -38 -118 6 0 13 9 16 20 9 30 71 28 78
-2 4 -12 9 -19 13 -15 4 3 -3 33 -16 67 -21 57 -42 75 -53 48z m43 -60 c0 -5
-11 -8 -25 -8 -29 0 -29 0 -13 35 l12 26 13 -23 c7 -13 12 -26 13 -30z"/>
<path d="M1591 913 c1 -38 4 -56 6 -40 4 24 8 27 44 27 21 0 39 5 39 10 0 6
-17 10 -38 10 -33 0 -38 3 -40 24 -1 22 3 25 41 29 l42 4 -47 1 -48 2 1 -67z"/>
<path d="M1908 959 c-2 -6 -1 -32 2 -57 4 -37 9 -47 25 -50 13 -2 16 0 8 5
-17 12 -21 75 -5 81 9 3 8 7 -2 18 -17 17 -23 18 -28 3z"/>
<path d="M1340 952 c-21 -7 -30 -23 -30 -52 0 -32 17 -50 47 -50 25 0 46 31
41 62 -4 25 -37 48 -58 40z m35 -52 c0 -41 -27 -53 -45 -21 -14 27 4 64 28 59
12 -2 17 -13 17 -38z"/>
<path d="M1183 926 c14 -20 14 -26 2 -42 -22 -29 -17 -42 5 -16 l19 23 13 -20
c7 -12 17 -21 22 -21 4 0 1 12 -9 26 -15 23 -15 27 0 50 8 13 11 24 6 24 -6 0
-15 -8 -20 -17 -10 -17 -12 -17 -25 0 -20 26 -31 21 -13 -7z"/>
<path d="M1270 900 c0 -27 5 -50 10 -50 6 0 10 23 10 50 0 28 -4 50 -10 50 -5
0 -10 -22 -10 -50z"/>
<path d="M1420 899 c0 -60 18 -65 22 -6 2 34 7 42 23 42 16 0 21 -9 26 -45 l7
-45 -2 50 -1 50 -37 2 -38 1 0 -49z"/>
<path d="M1705 940 c-4 -6 4 -9 24 -8 39 4 44 -15 5 -22 -23 -4 -29 -10 -29
-30 0 -23 4 -25 48 -26 35 -1 45 1 38 10 -5 6 -11 27 -13 46 -3 31 -7 35 -35
38 -17 2 -34 -2 -38 -8z m55 -54 c0 -8 -7 -17 -16 -20 -23 -9 -24 -8 -24 14 0
13 7 20 20 20 11 0 20 -6 20 -14z"/>
<path d="M1817 944 c-11 -12 -8 -69 5 -82 16 -16 43 -15 58 3 15 18 -1 20 -18
3 -8 -8 -15 -8 -27 2 -17 14 -19 38 -5 60 8 13 13 13 31 2 18 -11 20 -11 17 0
-5 14 -50 23 -61 12z"/>
<path d="M1279 734 c-19 -23 0 -47 45 -57 26 -7 36 -14 34 -26 -4 -20 -58 -28
-69 -10 -4 8 -11 10 -15 6 -11 -10 6 -24 38 -32 19 -5 32 -1 47 14 27 27 19
45 -30 64 -21 8 -39 20 -39 27 0 17 31 24 52 11 22 -13 34 -9 23 8 -10 17 -71
13 -86 -5z"/>
<path d="M1399 728 c-6 -76 10 -126 35 -111 6 4 5 8 -2 11 -15 5 -16 82 -1 82
6 0 4 7 -5 15 -18 18 -26 19 -27 3z"/>
<path d="M1462 708 c-14 -14 -16 -57 -3 -77 5 -7 21 -13 36 -13 31 0 45 16 45
53 0 30 -17 49 -45 49 -12 0 -26 -5 -33 -12z m53 -38 c0 -28 -4 -35 -20 -35
-13 0 -21 8 -23 23 -5 34 5 54 25 50 13 -2 18 -13 18 -38z"/>
<path d="M1560 669 c0 -27 5 -49 10 -49 6 0 10 14 10 32 0 17 7 39 15 48 15
16 14 18 -10 18 -23 0 -25 -4 -25 -49z"/>
<path d="M1636 704 c-39 -38 6 -110 53 -84 29 15 26 18 -10 16 -18 0 -34 5
-36 12 -3 8 7 12 31 12 28 0 36 4 36 18 0 39 -45 55 -74 26z m54 -9 c11 -13 8
-15 -20 -15 -28 0 -31 2 -20 15 7 8 16 15 20 15 4 0 13 -7 20 -15z"/>
<path d="M3694 1396 c-18 -14 -19 -31 -19 -521 0 -490 1 -507 19 -521 17 -12
127 -14 691 -14 638 0 673 1 688 18 15 16 17 49 17 259 0 210 2 242 16 247 9
3 285 6 615 6 599 0 599 0 599 -21 0 -22 -4 -22 93 8 26 9 47 17 47 18 0 2
-25 11 -55 19 -30 9 -61 19 -68 22 -9 3 -16 -3 -20 -16 -5 -20 -6 -20 -614
-18 l-608 3 -5 253 c-4 210 -8 254 -20 262 -9 6 -281 10 -686 10 -563 0 -673
-2 -690 -14z m1364 -18 c17 -17 17 -989 0 -1006 -9 -9 -173 -12 -674 -12 -589
0 -664 2 -678 16 -13 13 -16 45 -16 192 l0 177 90 -4 c50 -1 101 0 114 3 33 8
46 47 46 141 0 121 -8 128 -146 123 l-104 -3 0 173 c0 100 4 181 10 193 10 18
29 19 678 19 506 0 671 -3 680 -12z m-1154 -410 c11 -15 16 -46 16 -95 0 -100
-13 -113 -117 -113 -104 0 -113 9 -113 113 0 109 8 117 116 117 74 0 84 -2 98
-22z"/>
<path d="M4147 1189 c-38 -22 -41 -98 -4 -121 26 -16 66 -8 86 18 27 35 26 59
-4 89 -26 27 -49 31 -78 14z m75 -34 c17 -39 -3 -75 -42 -75 -39 0 -59 36 -42
75 9 19 19 25 42 25 23 0 33 -6 42 -25z"/>
<path d="M4272 1181 c-9 -26 -2 -121 9 -121 5 0 9 20 9 45 0 33 4 45 15 45 11
0 15 -12 15 -45 0 -25 5 -45 10 -45 6 0 10 20 10 44 0 26 5 46 13 49 10 4 10
6 0 6 -7 1 -13 7 -13 15 0 8 6 17 13 19 7 3 4 6 -6 6 -11 1 -21 -8 -24 -19 -6
-22 -18 -26 -29 -9 -3 6 0 15 7 20 11 7 10 9 -4 9 -10 0 -21 -9 -25 -19z"/>
<path d="M4370 1136 c0 -36 5 -68 10 -71 6 -4 10 20 10 64 0 41 -4 71 -10 71
-6 0 -10 -28 -10 -64z"/>
<path d="M4483 1163 c-20 -4 -23 -11 -23 -54 0 -27 5 -49 10 -49 6 0 10 18 10
40 0 27 5 43 15 47 22 8 27 0 27 -41 0 -20 4 -39 9 -42 14 -8 11 80 -3 94 -7
7 -14 11 -17 11 -4 -1 -16 -4 -28 -6z"/>
<path d="M4580 1150 c-46 -46 5 -115 60 -80 8 5 11 12 7 16 -3 4 -13 1 -22 -6
-12 -10 -18 -10 -30 0 -24 20 -17 30 20 30 28 0 35 4 35 20 0 10 -9 24 -19 30
-26 13 -28 13 -51 -10z m58 -17 c2 -9 -7 -13 -27 -13 -30 0 -39 9 -24 24 11
10 46 3 51 -11z"/>
<path d="M4423 1110 c0 -30 2 -43 4 -27 2 15 2 39 0 55 -2 15 -4 2 -4 -28z"/>
<path d="M4071 893 c1 -38 4 -56 6 -40 4 24 8 27 44 27 24 0 38 4 34 10 -3 6
-22 10 -41 10 -29 0 -34 3 -34 24 0 22 5 25 43 29 l42 4 -47 1 -48 2 1 -67z"/>
<path d="M4398 940 c-1 -5 -1 -32 0 -60 3 -44 7 -50 25 -50 20 1 20 2 4 11
-13 7 -16 18 -12 42 4 18 10 33 15 35 6 2 3 10 -4 18 -17 17 -23 18 -28 4z"/>
<path d="M4191 916 c-7 -8 -11 -30 -9 -48 3 -28 7 -33 32 -36 16 -2 34 2 40 8
8 9 4 10 -18 4 -19 -4 -31 -2 -36 7 -13 20 -2 29 36 29 37 0 39 2 24 31 -12
22 -52 25 -69 5z m43 -2 c27 -10 18 -24 -15 -24 -27 0 -30 2 -19 15 14 17 13
17 34 9z"/>
<path d="M4297 923 c-14 -13 -7 -25 8 -13 16 13 45 7 45 -10 0 -5 -11 -10 -25
-10 -26 0 -48 -29 -36 -48 3 -6 25 -10 47 -10 37 2 40 4 37 28 -10 66 -13 70
-42 70 -15 0 -31 -3 -34 -7z m53 -57 c0 -18 -30 -30 -43 -17 -5 5 -6 14 -3 20
10 16 46 13 46 -3z"/>
<path d="M4452 883 c3 -48 3 -48 41 -49 l37 -1 -2 51 c-1 41 -2 44 -5 16 -9
-73 -53 -85 -53 -15 0 25 -5 45 -11 45 -6 0 -9 -19 -7 -47z"/>
<path d="M4560 878 c0 -27 5 -48 10 -48 6 0 10 18 10 40 0 26 5 42 17 49 14 7
12 9 -10 8 -25 -2 -27 -5 -27 -49z"/>
<path d="M4632 918 c-7 -7 -12 -24 -12 -38 0 -14 5 -31 12 -38 14 -14 54 -16
63 -3 3 6 -7 9 -22 8 -19 -1 -28 3 -31 16 -3 14 4 17 32 17 23 0 36 5 36 13 0
19 -21 37 -45 37 -12 0 -26 -5 -33 -12z m56 -15 c2 -8 -6 -13 -22 -13 -25 0
-33 10 -19 24 10 10 36 3 41 -11z"/>
<path d="M3982 714 c-19 -13 -22 -24 -20 -57 2 -33 9 -44 30 -56 38 -22 82 -5
86 32 3 23 0 27 -22 27 -14 0 -26 -4 -26 -9 0 -5 8 -8 18 -7 9 0 17 -6 17 -14
0 -10 -12 -16 -38 -18 -32 -3 -38 0 -47 22 -15 41 3 76 39 76 16 0 33 -5 36
-10 4 -6 11 -7 17 -4 15 9 -19 34 -47 34 -11 0 -31 -7 -43 -16z"/>
<path d="M4608 708 c-3 -7 -2 -35 1 -63 5 -39 10 -51 26 -54 17 -3 18 -1 6 12
-7 9 -12 33 -11 54 4 51 2 63 -9 63 -5 0 -11 -6 -13 -12z"/>
<path d="M4122 688 c-17 -17 -15 -73 3 -88 16 -13 65 -6 65 10 0 13 -13 13
-27 -1 -7 -7 -16 -5 -29 8 -17 17 -16 18 24 21 46 3 49 7 26 40 -17 24 -43 29
-62 10z m56 -25 c2 -8 -6 -13 -22 -13 -26 0 -40 12 -29 24 11 11 46 2 51 -11z"/>
<path d="M4220 642 c0 -35 4 -51 11 -47 6 4 8 14 5 22 -10 26 5 63 25 63 15 0
19 -7 19 -39 0 -22 5 -43 10 -46 12 -7 14 74 2 92 -4 7 -22 12 -40 10 -32 -2
-32 -2 -32 -55z"/>
<path d="M4336 684 c-9 -8 -16 -26 -16 -39 0 -46 53 -72 80 -40 14 17 3 20
-20 5 -9 -5 -19 -5 -27 2 -22 18 -14 28 22 28 27 0 35 4 35 18 0 39 -45 55
-74 26z m57 -19 c-2 -5 -14 -11 -28 -12 -25 -2 -32 7 -18 21 10 10 48 3 46 -9z"/>
<path d="M4430 649 c0 -26 5 -51 10 -54 6 -4 10 10 10 35 0 27 5 43 15 46 23
9 18 22 -10 22 -23 0 -25 -4 -25 -49z"/>
<path d="M4510 685 c-11 -13 -8 -14 19 -9 40 8 42 -12 1 -21 -23 -5 -30 -12
-30 -31 0 -29 21 -40 49 -24 14 7 21 7 21 0 0 -5 4 -10 9 -10 11 0 2 81 -12
98 -13 16 -42 15 -57 -3z m48 -57 c-5 -15 -48 -24 -48 -10 0 14 12 22 33 22
10 0 17 -5 15 -12z"/>
<path d="M4672 688 c-7 -7 -12 -26 -12 -43 0 -17 5 -36 12 -43 28 -28 78 -1
78 43 0 44 -50 71 -78 43z m56 -36 c2 -13 -2 -29 -8 -37 -19 -23 -40 -6 -40
32 0 30 3 34 23 31 14 -2 23 -11 25 -26z"/>
<path d="M4770 642 c0 -33 4 -51 10 -47 6 3 10 22 10 41 0 22 6 37 15 40 24 9
17 22 -10 20 -23 -1 -25 -5 -25 -54z"/>
</g>
</svg>
