<?xml version="1.0" standalone="no"?>
<!DOCTYPE svg PUBLIC "-//W3C//DTD SVG 20010904//EN"
 "http://www.w3.org/TR/2001/REC-SVG-20010904/DTD/svg10.dtd">
<svg version="1.0" xmlns="http://www.w3.org/2000/svg"
 width="930.000000pt" height="711.000000pt" viewBox="0 0 930.000000 711.000000"
 preserveAspectRatio="xMidYMid meet">
<metadata>
Created by potrace 1.16, written by Peter Selinger 2001-2019
</metadata>
<g transform="translate(0.000000,711.000000) scale(0.100000,-0.100000)"
fill="#000000" stroke="none">
<path d="M1060 6030 c-19 -19 -20 -33 -20 -394 0 -413 -2 -399 63 -411 18 -3
204 -5 414 -3 351 3 384 4 400 21 16 15 19 43 23 200 l5 182 412 3 c364 2 413
0 427 -14 14 -13 16 -51 16 -273 0 -216 2 -261 15 -271 13 -11 13 -14 0 -27
-11 -11 -15 -41 -15 -122 0 -89 -3 -111 -17 -122 -13 -11 -97 -15 -430 -17
l-413 -3 0 121 c0 115 -1 122 -25 145 l-24 25 -406 0 c-392 0 -406 -1 -425
-20 -19 -19 -20 -33 -20 -267 0 -137 4 -253 8 -259 21 -32 53 -34 447 -34
l396 0 24 25 c24 23 25 30 25 139 l0 115 406 1 c248 0 413 4 424 10 10 6 21
10 24 10 3 0 6 -305 6 -678 0 -527 -3 -682 -12 -695 -12 -15 -55 -17 -431 -19
l-417 -3 0 142 c0 151 -8 187 -44 197 -11 3 -200 6 -418 6 -385 0 -399 -1
-418 -20 -19 -19 -20 -33 -20 -328 0 -250 3 -312 14 -328 14 -18 32 -19 429
-22 l415 -3 21 27 c19 24 21 40 21 170 l0 143 421 3 c403 3 421 4 435 22 12
17 14 145 14 817 0 712 2 799 16 813 13 14 59 16 350 16 331 0 334 0 334 -21
0 -22 -3 -23 99 11 l53 18 -76 24 c-72 24 -76 24 -76 7 0 -18 -15 -19 -338
-19 -250 0 -341 3 -350 12 -9 9 -12 82 -12 268 0 236 -1 258 -18 273 -17 15
-62 17 -435 17 l-417 0 0 176 c0 170 -6 207 -34 226 -6 4 -194 8 -418 8 -395
0 -409 -1 -428 -20z m839 -14 c8 -9 11 -120 9 -387 l-3 -374 -399 -5 c-264 -3
-407 -2 -420 5 -21 10 -21 18 -24 377 -2 323 0 368 14 382 14 14 64 16 413 16
325 0 401 -3 410 -14z m-8 -976 c18 -10 19 -24 19 -260 0 -236 -1 -250 -19
-260 -30 -16 -769 -13 -801 3 l-25 13 -3 239 c-2 235 -2 240 19 258 19 15 54
17 406 17 246 0 391 -4 404 -10z m7 -1332 c17 -17 17 -619 0 -636 -9 -9 -113
-12 -407 -12 -353 0 -396 2 -413 17 -17 15 -18 38 -18 311 0 261 2 298 17 314
15 17 41 18 413 18 295 0 399 -3 408 -12z"/>
<path d="M3713 5590 c-12 -5 -26 -18 -32 -29 -17 -31 -15 -992 2 -1015 7 -9
32 -20 55 -23 l42 -6 0 -416 c0 -311 -3 -420 -12 -429 -9 -9 -88 -12 -293 -12
-238 0 -284 -2 -303 -16 l-22 -15 0 -803 c0 -765 -1 -804 -18 -819 -17 -16
-88 -17 -815 -17 -784 0 -797 0 -817 -20 -19 -19 -20 -33 -20 -210 0 -179 -1
-190 -19 -190 -18 0 -18 -2 3 -69 11 -38 23 -67 26 -64 3 2 14 33 25 68 l21
64 -20 3 c-20 3 -21 10 -24 182 -2 148 0 183 13 202 l15 24 804 0 c765 0 804
1 819 18 16 17 17 88 17 815 0 784 0 797 20 817 19 19 33 20 299 20 241 0 282
2 295 16 14 13 16 51 16 259 0 185 3 245 13 248 9 4 9 7 -1 14 -9 7 -12 48
-10 169 l3 159 631 5 c515 4 634 8 647 19 15 12 17 43 17 262 l0 249 441 0
c242 0 438 -4 435 -8 -2 -4 -2 -13 2 -19 5 -7 29 -3 77 12 39 13 63 25 55 28
-39 14 -114 37 -121 37 -3 0 -9 -9 -12 -20 -5 -20 -12 -20 -439 -18 l-433 3
-5 252 c-4 188 -8 255 -18 265 -10 10 -148 13 -675 15 -370 1 -672 -2 -684 -7z
m1351 -36 c3 -9 6 -235 6 -503 0 -365 -3 -490 -12 -499 -9 -9 -149 -12 -568
-12 l-556 0 4 103 c3 94 2 104 -18 125 -21 22 -28 24 -126 20 l-104 -3 0 381
c0 282 3 383 12 392 9 9 175 12 684 12 603 0 672 -2 678 -16z m-1160 -806 c11
-15 16 -46 16 -95 0 -100 -13 -113 -117 -113 -104 0 -113 9 -113 113 0 109 8
117 116 117 74 0 84 -2 98 -22z"/>
<path d="M6170 5589 c-13 -6 -28 -15 -32 -22 -4 -7 -8 -238 -8 -514 l0 -502
22 -15 c20 -14 102 -16 690 -16 655 0 668 0 688 20 19 19 20 33 20 518 0 494
0 499 -21 518 -20 18 -48 19 -678 21 -418 1 -665 -2 -681 -8z m1348 -31 c9 -9
12 -134 12 -499 0 -430 -2 -489 -16 -503 -14 -14 -88 -16 -670 -16 -433 0
-662 4 -675 10 -18 10 -19 27 -19 503 0 370 3 496 12 505 17 17 1339 17 1356
0z"/>
<path d="M4358 4437 c-24 -76 -24 -76 -4 -79 21 -3 21 -6 21 -508 l0 -505
-340 -5 -339 -5 -13 -25 c-10 -19 -13 -118 -13 -400 l0 -375 35 -23 c19 -12
35 -30 35 -40 0 -9 16 -28 35 -41 19 -13 35 -32 35 -42 0 -21 97 -89 190 -131
103 -48 244 -62 325 -33 22 8 43 15 48 15 4 0 7 -149 7 -331 0 -322 -1 -331
-20 -336 -25 -7 -25 -5 2 -83 l21 -64 17 49 c34 99 33 95 11 95 -21 0 -21 1
-19 342 l3 342 90 48 c120 63 172 74 272 58 92 -14 179 -52 269 -115 36 -25
66 -45 67 -45 1 0 2 127 2 282 l0 283 75 5 75 6 -75 4 -75 5 -3 179 c-3 183
-7 206 -42 206 -11 0 -20 10 -25 27 -8 35 -23 53 -52 64 -13 5 -23 16 -23 26
-1 47 -4 48 -287 53 l-268 5 -3 200 -2 200 1372 -3 c1202 -2 1375 -4 1395 -17
l23 -15 2 -468 c2 -257 2 -774 0 -1149 l-2 -683 -334 0 c-310 0 -334 -1 -349
-18 -15 -17 -17 -67 -17 -519 0 -472 1 -501 18 -516 17 -16 79 -17 688 -17
590 0 672 2 692 16 l22 15 0 503 c0 475 -1 504 -18 519 -17 15 -56 17 -350 17
l-332 0 0 680 0 679 88 4 87 3 -87 2 -88 2 0 460 0 461 -25 24 -24 25 -1369 0
c-1140 0 -1371 2 -1381 14 -8 9 -11 103 -11 306 1 285 1 292 20 287 25 -6 25
-8 -4 82 l-23 73 -25 -75z m560 -1129 c7 -7 12 -20 12 -30 0 -17 -28 -18 -575
-18 -562 0 -575 0 -595 -20 -19 -19 -20 -33 -20 -370 0 -192 -3 -350 -7 -350
-3 0 -15 7 -25 17 -17 15 -18 40 -18 380 0 232 4 371 10 384 10 18 28 19 608
19 452 0 601 -3 610 -12z m70 -80 c7 -7 12 -20 12 -30 0 -17 -28 -18 -569 -18
-560 0 -569 0 -595 -21 l-26 -20 0 -350 c0 -192 -3 -349 -7 -349 -3 0 -15 7
-25 17 -17 15 -18 40 -18 381 0 326 2 367 17 384 15 17 47 18 608 18 446 0
594 -3 603 -12z m57 -78 l25 -10 0 -445 c0 -410 -3 -470 -24 -436 -11 17 -130
79 -196 101 -47 16 -91 23 -156 24 l-91 1 -149 -75 -149 -75 -90 0 c-104 1
-187 25 -281 81 -113 68 -102 25 -104 434 0 196 2 365 6 374 4 10 16 22 28 26
29 12 1150 12 1181 0z m2823 -1772 c17 -17 17 -989 0 -1006 -17 -17 -1339 -17
-1356 0 -17 17 -17 989 0 1006 17 17 1339 17 1356 0z"/>
<path d="M1230 1400 c-109 -14 -206 -39 -243 -64 l-32 -22 -3 -433 c-2 -337 1
-437 10 -449 21 -25 87 -49 183 -68 128 -25 548 -26 684 -1 101 19 178 47 186
70 3 7 7 107 8 223 l2 209 743 3 c737 2 742 2 742 -18 0 -11 4 -20 8 -20 13 0
133 42 130 45 -4 4 -125 45 -133 45 -3 0 -5 -9 -5 -20 0 -20 -7 -20 -739 -20
l-739 0 -6 26 c-4 15 -6 111 -5 214 1 103 -2 193 -5 199 -13 21 -70 43 -160
63 -72 15 -140 20 -321 23 -126 2 -264 0 -305 -5z m529 -25 c143 -18 236 -49
236 -80 0 -42 -176 -80 -428 -91 -273 -12 -587 37 -587 91 0 72 459 119 779
80z m-669 -155 c237 -59 688 -50 864 16 21 8 40 13 42 11 3 -3 5 -230 4 -595
l0 -213 -43 -19 c-90 -40 -216 -54 -467 -54 -260 0 -386 15 -468 56 l-47 23
-3 404 -2 403 22 -7 c13 -4 57 -15 98 -25z"/>
<path d="M3694 1396 c-18 -14 -19 -31 -19 -521 0 -490 1 -507 19 -521 17 -12
127 -14 691 -14 638 0 673 1 688 18 15 16 17 49 17 259 0 210 2 242 16 247 9
3 285 6 615 6 599 0 599 0 599 -21 0 -22 -4 -22 93 8 26 9 47 17 47 18 0 2
-25 11 -55 19 -30 9 -61 19 -68 22 -9 3 -16 -3 -20 -16 -5 -20 -6 -20 -614
-18 l-608 3 -5 253 c-4 210 -8 254 -20 262 -9 6 -281 10 -686 10 -563 0 -673
-2 -690 -14z m1364 -18 c17 -17 17 -989 0 -1006 -9 -9 -173 -12 -674 -12 -589
0 -664 2 -678 16 -13 13 -16 45 -16 192 l0 177 90 -4 c50 -1 101 0 114 3 33 8
46 47 46 141 0 121 -8 128 -146 123 l-104 -3 0 173 c0 100 4 181 10 193 10 18
29 19 678 19 506 0 671 -3 680 -12z m-1154 -410 c11 -15 16 -46 16 -95 0 -100
-13 -113 -117 -113 -104 0 -113 9 -113 113 0 109 8 117 116 117 74 0 84 -2 98
-22z"/>
</g>
</svg>
