<svg width="50" height="50" viewBox="0 0 50 50" fill="none" xmlns="http://www.w3.org/2000/svg">
<g clip-path="url(#clip0_147_373)">
<path d="M20.1083 14.1578C20.2257 15.8496 22.1587 16.776 23.5559 15.8148C24.7849 14.9688 26.4626 15.85 26.4626 17.3433V23.4868H31.065C30.2477 20.1491 32.894 16.8975 36.4143 17.1405C39.5115 17.3552 41.8084 20.3375 41.035 23.4868H45.6839C49.5739 17.6053 45.6563 9.0959 38.0758 8.70664C38.9329 4.18018 35.4428 0.0078125 30.8689 0.0078125C29.2166 0.0078125 27.6902 0.557031 26.4626 1.48223V10.6515C26.4626 12.1437 24.7861 13.0264 23.5557 12.1799C22.0606 11.1514 19.9787 12.2875 20.1083 14.1578Z" fill="white"/>
<path d="M10.5988 23.4867C12.0913 23.4867 12.9738 25.1636 12.1271 26.3938C11.1033 27.8813 12.2274 29.9697 14.1056 29.84C15.8013 29.7225 16.7231 27.788 15.7631 26.3934C14.9167 25.1638 15.7987 23.4867 17.2916 23.4867H23.5339V18.9804C20.3776 19.7557 17.401 17.4502 17.1866 14.3601C16.9436 10.8548 20.1817 8.19081 23.5339 9.01161V1.48212C18.2786 -2.47843 10.7501 2.04383 11.9033 8.60956C4.27765 9.01473 0.418572 17.5426 4.3423 23.4867H10.5988Z" fill="white"/>
<path d="M45.6348 26.4158H39.3976C37.9044 26.4158 37.0228 24.7385 37.8692 23.5089C38.8298 22.1138 37.9056 20.1799 36.2117 20.0625C34.3337 19.9321 33.209 22.0205 34.2332 23.5087C35.0796 24.7389 34.1978 26.4158 32.7049 26.4158H26.4626V30.9196C29.8053 30.1011 33.0536 32.7542 32.8099 36.268C32.5955 39.3592 29.6181 41.6629 26.4626 40.8883V48.5182C31.7179 52.4788 39.2464 47.9565 38.0932 41.3908C45.5356 40.9952 49.6724 32.6457 45.6348 26.4158Z" fill="white"/>
<path d="M29.888 36.0655C30.0176 34.1962 27.9358 33.059 26.4408 34.0879C25.211 34.9335 23.5337 34.0529 23.5337 32.5595V26.416H18.9288C19.7259 29.6602 17.2549 32.7752 13.9386 32.7752C10.5911 32.7752 8.17359 29.6208 8.95884 26.416H4.34263C0.421049 32.3595 4.27261 40.9013 11.9207 41.294C11.0635 45.8205 14.5537 49.9929 19.1276 49.9929C20.7798 49.9929 22.3062 49.4437 23.5338 48.5185V39.2514C23.5338 37.7594 25.2104 36.8764 26.4405 37.7229C27.8348 38.6825 29.7705 37.7608 29.888 36.0655Z" fill="white"/>
</g>
<defs>
<clipPath id="clip0_147_373">
<rect width="50" height="50" fill="white"/>
</clipPath>
</defs>
</svg>
