<svg width="50" height="50" viewBox="0 0 50 50" fill="none" xmlns="http://www.w3.org/2000/svg">
<g clip-path="url(#clip0_147_382)">
<path d="M29.5455 0H20.5569C19.3017 0 18.2842 1.01753 18.2842 2.27273V47.7273C18.2842 48.9825 19.3017 50 20.5569 50H29.5455C30.8007 50 31.8183 48.9825 31.8183 47.7273V2.27273C31.8183 1.01753 30.8007 0 29.5455 0Z" fill="white"/>
<path d="M11.2614 13.6367H2.27273C1.01753 13.6367 0 14.6543 0 15.9094V47.7276C0 48.9828 1.01753 50.0004 2.27273 50.0004H11.2614C12.5166 50.0004 13.5341 48.9828 13.5341 47.7276V15.9094C13.5341 14.6543 12.5166 13.6367 11.2614 13.6367Z" fill="white"/>
<path d="M47.7272 27.2725H38.7385C37.4834 27.2725 36.4658 28.29 36.4658 29.5452V47.727C36.4658 48.9822 37.4834 49.9997 38.7385 49.9997H47.7272C48.9824 49.9997 49.9999 48.9822 49.9999 47.727V29.5452C49.9999 28.29 48.9824 27.2725 47.7272 27.2725Z" fill="white"/>
</g>
<defs>
<clipPath id="clip0_147_382">
<rect width="50" height="50" fill="white"/>
</clipPath>
</defs>
</svg>
