<svg width="32" height="32" viewBox="0 0 32 32" fill="none" xmlns="http://www.w3.org/2000/svg">
<path d="M19.5625 32H7.4375C4.68042 32 2.4375 29.7571 2.4375 27V5C2.4375 2.24292 4.68042 0 7.4375 0H19.5625C22.3196 0 24.5625 2.24292 24.5625 5V6.94507C24.5625 7.6355 24.0029 8.19507 23.3125 8.19507C22.6221 8.19507 22.0625 7.6355 22.0625 6.94507V5C22.0625 3.62158 20.9409 2.5 19.5625 2.5H7.4375C6.05908 2.5 4.9375 3.62158 4.9375 5V27C4.9375 28.3784 6.05908 29.5 7.4375 29.5H19.5625C20.9409 29.5 22.0625 28.3784 22.0625 27V24.6326C22.0625 23.9421 22.6221 23.3826 23.3125 23.3826C24.0029 23.3826 24.5625 23.9421 24.5625 24.6326V27C24.5625 29.7571 22.3196 32 19.5625 32ZM14.75 26.3201C14.75 25.6296 14.1904 25.0701 13.5 25.0701C12.8096 25.0701 12.25 25.6296 12.25 26.3201C12.25 27.0105 12.8096 27.5701 13.5 27.5701C14.1904 27.5701 14.75 27.0105 14.75 26.3201ZM16 5.69507C16 5.00464 15.4404 4.44507 14.75 4.44507H12.25C11.5596 4.44507 11 5.00464 11 5.69507C11 6.3855 11.5596 6.94507 12.25 6.94507H14.75C15.4404 6.94507 16 6.3855 16 5.69507ZM17.7053 22.2576C18.2729 22.2576 18.8337 21.8835 18.9875 21.342L21.8267 11.3547C22.0547 10.5532 21.447 9.75757 20.6072 9.75757C20.0396 9.75757 19.5413 10.1316 19.3875 10.6731L16.5483 20.6606C16.3206 21.4622 16.8655 22.2576 17.7053 22.2576ZM14.4578 20.7483C14.9014 20.2192 14.832 19.4307 14.303 18.9873L11.2117 16.3953C11.082 16.2837 11.0625 16.1438 11.0625 16.0701C11.0625 15.9963 11.082 15.8564 11.2117 15.7449L14.303 13.1528C14.832 12.7095 14.9014 11.9209 14.4578 11.3918C14.0144 10.863 13.2258 10.7935 12.6968 11.2371L9.60156 13.8323C9.59961 13.834 9.59741 13.8357 9.59546 13.8376C8.93896 14.395 8.5625 15.2087 8.5625 16.0701C8.5625 16.9314 8.93896 17.7451 9.59546 18.3025C9.59741 18.3042 9.59937 18.3059 9.60156 18.3079L12.6968 20.9031C12.9309 21.0994 13.2158 21.1951 13.4993 21.1951C13.8562 21.1951 14.2107 21.043 14.4578 20.7483ZM25.4377 20.8948L28.467 18.3025C29.1235 17.7451 29.5 16.9314 29.5 16.0701C29.5 15.2087 29.1235 14.395 28.4705 13.8406L25.4377 11.2454C24.9131 10.7964 24.124 10.8579 23.6753 11.3823C23.2263 11.907 23.2878 12.696 23.8123 13.1448L26.8486 15.7429C26.9802 15.8547 27 15.9958 27 16.0701C27 16.144 26.9805 16.2852 26.8452 16.3999L23.8123 18.9954C23.2878 19.4441 23.2263 20.2332 23.6753 20.7576C23.9226 21.0466 24.2729 21.1951 24.6257 21.1951C24.9131 21.1951 25.2021 21.0964 25.4377 20.8948Z" fill="#2164F8"/>
</svg>
