<svg width="32" height="32" viewBox="0 0 32 32" fill="none" xmlns="http://www.w3.org/2000/svg">
<path fill-rule="evenodd" clip-rule="evenodd" d="M30.3337 8.00002C30.3337 6.32002 29.667 4.70935 28.479 3.52135C27.291 2.33335 25.6803 1.66669 24.0003 1.66669H8.00033C6.32033 1.66669 4.70966 2.33335 3.52166 3.52135C2.33366 4.70935 1.66699 6.32002 1.66699 8.00002V24C1.66699 25.68 2.33366 27.2907 3.52166 28.4787C4.70966 29.6667 6.32033 30.3334 8.00033 30.3334H24.0003C25.6803 30.3334 27.291 29.6667 28.479 28.4787C29.667 27.2907 30.3337 25.68 30.3337 24V8.00002ZM28.3337 8.00002V24C28.3337 25.1494 27.8777 26.252 27.0643 27.064C26.2523 27.8774 25.1497 28.3334 24.0003 28.3334H8.00033C6.85099 28.3334 5.74833 27.8774 4.93633 27.064C4.12299 26.252 3.66699 25.1494 3.66699 24V8.00002C3.66699 6.85069 4.12299 5.74802 4.93633 4.93602C5.74833 4.12269 6.85099 3.66669 8.00033 3.66669H24.0003C25.1497 3.66669 26.2523 4.12269 27.0643 4.93602C27.8777 5.74802 28.3337 6.85069 28.3337 8.00002Z" fill="#111113"/>
<path fill-rule="evenodd" clip-rule="evenodd" d="M16.6514 10.884L13.4514 20.484C13.2781 21.008 13.5607 21.5747 14.0847 21.7494C14.6087 21.9227 15.1754 21.64 15.3501 21.116L18.5501 11.516C18.7234 10.992 18.4407 10.4254 17.9167 10.2507C17.3927 10.0774 16.8261 10.36 16.6514 10.884Z" fill="#111113"/>
<path fill-rule="evenodd" clip-rule="evenodd" d="M20.0938 13.5067L22.5858 16L20.0938 18.4934C19.7031 18.8827 19.7031 19.5174 20.0938 19.9067C20.4831 20.2974 21.1178 20.2974 21.5071 19.9067L24.7071 16.7067C25.0978 16.316 25.0978 15.684 24.7071 15.2934L21.5071 12.0934C21.1178 11.7027 20.4831 11.7027 20.0938 12.0934C19.7031 12.4827 19.7031 13.1174 20.0938 13.5067Z" fill="#111113"/>
<path fill-rule="evenodd" clip-rule="evenodd" d="M10.494 12.0934L7.29398 15.2934C6.90331 15.684 6.90331 16.316 7.29398 16.7067L10.494 19.9067C10.8833 20.2974 11.518 20.2974 11.9073 19.9067C12.298 19.5174 12.298 18.8827 11.9073 18.4934L9.41531 16L11.9073 13.5067C12.298 13.1174 12.298 12.4827 11.9073 12.0934C11.518 11.7027 10.8833 11.7027 10.494 12.0934Z" fill="#111113"/>
</svg>
