<svg width="32" height="29" viewBox="0 0 32 29" fill="none" xmlns="http://www.w3.org/2000/svg">
<path d="M4.51317 19.8846C3.46591 19.8846 2.46153 19.4686 1.72101 18.7281C0.980478 17.9876 0.564453 16.9832 0.564453 15.9359V13.0641C0.564453 12.0169 0.980478 11.0125 1.72101 10.272C2.46153 9.53144 3.46591 9.11542 4.51317 9.11542H5.94907C6.23353 9.11914 6.50529 9.23379 6.70646 9.43495C6.90762 9.63612 7.02227 9.90788 7.02599 10.1923V17.3718C7.02222 18.0371 6.75627 18.6741 6.28584 19.1445C5.81541 19.6149 5.17845 19.8809 4.51317 19.8846ZM4.51317 11.2693C4.03714 11.2693 3.58061 11.4584 3.24401 11.795C2.9074 12.1316 2.7183 12.5881 2.7183 13.0641V15.9359C2.7183 16.412 2.9074 16.8685 3.24401 17.2051C3.58061 17.5417 4.03714 17.7308 4.51317 17.7308C4.60838 17.7308 4.69968 17.693 4.767 17.6257C4.83433 17.5583 4.87215 17.467 4.87215 17.3718V11.2693H4.51317Z" fill="#2164F8"/>
<path d="M27.4874 19.8846H26.0515C25.7671 19.8809 25.4953 19.7663 25.2941 19.5651C25.093 19.364 24.9783 19.0922 24.9746 18.8077V10.1923C24.9783 9.90788 25.093 9.63612 25.2941 9.43495C25.4953 9.23379 25.7671 9.11914 26.0515 9.11542H27.4874C28.5347 9.11542 29.5391 9.53144 30.2796 10.272C31.0201 11.0125 31.4361 12.0169 31.4361 13.0641V15.9359C31.4361 16.9832 31.0201 17.9876 30.2796 18.7281C29.5391 19.4686 28.5347 19.8846 27.4874 19.8846ZM27.1285 17.7308H27.4874C27.9635 17.7308 28.42 17.5417 28.7566 17.2051C29.0932 16.8685 29.2823 16.412 29.2823 15.9359V13.0641C29.2823 12.5881 29.0932 12.1316 28.7566 11.795C28.42 11.4584 27.9635 11.2693 27.4874 11.2693H27.1285V17.7308Z" fill="#2164F8"/>
<path d="M26.0525 12.7052C25.7681 12.7015 25.4963 12.5868 25.2951 12.3857C25.094 12.1845 24.9793 11.9127 24.9756 11.6283C24.9756 9.24812 24.0301 6.96546 22.3471 5.28244C20.6641 3.59942 18.3814 2.65391 16.0013 2.65391C13.6211 2.65391 11.3384 3.59942 9.65542 5.28244C7.9724 6.96546 7.02689 9.24812 7.02689 11.6283C7.02689 11.9139 6.91343 12.1878 6.71147 12.3898C6.50951 12.5917 6.23559 12.7052 5.94997 12.7052C5.66435 12.7052 5.39043 12.5917 5.18847 12.3898C4.98651 12.1878 4.87305 11.9139 4.87305 11.6283C4.87305 8.67688 6.04548 5.84638 8.13242 3.75944C10.2194 1.67249 13.0499 0.500061 16.0013 0.500061C18.9526 0.500061 21.7831 1.67249 23.8701 3.75944C25.957 5.84638 27.1295 8.67688 27.1295 11.6283C27.1257 11.9127 27.0111 12.1845 26.8099 12.3857C26.6088 12.5868 26.337 12.7015 26.0525 12.7052Z" fill="#2164F8"/>
<path d="M20.3081 27.0642H17.4363C17.1507 27.0642 16.8768 26.9507 16.6748 26.7487C16.4728 26.5468 16.3594 26.2729 16.3594 25.9872C16.3594 25.7016 16.4728 25.4277 16.6748 25.2257C16.8768 25.0238 17.1507 24.9103 17.4363 24.9103H20.3081C21.5446 24.9065 22.7294 24.4137 23.6037 23.5393C24.4781 22.665 24.971 21.4802 24.9748 20.2437V18.8078C24.9748 18.5221 25.0882 18.2482 25.2902 18.0463C25.4921 17.8443 25.7661 17.7308 26.0517 17.7308C26.3373 17.7308 26.6112 17.8443 26.8132 18.0463C27.0151 18.2482 27.1286 18.5221 27.1286 18.8078V20.2437C27.1286 22.0526 26.41 23.7874 25.1309 25.0665C23.8518 26.3456 22.117 27.0642 20.3081 27.0642Z" fill="#2164F8"/>
<path d="M16.0004 20.2436C14.8967 20.305 13.8117 19.9398 12.9698 19.2235C12.1279 18.5072 11.5935 17.4947 11.4773 16.3954C11.4641 16.254 11.4789 16.1114 11.5208 15.9757C11.5628 15.84 11.631 15.7138 11.7217 15.6045C11.8124 15.4952 11.9237 15.4048 12.0493 15.3384C12.1749 15.2721 12.3123 15.2312 12.4537 15.218C12.5952 15.2048 12.7378 15.2196 12.8735 15.2615C13.0092 15.3034 13.1354 15.3717 13.2447 15.4623C13.354 15.553 13.4444 15.6643 13.5107 15.7899C13.5771 15.9155 13.618 16.053 13.6312 16.1944C13.7032 16.7559 13.9905 17.2675 14.4326 17.6211C14.8746 17.9748 15.4368 18.1428 16.0004 18.0898C16.564 18.1428 17.1262 17.9748 17.5682 17.6211C18.0103 17.2675 18.2976 16.7559 18.3696 16.1944C18.3828 16.053 18.4238 15.9155 18.4901 15.7899C18.5564 15.6643 18.6468 15.553 18.7561 15.4623C18.8655 15.3717 18.9916 15.3034 19.1273 15.2615C19.263 15.2196 19.4057 15.2048 19.5471 15.218C19.6885 15.2312 19.8259 15.2721 19.9515 15.3384C20.0772 15.4048 20.1885 15.4952 20.2791 15.6045C20.3698 15.7138 20.4381 15.84 20.48 15.9757C20.5219 16.1114 20.5367 16.254 20.5235 16.3954C20.4073 17.4947 19.873 18.5072 19.031 19.2235C18.1891 19.9398 17.1041 20.305 16.0004 20.2436Z" fill="#2164F8"/>
<path d="M16.0015 28.5001H14.5656C13.8991 28.5001 13.26 28.2353 12.7887 27.7641C12.3175 27.2928 12.0527 26.6537 12.0527 25.9872C12.0527 25.3208 12.3175 24.6817 12.7887 24.2104C13.26 23.7392 13.8991 23.4744 14.5656 23.4744H16.0015C16.6679 23.4744 17.307 23.7392 17.7783 24.2104C18.2495 24.6817 18.5143 25.3208 18.5143 25.9872C18.5143 26.6537 18.2495 27.2928 17.7783 27.7641C17.307 28.2353 16.6679 28.5001 16.0015 28.5001ZM14.5656 25.6283C14.4703 25.6283 14.379 25.6661 14.3117 25.7334C14.2444 25.8007 14.2066 25.892 14.2066 25.9872C14.2066 26.0825 14.2444 26.1738 14.3117 26.2411C14.379 26.3084 14.4703 26.3462 14.5656 26.3462H16.0015C16.0967 26.3462 16.188 26.3084 16.2553 26.2411C16.3226 26.1738 16.3604 26.0825 16.3604 25.9872C16.3604 25.892 16.3226 25.8007 16.2553 25.7334C16.188 25.6661 16.0967 25.6283 16.0015 25.6283H14.5656Z" fill="#2164F8"/>
<path d="M13.1273 11.6283C13.9203 11.6283 14.5632 10.9854 14.5632 10.1924C14.5632 9.39934 13.9203 8.75647 13.1273 8.75647C12.3343 8.75647 11.6914 9.39934 11.6914 10.1924C11.6914 10.9854 12.3343 11.6283 13.1273 11.6283Z" fill="#2164F8"/>
<path d="M18.8734 11.6283C19.6664 11.6283 20.3093 10.9854 20.3093 10.1924C20.3093 9.39934 19.6664 8.75647 18.8734 8.75647C18.0804 8.75647 17.4375 9.39934 17.4375 10.1924C17.4375 10.9854 18.0804 11.6283 18.8734 11.6283Z" fill="#2164F8"/>
</svg>
