<svg width="32" height="32" viewBox="0 0 32 32" fill="none" xmlns="http://www.w3.org/2000/svg">
<path fill-rule="evenodd" clip-rule="evenodd" d="M30.3346 8.00002C30.3346 6.32002 29.668 4.70935 28.48 3.52135C27.292 2.33335 25.6813 1.66669 24.0013 1.66669H8.0013C6.3213 1.66669 4.71064 2.33335 3.52264 3.52135C2.33464 4.70935 1.66797 6.32002 1.66797 8.00002V24C1.66797 25.68 2.33464 27.2907 3.52264 28.4787C4.71064 29.6667 6.3213 30.3334 8.0013 30.3334H24.0013C25.6813 30.3334 27.292 29.6667 28.48 28.4787C29.668 27.2907 30.3346 25.68 30.3346 24V8.00002ZM28.3346 8.00002V24C28.3346 25.1494 27.8786 26.252 27.0653 27.064C26.2533 27.8774 25.1506 28.3334 24.0013 28.3334H8.0013C6.85197 28.3334 5.7493 27.8774 4.9373 27.064C4.12397 26.252 3.66797 25.1494 3.66797 24V8.00002C3.66797 6.85069 4.12397 5.74802 4.9373 4.93602C5.7493 4.12269 6.85197 3.66669 8.0013 3.66669H24.0013C25.1506 3.66669 26.2533 4.12269 27.0653 4.93602C27.8786 5.74802 28.3346 6.85069 28.3346 8.00002Z" fill="#2164F8"/>
<path fill-rule="evenodd" clip-rule="evenodd" d="M16.6533 10.884L13.4533 20.484C13.28 21.008 13.5627 21.5747 14.0867 21.7494C14.6107 21.9227 15.1773 21.64 15.352 21.116L18.552 11.516C18.7253 10.992 18.4427 10.4254 17.9187 10.2507C17.3947 10.0774 16.828 10.36 16.6533 10.884Z" fill="#2164F8"/>
<path fill-rule="evenodd" clip-rule="evenodd" d="M20.0938 13.5067L22.5858 16L20.0938 18.4934C19.7031 18.8827 19.7031 19.5174 20.0938 19.9067C20.4831 20.2974 21.1178 20.2974 21.5071 19.9067L24.7071 16.7067C25.0978 16.316 25.0978 15.684 24.7071 15.2934L21.5071 12.0934C21.1178 11.7027 20.4831 11.7027 20.0938 12.0934C19.7031 12.4827 19.7031 13.1174 20.0938 13.5067Z" fill="#2164F8"/>
<path fill-rule="evenodd" clip-rule="evenodd" d="M10.495 12.0934L7.29495 15.2934C6.90429 15.684 6.90429 16.316 7.29495 16.7067L10.495 19.9067C10.8843 20.2974 11.519 20.2974 11.9083 19.9067C12.299 19.5174 12.299 18.8827 11.9083 18.4934L9.41629 16L11.9083 13.5067C12.299 13.1174 12.299 12.4827 11.9083 12.0934C11.519 11.7027 10.8843 11.7027 10.495 12.0934Z" fill="#2164F8"/>
</svg>
