<svg width="32" height="32" viewBox="0 0 32 32" fill="none" xmlns="http://www.w3.org/2000/svg">
<path d="M4.51317 21.3846C3.46591 21.3846 2.46153 20.9686 1.72101 20.228C0.980478 19.4875 0.564453 18.4831 0.564453 17.4359V14.5641C0.564453 13.5168 0.980478 12.5124 1.72101 11.7719C2.46153 11.0314 3.46591 10.6154 4.51317 10.6154H5.94907C6.23353 10.6191 6.50529 10.7337 6.70646 10.9349C6.90762 11.1361 7.02227 11.4078 7.02599 11.6923V18.8718C7.02222 19.537 6.75627 20.174 6.28584 20.6444C5.81541 21.1149 5.17845 21.3808 4.51317 21.3846ZM4.51317 12.7692C4.03714 12.7692 3.58061 12.9583 3.24401 13.2949C2.9074 13.6315 2.7183 14.088 2.7183 14.5641V17.4359C2.7183 17.9119 2.9074 18.3684 3.24401 18.705C3.58061 19.0416 4.03714 19.2307 4.51317 19.2307C4.60838 19.2307 4.69968 19.1929 4.767 19.1256C4.83433 19.0583 4.87215 18.967 4.87215 18.8718V12.7692H4.51317Z" fill="#111113"/>
<path d="M27.4874 21.3846H26.0515C25.7671 21.3809 25.4953 21.2662 25.2941 21.0651C25.093 20.8639 24.9783 20.5921 24.9746 20.3077V11.6923C24.9783 11.4078 25.093 11.1361 25.2941 10.9349C25.4953 10.7337 25.7671 10.6191 26.0515 10.6154H27.4874C28.5347 10.6154 29.5391 11.0314 30.2796 11.7719C31.0201 12.5124 31.4361 13.5168 31.4361 14.5641V17.4359C31.4361 18.4831 31.0201 19.4875 30.2796 20.228C29.5391 20.9686 28.5347 21.3846 27.4874 21.3846ZM27.1285 19.2307H27.4874C27.9635 19.2307 28.42 19.0416 28.7566 18.705C29.0932 18.3684 29.2823 17.9119 29.2823 17.4359V14.5641C29.2823 14.088 29.0932 13.6315 28.7566 13.2949C28.42 12.9583 27.9635 12.7692 27.4874 12.7692H27.1285V19.2307Z" fill="#111113"/>
<path d="M26.0516 14.2051C25.7671 14.2014 25.4953 14.0868 25.2942 13.8856C25.093 13.6844 24.9784 13.4127 24.9746 13.1282C24.9746 10.7481 24.0291 8.46539 22.3461 6.78238C20.6631 5.09936 18.3804 4.15385 16.0003 4.15385C13.6201 4.15385 11.3375 5.09936 9.65445 6.78238C7.97143 8.46539 7.02592 10.7481 7.02592 13.1282C7.02592 13.4138 6.91246 13.6877 6.71049 13.8897C6.50853 14.0917 6.23461 14.2051 5.94899 14.2051C5.66338 14.2051 5.38946 14.0917 5.18749 13.8897C4.98553 13.6877 4.87207 13.4138 4.87207 13.1282C4.87207 10.1768 6.0445 7.34632 8.13145 5.25938C10.2184 3.17243 13.0489 2 16.0003 2C18.9517 2 21.7822 3.17243 23.8691 5.25938C25.9561 7.34632 27.1285 10.1768 27.1285 13.1282C27.1248 13.4127 27.0101 13.6844 26.8089 13.8856C26.6078 14.0868 26.336 14.2014 26.0516 14.2051Z" fill="#111113"/>
<path d="M20.3081 28.5641H17.4363C17.1507 28.5641 16.8768 28.4506 16.6748 28.2487C16.4728 28.0467 16.3594 27.7728 16.3594 27.4872C16.3594 27.2016 16.4728 26.9276 16.6748 26.7257C16.8768 26.5237 17.1507 26.4103 17.4363 26.4103H20.3081C21.5446 26.4065 22.7294 25.9136 23.6037 25.0392C24.4781 24.1649 24.971 22.9801 24.9748 21.7436V20.3077C24.9748 20.0221 25.0882 19.7482 25.2902 19.5462C25.4921 19.3442 25.7661 19.2308 26.0517 19.2308C26.3373 19.2308 26.6112 19.3442 26.8132 19.5462C27.0151 19.7482 27.1286 20.0221 27.1286 20.3077V21.7436C27.1286 23.5525 26.41 25.2873 25.1309 26.5664C23.8518 27.8455 22.117 28.5641 20.3081 28.5641Z" fill="#111113"/>
<path d="M16.0002 21.7436C14.8965 21.805 13.8114 21.4397 12.9695 20.7235C12.1276 20.0072 11.5933 18.9946 11.4771 17.8954C11.4639 17.7539 11.4787 17.6113 11.5206 17.4756C11.5625 17.3399 11.6308 17.2138 11.7214 17.1044C11.8121 16.9951 11.9234 16.9047 12.049 16.8384C12.1746 16.7721 12.3121 16.7311 12.4535 16.7179C12.5949 16.7047 12.7376 16.7195 12.8733 16.7614C13.009 16.8034 13.1351 16.8716 13.2444 16.9623C13.3538 17.053 13.4442 17.1643 13.5105 17.2899C13.5768 17.4155 13.6177 17.5529 13.6309 17.6943C13.7029 18.2559 13.9903 18.7674 14.4323 19.1211C14.8744 19.4747 15.4366 19.6427 16.0002 19.5897C16.5638 19.6427 17.1259 19.4747 17.568 19.1211C18.01 18.7674 18.2974 18.2559 18.3694 17.6943C18.3826 17.5529 18.4235 17.4155 18.4898 17.2899C18.5562 17.1643 18.6466 17.053 18.7559 16.9623C18.8652 16.8716 18.9914 16.8034 19.1271 16.7614C19.2628 16.7195 19.4054 16.7047 19.5468 16.7179C19.6883 16.7311 19.8257 16.7721 19.9513 16.8384C20.0769 16.9047 20.1882 16.9951 20.2789 17.1044C20.3696 17.2138 20.4378 17.3399 20.4797 17.4756C20.5217 17.6113 20.5364 17.7539 20.5232 17.8954C20.407 18.9946 19.8727 20.0072 19.0308 20.7235C18.1889 21.4397 17.1038 21.805 16.0002 21.7436Z" fill="#111113"/>
<path d="M16.0007 30H14.5648C13.8984 30 13.2592 29.7353 12.788 29.264C12.3167 28.7928 12.052 28.1536 12.052 27.4872C12.052 26.8207 12.3167 26.1816 12.788 25.7104C13.2592 25.2391 13.8984 24.9744 14.5648 24.9744H16.0007C16.6672 24.9744 17.3063 25.2391 17.7776 25.7104C18.2488 26.1816 18.5135 26.8207 18.5135 27.4872C18.5135 28.1536 18.2488 28.7928 17.7776 29.264C17.3063 29.7353 16.6672 30 16.0007 30ZM14.5648 27.1282C14.4696 27.1282 14.3783 27.166 14.311 27.2334C14.2437 27.3007 14.2058 27.392 14.2058 27.4872C14.2058 27.5824 14.2437 27.6737 14.311 27.741C14.3783 27.8083 14.4696 27.8462 14.5648 27.8462H16.0007C16.0959 27.8462 16.1872 27.8083 16.2546 27.741C16.3219 27.6737 16.3597 27.5824 16.3597 27.4872C16.3597 27.392 16.3219 27.3007 16.2546 27.2334C16.1872 27.166 16.0959 27.1282 16.0007 27.1282H14.5648Z" fill="#111113"/>
<path d="M13.1283 13.1282C13.9213 13.1282 14.5642 12.4853 14.5642 11.6923C14.5642 10.8993 13.9213 10.2564 13.1283 10.2564C12.3353 10.2564 11.6924 10.8993 11.6924 11.6923C11.6924 12.4853 12.3353 13.1282 13.1283 13.1282Z" fill="#111113"/>
<path d="M18.8724 13.1282C19.6654 13.1282 20.3083 12.4853 20.3083 11.6923C20.3083 10.8993 19.6654 10.2564 18.8724 10.2564C18.0794 10.2564 17.4365 10.8993 17.4365 11.6923C17.4365 12.4853 18.0794 13.1282 18.8724 13.1282Z" fill="#111113"/>
</svg>
