<?xml version="1.0" standalone="no"?>
<!DOCTYPE svg PUBLIC "-//W3C//DTD SVG 20010904//EN"
 "http://www.w3.org/TR/2001/REC-SVG-20010904/DTD/svg10.dtd">
<svg version="1.0" xmlns="http://www.w3.org/2000/svg"
 width="300.000000pt" height="242.000000pt" viewBox="0 0 300.000000 242.000000"
 preserveAspectRatio="xMidYMid meet">
<metadata>
Created by potrace 1.10, written by Peter Selinger 2001-2011
</metadata>
<g transform="translate(0.000000,242.000000) scale(0.100000,-0.100000)"
fill="#000000" stroke="none">
<path d="M1041 2313 c0 -5 148 -81 327 -171 180 -89 379 -189 441 -222 63 -33
117 -58 119 -56 2 3 -4 16 -13 30 -10 14 -13 26 -9 26 14 0 128 -59 312 -162
17 -10 32 -13 32 -8 0 14 -172 127 -240 158 -30 13 -92 33 -138 43 -68 15
-144 49 -430 194 -308 156 -404 196 -401 168z"/>
<path d="M1322 2301 c1 -5 86 -51 188 -101 101 -51 197 -101 213 -112 29 -21
42 -21 29 -2 -11 18 -162 114 -227 144 -85 39 -207 82 -203 71z"/>
<path d="M870 2278 c0 -7 121 -73 268 -146 147 -73 398 -200 557 -282 160 -82
293 -149 298 -150 4 0 7 8 7 18 0 12 -46 40 -163 100 -89 45 -196 100 -237
121 -41 22 -208 105 -370 186 -162 81 -299 151 -304 156 -15 14 -56 11 -56 -3z"/>
<path d="M738 2232 c-30 -6 -20 -17 45 -48 57 -28 822 -415 1124 -570 73 -37
136 -65 139 -61 15 15 -9 38 -73 67 -37 17 -75 35 -83 40 -16 10 -101 53 -345
179 -88 45 -167 85 -175 90 -227 117 -619 306 -632 303z"/>
<path d="M613 2159 c-9 -9 69 -52 305 -171 402 -203 953 -483 1056 -537 59
-30 82 -38 87 -29 13 21 69 -10 -526 293 -154 78 -293 149 -310 158 -16 9
-124 63 -240 120 -116 58 -241 121 -280 141 -80 41 -77 40 -92 25z"/>
<path d="M510 2078 c0 -7 177 -102 393 -211 215 -109 560 -283 765 -387 206
-105 378 -190 383 -190 5 0 9 7 9 15 0 25 21 18 166 -56 260 -134 329 -168
333 -164 15 16 -43 50 -306 182 -164 82 -306 152 -316 156 -36 14 -7 -10 47
-37 63 -32 99 -65 56 -51 -22 7 -471 232 -795 400 -150 77 -112 58 -432 218
-150 76 -280 137 -288 137 -8 0 -15 -6 -15 -12z"/>
<path d="M434 1999 c-3 -6 -2 -15 2 -19 9 -9 205 -108 1004 -513 228 -115 453
-229 498 -253 94 -49 102 -51 102 -26 -1 12 -61 47 -218 126 -428 214 -787
398 -803 412 -8 8 -22 14 -29 14 -14 0 -509 246 -524 261 -13 12 -23 11 -32
-2z"/>
<path d="M1611 1966 c2 -2 49 -27 104 -56 55 -29 126 -68 158 -87 32 -18 62
-33 66 -33 5 0 31 -15 57 -33 27 -18 128 -73 224 -121 96 -49 181 -93 188 -99
23 -18 23 0 0 26 -13 14 -151 89 -308 167 -157 78 -329 164 -383 191 -86 43
-120 57 -106 45z"/>
<path d="M360 1905 c-9 -11 5 -21 72 -55 46 -23 263 -133 483 -245 911 -462
1077 -545 1086 -545 5 0 9 8 8 18 0 12 -105 69 -390 212 -326 163 -624 314
-689 348 -8 5 -137 70 -287 145 -223 112 -273 134 -283 122z"/>
<path d="M302 1803 c2 -12 96 -65 283 -159 512 -258 1139 -576 1254 -636 113
-59 121 -60 134 -24 2 5 77 -29 167 -76 326 -168 351 -180 357 -175 20 20 -26
45 -646 351 -96 47 -177 84 -179 81 -2 -2 22 -17 54 -33 59 -30 182 -97 219
-119 11 -6 17 -14 14 -17 -3 -4 -102 43 -220 102 -118 60 -360 183 -539 274
-179 91 -334 170 -345 176 -11 6 -123 62 -250 125 -126 63 -243 122 -260 131
-38 20 -47 20 -43 -1z"/>
<path d="M1704 1791 c5 -8 79 -48 251 -135 44 -23 85 -46 90 -53 14 -15 445
-236 451 -230 9 9 -7 32 -29 43 -12 6 -125 63 -252 127 -322 163 -517 258
-511 248z"/>
<path d="M250 1698 c0 -7 181 -104 403 -216 221 -112 589 -298 817 -413 338
-171 418 -208 432 -200 26 16 38 14 103 -20 250 -130 429 -219 442 -219 44 0
-22 39 -294 175 -379 189 -435 216 -440 211 -4 -3 32 -24 129 -74 46 -23 65
-39 56 -47 -2 -2 -23 6 -47 18 -23 12 -187 96 -364 185 -177 90 -402 205 -500
255 -98 51 -188 96 -200 102 -12 5 -132 65 -267 132 -135 68 -251 123 -258
123 -6 0 -12 -6 -12 -12z"/>
<path d="M1785 1622 c6 -5 46 -29 90 -52 44 -23 98 -52 120 -63 22 -12 49 -29
60 -38 27 -23 477 -251 483 -245 15 16 -38 47 -334 195 -413 207 -431 215
-419 203z"/>
<path d="M220 1587 c0 -7 80 -54 178 -103 97 -50 402 -204 677 -344 275 -139
555 -281 622 -316 102 -52 124 -60 134 -48 6 8 17 14 25 14 7 0 68 -29 136
-63 275 -142 386 -197 397 -197 37 0 -12 33 -150 104 -281 143 -323 164 -442
220 -129 60 -151 61 -32 0 66 -33 92 -54 67 -54 -4 0 -130 62 -280 138 -150
75 -506 255 -792 400 -286 144 -525 262 -530 262 -6 0 -10 -6 -10 -13z"/>
<path d="M200 1471 c0 -15 20 -26 425 -231 220 -112 559 -283 753 -381 342
-174 353 -179 377 -163 22 15 27 14 67 -9 101 -57 480 -247 494 -247 22 0 12
23 -17 37 -39 20 -224 112 -374 187 -344 172 -397 197 -402 193 -2 -3 24 -20
59 -37 106 -53 150 -78 162 -90 33 -35 -91 25 -969 473 -38 20 -147 74 -241
121 -95 47 -202 101 -239 121 -66 35 -95 43 -95 26z"/>
<path d="M200 1343 c1 -10 14 -25 33 -33 90 -44 1299 -657 1344 -682 49 -27
54 -28 76 -14 22 15 35 9 301 -125 198 -100 281 -138 289 -130 6 6 9 12 6 14
-2 2 -109 56 -236 120 -128 64 -241 121 -250 127 -20 11 -392 192 -408 199 -7
2 -7 0 0 -6 6 -6 73 -43 150 -83 150 -77 169 -90 142 -90 -10 0 -115 50 -235
112 -185 95 -1181 597 -1204 606 -4 2 -8 -5 -8 -15z"/>
<path d="M1934 1287 c21 -12 63 -38 95 -58 110 -69 513 -271 522 -262 13 13 0
23 -96 70 -44 22 -125 64 -180 92 -138 71 -365 181 -373 181 -4 -1 10 -11 32
-23z"/>
<path d="M1539 1230 c41 -22 77 -38 79 -35 4 4 -133 75 -145 75 -5 0 25 -18
66 -40z"/>
<path d="M1796 1231 c6 -6 44 -29 85 -50 88 -45 116 -61 140 -80 34 -27 502
-260 511 -255 5 3 8 10 6 14 -2 5 -131 73 -288 152 -358 180 -468 233 -454
219z"/>
<path d="M219 1203 c5 -10 168 -98 363 -197 194 -98 481 -244 638 -323 264
-135 287 -145 314 -135 27 11 49 1 311 -132 193 -99 286 -142 295 -136 8 5 12
11 10 13 -14 13 -611 310 -775 385 -7 3 -7 1 0 -6 6 -5 43 -27 83 -47 40 -21
75 -42 78 -46 7 -12 -29 -11 -41 0 -6 5 -174 92 -375 194 -201 102 -378 192
-395 200 -161 83 -496 247 -504 247 -8 0 -9 -6 -2 -17z"/>
<path d="M1220 1137 c9 -8 150 -77 150 -73 0 6 -108 64 -134 72 -11 4 -19 4
-16 1z"/>
<path d="M250 1073 c0 -24 75 -66 480 -271 239 -121 476 -241 525 -267 77 -40
96 -46 130 -41 37 5 65 -7 326 -139 274 -138 319 -158 319 -135 0 8 -873 450
-889 450 -11 0 38 -29 144 -84 61 -32 114 -62 119 -67 25 -23 -51 7 -162 63
-67 35 -135 69 -150 76 -15 7 -34 17 -42 22 -14 8 -775 391 -792 398 -5 2 -8
0 -8 -5z"/>
<path d="M770 985 c0 -2 27 -18 60 -35 33 -17 60 -28 60 -25 0 2 -27 18 -60
35 -33 17 -60 28 -60 25z"/>
<path d="M1520 987 c0 -6 142 -79 146 -75 2 2 -27 19 -64 38 -86 44 -82 42
-82 37z"/>
<path d="M1199 890 c30 -17 56 -29 58 -27 4 5 -92 57 -103 57 -5 0 15 -14 45
-30z"/>
<path d="M340 890 c15 -28 10 -25 434 -239 339 -171 385 -191 429 -191 43 0
83 -17 344 -150 163 -82 307 -150 321 -150 16 0 22 4 17 9 -9 9 -1045 531
-1080 545 -25 9 -17 -2 13 -17 268 -137 389 -201 397 -208 36 -34 -78 18 -451
206 -234 118 -428 215 -430 215 -3 0 0 -9 6 -20z"/>
<path d="M750 865 c0 -6 96 -55 107 -55 9 0 -63 43 -89 53 -10 3 -18 4 -18 2z"/>
<path d="M981 746 c7 -7 73 -42 92 -49 36 -14 15 4 -35 28 -49 23 -67 30 -57
21z"/>
<path d="M496 692 c5 -5 47 -34 94 -65 115 -75 223 -124 322 -146 68 -15 138
-46 393 -176 171 -87 315 -161 320 -165 6 -5 27 -11 48 -15 43 -8 52 10 13 25
-14 5 -107 50 -208 101 -448 225 -617 309 -623 309 -15 0 7 -19 40 -34 19 -9
35 -21 35 -26 0 -5 -16 -1 -35 10 -20 11 -41 20 -48 20 -19 0 -304 147 -313
161 -3 5 -15 9 -27 9 -12 0 -17 -4 -11 -8z"/>
<path d="M1021 342 c15 -9 59 -39 99 -65 84 -56 129 -78 229 -112 130 -44 110
-28 -86 69 -83 41 -170 86 -192 100 -47 30 -94 38 -50 8z"/>
</g>
</svg>
