<svg width="30" height="30" viewBox="0 0 30 30" fill="none" xmlns="http://www.w3.org/2000/svg">
<path d="M10.3562 11.9665C14.2078 10.1297 17.2221 7.01269 18.9525 3.11642C17.8361 1.94754 16.3848 1.11263 14.8218 0.611679L13.9845 0.333374C13.9287 0.444696 13.8729 0.611686 13.8729 0.723008C12.5332 4.50795 9.79802 7.5693 6.1139 9.29479C3.54618 10.5193 1.64829 12.7458 0.755174 15.4175L0.476074 16.2524C0.587714 16.3081 0.755177 16.3637 0.866817 16.3637C1.9274 16.7534 2.98798 17.2543 3.99274 17.8666C5.38824 15.3618 7.62103 13.2467 10.3562 11.9665Z" fill="#535862"/>
<path opacity="0.8" d="M26.5441 12.1892C24.4788 15.3062 21.6319 17.811 18.1153 19.4808C15.2685 20.8167 13.0915 23.3214 12.0867 26.3271L11.8076 27.2733C12.8682 28.2196 14.1521 28.9432 15.5476 29.3885L16.3849 29.6668C16.4407 29.5554 16.4965 29.3885 16.4965 29.2771C17.8362 25.4922 20.5714 22.4308 24.2555 20.7053C26.8232 19.4808 28.7769 17.2544 29.6142 14.5826L29.8933 13.7477C28.7211 13.4138 27.6047 12.8571 26.5441 12.1892Z" fill="#535862"/>
<path opacity="0.9" d="M9.57465 24.3788C10.9701 21.0391 13.5379 18.3117 16.8312 16.7532C19.8455 15.306 22.3574 13.0796 24.0878 10.3522C22.804 9.12764 21.7434 7.73611 20.9619 6.06628C18.8966 9.85123 15.659 12.9126 11.6958 14.8051C9.40719 15.8626 7.56513 17.6994 6.44873 19.9259C7.67677 21.0948 8.68153 22.5419 9.46301 24.1561C9.46301 24.1561 9.51883 24.2674 9.57465 24.3788Z" fill="#535862"/>
</svg>
