<?xml version="1.0" standalone="no"?>
<!DOCTYPE svg PUBLIC "-//W3C//DTD SVG 20010904//EN"
 "http://www.w3.org/TR/2001/REC-SVG-20010904/DTD/svg10.dtd">
<svg version="1.0" xmlns="http://www.w3.org/2000/svg"
 width="512.000000pt" height="512.000000pt" viewBox="0 0 512.000000 512.000000"
 preserveAspectRatio="xMidYMid meet">
<metadata>
Created by potrace 1.10, written by Peter Selinger 2001-2011
</metadata>
<g transform="translate(0.000000,512.000000) scale(0.100000,-0.100000)"
fill="#000000" stroke="none">
<path d="M2075 5114 c-16 -2 -70 -9 -120 -15 -474 -57 -945 -289 -1295 -639
-552 -553 -779 -1350 -599 -2110 191 -810 822 -1450 1634 -1660 194 -50 318
-64 555 -64 237 0 361 14 555 64 225 58 469 163 641 275 47 30 88 55 91 55 4
0 86 -78 182 -174 209 -206 235 -221 386 -220 127 1 189 26 276 113 87 87 112
149 113 276 1 151 -14 177 -220 386 -96 96 -174 178 -174 182 0 3 23 41 51 84
65 100 179 332 219 448 91 263 124 463 124 755 0 237 -14 361 -64 555 -42 162
-83 273 -159 430 -323 665 -954 1130 -1686 1240 -103 16 -442 28 -510 19z
m457 -813 c284 -57 540 -194 747 -401 163 -163 290 -369 359 -585 91 -281 91
-610 1 -888 -29 -90 -107 -267 -118 -267 -3 0 -82 76 -176 169 -212 212 -237
226 -395 226 -93 0 -112 -3 -162 -27 -80 -37 -152 -107 -191 -187 -30 -61 -32
-72 -32 -171 0 -158 14 -182 227 -397 95 -95 170 -174 167 -177 -14 -12 -137
-68 -219 -99 -156 -58 -297 -82 -490 -81 -117 0 -193 6 -260 18 -601 116
-1060 574 -1176 1176 -25 131 -25 389 0 520 57 295 197 560 406 770 242 241
538 381 900 424 75 9 319 -5 412 -23z"/>
</g>
</svg>
