<?xml version="1.0" standalone="no"?>
<!DOCTYPE svg PUBLIC "-//W3C//DTD SVG 20010904//EN"
 "http://www.w3.org/TR/2001/REC-SVG-20010904/DTD/svg10.dtd">
<svg version="1.0" xmlns="http://www.w3.org/2000/svg"
 width="300.000000pt" height="300.000000pt" viewBox="0 0 300.000000 300.000000"
 preserveAspectRatio="xMidYMid meet">
<metadata>
Created by potrace 1.10, written by Peter Selinger 2001-2011
</metadata>
<g transform="translate(0.000000,300.000000) scale(0.050000,-0.050000)"
fill="#000000" stroke="none">
<path d="M2951 5428 c-498 -858 -1389 -1766 -2259 -2300 -106 -65 -192 -122
-192 -128 0 -5 86 -63 192 -128 886 -544 1763 -1445 2299 -2363 19 -31 28 -24
78 63 498 858 1388 1765 2256 2298 107 66 195 125 195 130 0 6 -88 64 -195
129 -879 539 -1761 1446 -2296 2362 -19 31 -28 24 -78 -63z m169 -431 c71 -98
75 -144 19 -184 -59 -41 -109 -21 -168 69 -119 180 23 289 149 115z m495 -642
c351 -400 766 -786 1143 -1062 435 -319 428 -282 104 -508 -106 -74 -297 -222
-425 -329 -247 -207 -263 -215 -320 -163 -81 73 27 190 508 550 224 169 224
145 5 309 -372 279 -749 622 -1035 943 -295 330 -309 351 -267 414 55 85 97
63 287 -154z"/>
</g>
</svg>
