<?xml version="1.0" standalone="no"?>
<!DOCTYPE svg PUBLIC "-//W3C//DTD SVG 20010904//EN"
 "http://www.w3.org/TR/2001/REC-SVG-20010904/DTD/svg10.dtd">
<svg version="1.0" xmlns="http://www.w3.org/2000/svg"
 width="300.000000pt" height="300.000000pt" viewBox="0 0 300.000000 300.000000"
 preserveAspectRatio="xMidYMid meet">
<metadata>
Created by potrace 1.10, written by Peter Selinger 2001-2011
</metadata>
<g transform="translate(0.000000,300.000000) scale(0.050000,-0.050000)"
fill="#000000" stroke="none">
<path d="M2590 5970 c-2441 -391 -3445 -3279 -1750 -5037 1748 -1813 4761
-833 5129 1670 282 1918 -1477 3671 -3379 3367z m540 -1130 c40 -45 41 -99 10
-730 -11 -209 -20 -431 -20 -494 l0 -114 532 -6 c742 -8 729 75 154 -963 -239
-430 -508 -918 -598 -1082 -168 -306 -205 -346 -296 -323 -88 22 -95 63 -74
427 11 184 26 472 33 640 l14 305 -518 0 c-574 0 -607 7 -607 120 0 63 1156
2191 1214 2235 49 37 115 31 156 -15z"/>
</g>
</svg>
