<svg width="16" height="15" viewBox="0 0 16 15" fill="none" xmlns="http://www.w3.org/2000/svg">
<path d="M10.797 9.75514L10.4174 10.1325C10.4174 10.1325 9.51527 11.0296 7.05276 8.58103C4.59026 6.13251 5.49242 5.23548 5.49242 5.23548L5.73143 4.99782C6.32022 4.41237 6.37573 3.47243 5.86203 2.78624L4.81121 1.38257C4.1754 0.533265 2.94679 0.421072 2.21804 1.14569L0.910037 2.44627C0.548687 2.80556 0.306539 3.27133 0.335902 3.78801C0.411025 5.10985 1.00909 7.95388 4.3463 11.2721C7.88528 14.791 11.2059 14.9309 12.5637 14.8043C12.9932 14.7643 13.3668 14.5455 13.6678 14.2462L14.8516 13.0691C15.6506 12.2746 15.4253 10.9124 14.4029 10.3567L12.8108 9.49118C12.1395 9.12624 11.3216 9.23344 10.797 9.75514Z" fill="white"/>
</svg>
